<?xml version="1.0" encoding="UTF-8"?>
<svg id="crash_game" data-name="crash game" xmlns="http://www.w3.org/2000/svg" viewBox="0 0 29.22 33.44">
  <path d="M10.09,2.48c1.39-.8,2.79-1.61,4.18-2.42.03-.01.04-.04.07-.06.17,0,.35,0,.52,0,1.29.75,2.59,1.5,3.88,2.25.08.05.16.11.24.16-.02.12-.12.18-.21.23-1.32.76-2.63,1.52-3.95,2.28-.17.1-.33.13-.52.03-1.37-.79-2.75-1.58-4.12-2.38-.04-.02-.07-.05-.09-.09Z" fill="#df4e4b" stroke-width="0"/>
  <path d="M10.09,2.48c.63.25,1.18.64,1.77.97.84.47,1.67.96,2.51,1.45.1.06.19.08.3.02,1.44-.84,2.87-1.67,4.31-2.5.33.18.65.36.98.55.07.19-.11.21-.2.27-1.24.73-2.48,1.44-3.73,2.16q-.32.18,0,.37c1.02.6,2.06,1.18,3.08,1.79.22.13.41.14.64,0,1.25-.72,2.5-1.45,3.76-2.17.14-.08.28-.17.46-.1.32.15.62.32.91.53,0,.2-.18.23-.3.3-1.21.69-2.4,1.4-3.61,2.08-.03.02-.06.03-.08.05-.24.15-.24.18,0,.32.6.35,1.21.69,1.81,1.04.63.37,1.27.72,1.89,1.1.11.07.25.11.25.27-.29.27-.62.45-.99.57-.32-.06-.57-.27-.84-.42-1.05-.6-2.1-1.19-3.13-1.81-.29-.18-.53-.19-.83,0-1.02.62-2.06,1.21-3.1,1.8-.05.03-.09.05-.13.12.06.13.21.17.32.23,1.17.68,2.35,1.36,3.53,2.04.12.07.27.11.28.28-.25.3-.6.43-.93.58-.08,0-.16-.02-.24-.05-1.31-.7-2.58-1.47-3.86-2.21-.27-.15-.47-.15-.72,0-.59.37-1.19.71-1.8,1.03-.68.42-1.38.8-2.07,1.2-.42-.05-.73-.31-1.06-.54-.02-.03-.02-.06-.02-.09.22-.29.57-.4.87-.59.32-.2.65-.38.97-.57.7-.39,1.39-.81,2.09-1.2.19-.11.14-.18,0-.26-1.09-.63-2.18-1.26-3.28-1.89-.18-.1-.32-.07-.49.02-.64.36-1.28.74-1.92,1.1-.62.36-1.23.71-1.85,1.07-.1.06-.21.11-.34.09-.34-.11-.63-.31-.93-.5-.02-.03-.02-.06-.02-.09.05-.15.18-.21.3-.28.71-.39,1.39-.83,2.11-1.21.55-.36,1.15-.64,1.73-1.02-.91-.55-1.8-1.05-2.68-1.55-.41-.26-.85-.47-1.26-.73-.11-.07-.24-.12-.22-.28.32-.19.63-.4.97-.54.29-.01.47.22.71.33,1.1.62,2.19,1.25,3.27,1.89.28.17.49.17.78,0,1.03-.6,2.07-1.2,3.1-1.79.06-.04.14-.06.2-.16-.49-.31-1-.6-1.51-.88-.78-.45-1.56-.91-2.34-1.35-.12-.07-.29-.12-.28-.31.31-.18.61-.35.92-.53Z" fill="#b92b20" stroke-width="0"/>
  <path d="M18.96,14.3c.31-.18.61-.36.92-.54.04,0,.07,0,.1.04.08.15.06.32.06.48,0,1.3,0,2.61,0,3.91,0,.1-.05.24.05.3.1.06.2-.06.29-.11.98-.56,1.95-1.14,2.94-1.69.29-.16.39-.36.39-.68-.01-1.33,0-2.65,0-3.98,0-.15-.02-.3.03-.45.02-.04.04-.07.07-.09.32-.18.65-.37.97-.55.04,0,.07,0,.1.03.09.15.06.32.06.48,0,1.29,0,2.59,0,3.88,0,.12-.02.24.02.35.15,0,.25-.09.36-.15,1.11-.66,2.24-1.29,3.36-1.95.02-.01.04-.02.06-.03.4-.22.46-.19.45.26,0,.27.04.54-.03.81h0c-.09.11-.21.19-.33.26-1.19.68-2.36,1.38-3.56,2.05-.23.13-.34.29-.34.57.01,1.16,0,2.32,0,3.49,0,.34.03.36.32.19,1.12-.65,2.24-1.29,3.36-1.94.07-.04.15-.09.23-.13.28-.13.35-.1.35.21,0,.29.03.59-.02.88h0c-.09.13-.2.22-.34.3-1.15.66-2.29,1.34-3.45,1.98-.33.18-.45.4-.45.78.02,1.3,0,2.61,0,3.92,0,.16.01.33-.09.47-.33.23-.67.43-1.04.6-.13-.13-.1-.3-.1-.46,0-1.29,0-2.59,0-3.88,0-.39-.03-.41-.37-.21-.95.55-1.9,1.11-2.86,1.64-.31.17-.44.39-.44.75.02,1.31,0,2.61,0,3.92,0,.16.02.33-.08.47-.31.22-.64.4-.99.57-.14-.14-.1-.33-.1-.49,0-1.26.02-2.52,0-3.78,0-.13,0-.26-.01-.39-.09-.13-.17-.04-.25,0-.12.07-.24.14-.36.21-1.07.63-2.15,1.24-3.23,1.86-.14.08-.26.2-.44.18-.03-.03-.04-.05-.06-.09-.05-.34-.05-.69,0-1.03.06-.17.21-.25.35-.32,1.07-.6,2.13-1.23,3.19-1.85.02-.01.04-.03.06-.03.67-.22.8-.72.76-1.37-.05-.96-.01-1.93-.01-2.89,0-.36-.02-.37-.33-.19-.21.12-.42.23-.62.36-.97.53-1.91,1.1-2.87,1.64-.15.09-.31.27-.51.09-.08-.33-.04-.66-.03-.98,0-.03.02-.07.03-.1.36-.34.82-.52,1.24-.77.74-.45,1.51-.87,2.25-1.32.96-.59.83-.27.83-1.49,0-1.12,0-2.23,0-3.35,0-.17-.01-.35.03-.52.02-.04.04-.07.06-.1Z" fill="#25719f" stroke-width="0"/>
  <path d="M14.61,27.42c0,.39-.01.79-.02,1.18-.16.05-.27-.05-.39-.12-1.14-.65-2.28-1.31-3.42-1.97-.04-.02-.07-.04-.11-.07-.31-.17-.34-.16-.35.19,0,.26,0,.52,0,.78,0,1.06,0,2.11,0,3.17,0,.15.03.31-.09.43-.35-.16-.67-.35-.99-.57-.1-.14-.09-.31-.09-.47,0-1.27-.01-2.55,0-3.82,0-.4-.11-.66-.48-.86-.96-.53-1.91-1.09-2.86-1.64-.32-.19-.33-.18-.33.18,0,1.31,0,2.61,0,3.92,0,.16.04.33-.1.46-.37-.16-.71-.37-1.04-.6-.11-.14-.09-.31-.09-.47,0-1.27-.02-2.55,0-3.82,0-.43-.13-.67-.5-.88-1.12-.62-2.23-1.27-3.34-1.92-.14-.08-.28-.16-.39-.29-.04-.39-.03-.78,0-1.17.16-.1.27.03.38.1,1.17.67,2.34,1.35,3.5,2.02.33.19.34.18.34-.21,0-1.13,0-2.26,0-3.39,0-.32-.12-.5-.38-.65-1.15-.65-2.3-1.32-3.45-1.99-.15-.09-.31-.16-.4-.32-.04-.39-.04-.78,0-1.18.17-.06.29.06.42.14,1.18.68,2.36,1.36,3.53,2.04.26.15.27.15.27-.17,0-1.35,0-2.7,0-4.05,0-.16-.04-.33.1-.46.3.16.6.32.9.47.08.04.18.05.2.17.04.23.02.46.02.68,0,1.27,0,2.54,0,3.82,0,.27.08.45.32.58,1,.57,1.99,1.16,3,1.73.32.18.35.16.35-.22,0-1.32,0-2.63,0-3.95,0-.16-.04-.33.1-.46.37.13.66.42,1.04.53.02.03.04.06.04.1-.02,1.51,0,3.03,0,4.54,0,.25.09.4.31.52,1.21.7,2.44,1.39,3.65,2.11.13.08.28.14.33.3,0,.37.01.74.02,1.11-.01,0-.03.02-.04.03-.14.03-.25-.06-.36-.12-1.13-.64-2.26-1.31-3.39-1.95-.15-.08-.29-.19-.46-.23-.08.09-.05.19-.05.28,0,1.15.01,2.3-.01,3.46,0,.35.15.53.43.69,1.21.67,2.39,1.37,3.59,2.06.09.05.19.1.27.19,0,.01.02.03.03.04Z" fill="#fe8728" stroke-width="0"/>
  <path d="M24.83,10.95s-.04,0-.06,0c-.68-.48-1.43-.85-2.14-1.28-.66-.4-1.33-.77-1.99-1.16-.05-.03-.12-.05-.14-.16.75-.43,1.51-.86,2.26-1.31.7-.41,1.42-.78,2.09-1.24,1.32.76,2.65,1.51,3.97,2.28.11.06.21.16.26.28,0,.24-.2.33-.36.42-1.04.6-2.08,1.21-3.13,1.8-.24.13-.44.36-.75.36Z" fill="#df4e4b" stroke-width="0"/>
  <path d="M4.35,10.96v4.99c-1.48-.86-2.9-1.68-4.33-2.5,0-1.56,0-3.13,0-4.69,0-.14.01-.28.11-.4,1.3.82,2.65,1.55,3.97,2.33.09.05.19.1.24.21,0,.02,0,.03.01.05Z" fill="#f6ab16" stroke-width="0"/>
  <path d="M24.83,10.95c1.23-.72,2.46-1.43,3.7-2.15.2-.12.42-.23.55-.44.12.19.1.4.1.6,0,1.24,0,2.48,0,3.72,0,.54.02,1.09.03,1.63,0,.11.03.22-.05.31,0-.37,0-.74,0-1.19-1.46.84-2.87,1.65-4.33,2.49v-4.98Z" fill="#49b4cd" stroke-width="0"/>
  <path d="M10.22,31.02c0-1.53,0-3.06,0-4.59,0-.27.03-.32.29-.17,1.35.79,2.72,1.57,4.08,2.35,0,0,.02,0,.02,0,.1.11.09.24.09.37,0,1.36,0,2.73,0,4.09,0,.13,0,.26-.1.36-.12.04-.22-.02-.31-.07-1.37-.75-2.73-1.52-4.07-2.33Z" fill="#f6ab16" stroke-width="0"/>
  <path d="M24.85,27.63c0-1.56,0-3.12,0-4.69,0-.2.08-.31.25-.4,1.36-.78,2.72-1.56,4.08-2.35,0,1.49,0,2.98,0,4.46,0,.29-.09.54-.35.69-1.32.76-2.65,1.52-3.98,2.28Z" fill="#49b4cd" stroke-width="0"/>
  <path d="M.03,20.24c.61.27,1.17.65,1.76.98.78.44,1.55.91,2.34,1.35.19.1.22.22.22.42,0,1.54,0,3.09,0,4.63-1.31-.75-2.61-1.5-3.92-2.25-.26-.15-.4-.39-.4-.7,0-1.48,0-2.95.01-4.43Z" fill="#f6ab16" stroke-width="0"/>
  <path d="M14.59,33.42c0-1.61,0-3.22,0-4.82,1.21-.7,2.43-1.39,3.64-2.09.12.1.13.25.16.38.12.7.32,1.39.45,2.09-.08-.42-.03-.85-.04-1.28,0-.39,0-.78,0-1.17,0-.14,0-.28.09-.4.12.11.06.24.06.37,0,1.51,0,3.01,0,4.52-1.32.77-2.65,1.53-3.97,2.3-.12.07-.25.13-.4.11Z" fill="#34a3b6" stroke-width="0"/>
  <path d="M23.94,5.28c-.46.11-.83.41-1.23.64-1.03.58-2.05,1.18-3.06,1.78-.18.1-.32.07-.49-.02-.88-.51-1.76-1.02-2.64-1.53-.24-.14-.48-.29-.74-.41-.2-.1-.22-.18-.02-.3.91-.52,1.83-1.04,2.74-1.57.45-.26.9-.52,1.35-.78.05-.03.08-.07.09-.12,1.33.77,2.67,1.55,4,2.32Z" fill="#df4e4b" stroke-width="0"/>
  <path d="M9.17,3.01c.4.37.92.57,1.38.84.96.57,1.93,1.12,2.93,1.7-.33.28-.69.44-1.03.64-.86.51-1.73.99-2.59,1.5-.21.12-.37.06-.54-.05-1.04-.61-2.08-1.21-3.12-1.82-.09-.05-.19-.1-.29-.15-.07-.41.15-.71.39-1,.94-.59,1.91-1.13,2.88-1.67Z" fill="#df4e4b" stroke-width="0"/>
  <path d="M29.17,20.19c0-.27-.02-.54,0-.82.01-.26-.04-.34-.3-.19-.72.43-1.44.85-2.17,1.26-.55.32-1.1.62-1.64.94-.19.11-.22.05-.22-.13,0-1.33,0-2.66,0-3.98,0-.12.02-.2.13-.27,1.39-.79,2.77-1.59,4.15-2.38,0,0,.02,0,.03,0,0,.92,0,1.85.02,2.77,0,.81.02,1.63.03,2.44,0,.12.04.24-.04.35Z" fill="#49b4cd" stroke-width="0"/>
  <path d="M19.96,30.45c0-1.58,0-3.15-.01-4.73,0-.17.06-.25.2-.33,1.1-.63,2.2-1.27,3.3-1.9.35-.2.36-.19.36.23,0,1.5,0,3,0,4.5-1.11.65-2.22,1.3-3.33,1.95-.17.1-.34.18-.51.28Z" fill="#49b4cd" stroke-width="0"/>
  <path d="M.03,14.63c1.21.7,2.4,1.44,3.64,2.07.59.3.71.68.69,1.28-.04,1.06-.01,2.13-.01,3.19,0,.33-.03.35-.32.18-1.28-.74-2.57-1.49-3.85-2.24-.05-.03-.1-.04-.15-.05,0-1.48,0-2.96,0-4.44Z" fill="#f6ab16" stroke-width="0"/>
  <path d="M5.38,28.22v-4.92c.56.32,1.07.61,1.57.9.67.38,1.33.77,2,1.15.17.1.29.2.29.42-.01,1.56,0,3.11-.01,4.67-1.29-.72-2.58-1.46-3.85-2.23Z" fill="#f6ab16" stroke-width="0"/>
  <path d="M4.34,10.91c-1.3-.75-2.59-1.49-3.88-2.24-.13-.07-.26-.15-.33-.31.07-.19.24-.28.4-.37,1.25-.72,2.5-1.44,3.75-2.16.31.32.73.45,1.09.69.13.09.27.17.41.26.07.99.41,1.88.98,2.69-.67.39-1.34.78-2.01,1.17-.14.08-.29.15-.4.27Z" fill="#c34137" stroke-width="0"/>
  <path d="M6.3,4.68c-.14.33-.32.64-.39,1-.22-.13-.44-.26-.66-.39.35-.2.7-.4,1.05-.61Z" fill="#c24239" stroke-width="0"/>
  <path d="M23.81,11.5s0,.04-.01.06c-.13.2-.35.29-.55.4-.99.56-1.97,1.15-2.97,1.71-.1.06-.2.14-.33.11-.02,0-.04,0-.07,0-.65-.39-1.3-.77-1.95-1.16-.78-.45-1.55-.9-2.39-1.38.45-.26.85-.5,1.26-.74.79-.46,1.58-.91,2.36-1.37.18-.1.31-.11.5,0,1.38.8,2.76,1.59,4.14,2.38Z" fill="#df4e4b" stroke-width="0"/>
  <path d="M9.24,13.78c0,1.52,0,3.05,0,4.57,0,.41,0,.42-.34.22-1.1-.63-2.19-1.27-3.3-1.9-.17-.1-.21-.21-.21-.39,0-1.58,0-3.16,0-4.73.13-.07.23.01.33.07,1.09.63,2.18,1.27,3.28,1.89.1.05.18.12.24.22,0,.02,0,.03,0,.05Z" fill="#f6ab16" stroke-width="0"/>
  <path d="M14.51,6.17c.06.03.12.05.18.08,1.19.68,2.37,1.36,3.56,2.04.16.09.11.14-.02.22-1.19.69-2.39,1.37-3.58,2.07-.12.07-.2.03-.29-.02-1.12-.64-2.24-1.29-3.35-1.93-.36-.21-.36-.21-.01-.41,1.12-.65,2.23-1.29,3.35-1.94.06-.03.11-.07.17-.1Z" fill="#df4e4b" stroke-width="0"/>
  <path d="M10.28,14.36s0-.04,0-.06c.43-.37.96-.57,1.43-.87.2-.13.41-.24.61-.37.67.14,1.31.38,1.98.54,1.47.35,2.97.52,4.48.64.06.02.13.04.19.06,0,.02,0,.04,0,.05-.03.06-.07.11-.13.14-1.24.69-2.45,1.43-3.69,2.12-.17.1-.34.18-.55.19-.49-.05-.85-.36-1.26-.59-.96-.54-1.91-1.09-2.85-1.65-.08-.05-.18-.09-.2-.2Z" fill="#c34137" stroke-width="0"/>
  <path d="M7.41,10.25c.68-.39,1.36-.77,2.03-1.16.13-.07.22-.09.36-.01,1.19.69,2.38,1.38,3.58,2.07.03.01.04.04.1.09-.82.46-1.59.96-2.41,1.37-.27.11-.49-.08-.7-.18-.84-.42-1.65-.88-2.37-1.47-.19-.15-.35-.33-.52-.49-.06-.06-.14-.12-.06-.22Z" fill="#df4e4b" stroke-width="0"/>
  <path d="M7.41,10.25c.29.41.7.7,1.09.99.74.54,1.54.96,2.37,1.33.06.03.13.03.19.04-.54.32-1.09.65-1.63.97-.07.04-.16.06-.21.14-1.19-.68-2.37-1.36-3.56-2.04-.09-.05-.19-.09-.29-.14-.04-.04-.09-.08-.13-.12.23.02.38-.15.55-.25.54-.3,1.07-.62,1.6-.93Z" fill="#c34137" stroke-width="0"/>
  <path d="M18.77,14.24c-.18.13-.38.07-.57.05-1.9-.17-3.77-.47-5.59-1.06-.11-.03-.25-.03-.3-.17.64-.37,1.29-.72,1.92-1.1.23-.14.4-.11.62.02,1.3.76,2.61,1.51,3.92,2.26Z" fill="#df4e4b" stroke-width="0"/>
  <path d="M6.76,9.47c-.4-.28-.54-.75-.73-1.16-.19-.42-.25-.89-.31-1.35,0-.07,0-.13.07-.17.77.44,1.54.87,2.31,1.31.16.09.31.18.53.31-.65.37-1.26.72-1.86,1.07Z" fill="#df4e4b" stroke-width="0"/>
  <path d="M10.28,14.36c1.28.73,2.55,1.46,3.83,2.19.15.09.31.15.48.17.11.11.1.26.1.4,0,1.43,0,2.86,0,4.29,0,.14,0,.28-.09.4,0,.02-.01.04-.02.06-.93-.54-1.85-1.08-2.78-1.62-.46-.27-.92-.53-1.38-.79-.15-.08-.21-.2-.21-.37,0-1.5,0-3,0-4.49,0-.09-.01-.18.06-.24Z" fill="#f6ab16" stroke-width="0"/>
  <path d="M19.95,13.77c1.28-.74,2.56-1.48,3.85-2.22,0,1.58,0,3.15,0,4.73,0,.17-.05.28-.2.37-1.14.65-2.28,1.31-3.41,1.96-.06.04-.13.06-.24.1v-4.95Z" fill="#49b4cd" stroke-width="0"/>
  <path d="M14.6,21.81c0-1.7,0-3.39-.01-5.09.2-.02.37-.1.54-.2,1.23-.71,2.46-1.41,3.7-2.11.07.09.04.19.02.28-.47,1.69-.68,3.43-.86,5.17-1.12.67-2.24,1.33-3.39,1.95Z" fill="#34a3b6" stroke-width="0"/>
  <path d="M23.8,17.73c0,1.43,0,2.81,0,4.19,0,.17-.07.25-.21.33-1.1.63-2.2,1.27-3.3,1.9-.09.05-.19.16-.29.11-.11-.06-.05-.2-.05-.3,0-1.25,0-2.5,0-3.75,0-.18.03-.3.2-.4,1.17-.67,2.33-1.35,3.5-2.02.04-.02.08-.03.16-.05Z" fill="#49b4cd" stroke-width="0"/>
  <path d="M18.06,25.4c-.97.63-2,1.17-3,1.76-.15.09-.3.17-.45.26,0,0-.02,0-.02,0-.1-.13-.09-.28-.09-.44,0-1.19,0-2.38,0-3.57,0-.15-.01-.31.09-.43,0,0,.02,0,.02,0,1-.57,1.99-1.15,2.99-1.72.08-.05.18-.08.27-.12.12.11.11.26.1.4-.02,1.16.06,2.32.18,3.48.01.13.01.26-.08.37Z" fill="#34a3b6" stroke-width="0"/>
  <path d="M18.06,25.4c-.12-1.41-.24-2.83-.2-4.25.27-.22.6-.35.89-.54.2-.14.23-.06.23.14,0,.96,0,1.91,0,2.87,0,.23-.03.46,0,.68.09.5-.13.77-.57.93-.12.04-.21.16-.35.17Z" fill="#49b4cd" stroke-width="0"/>
  <path d="M18,19.86c-.18-.36-.02-.73.02-1.07.1-.93.21-1.86.43-2.78.13-.53.26-1.07.39-1.6.04-.02.08-.04.12-.05,0,1.59,0,3.17.01,4.76,0,.13-.02.23-.15.3-.28.14-.55.3-.82.45Z" fill="#49b4cd" stroke-width="0"/>
  <path d="M18.9,26.12v3.06c-.33-.87-.51-1.76-.66-2.67.21-.15.42-.28.66-.39Z" fill="#48b3cc" stroke-width="0"/>
  <path d="M14.58,22.99c0,1.48,0,2.96,0,4.44-.87-.5-1.75-.99-2.62-1.49-.52-.3-1.03-.6-1.55-.89-.14-.08-.2-.18-.2-.34,0-1.31,0-2.63,0-3.94,0-.25.06-.24.25-.13,1.31.77,2.62,1.52,3.94,2.28.06.03.12.04.18.07Z" fill="#f6ab16" stroke-width="0"/>
  <path d="M9.24,22.13c0,.65,0,1.31,0,1.96,0,.17,0,.28-.22.15-1.09-.64-2.2-1.27-3.3-1.9-.24-.14-.35-.29-.34-.59.02-1.22,0-2.44,0-3.66,0-.36.03-.38.33-.2,1.12.65,2.23,1.29,3.35,1.93.15.09.18.2.17.35,0,.65,0,1.31,0,1.96Z" fill="#f6ab16" stroke-width="0"/>
</svg>