<svg id="virt_sport" xmlns="http://www.w3.org/2000/svg" xmlns:xlink="http://www.w3.org/1999/xlink" width="38" height="36" viewBox="0 0 38 36">
  <defs>
    <clipPath id="clip-path">
      <rect id="Rectangle_1099" data-name="Rectangle 1099" width="33" height="36" fill="none"/>
    </clipPath>
    <clipPath id="clip-path-3">
      <rect id="Rectangle_1097" data-name="Rectangle 1097" width="32.441" height="20.713" fill="none"/>
    </clipPath>
  </defs>
  <g id="Group_7401" data-name="Group 7401" transform="translate(3)" clip-path="url(#clip-path)">
    <g id="Group_7400" data-name="Group 7400">
      <g id="Group_7399" data-name="Group 7399" clip-path="url(#clip-path)">
        <path id="Path_58020" data-name="Path 58020" d="M48.938,318.569c0,2.36-6.633,4.273-14.814,4.273s-14.814-1.913-14.814-4.273,6.633-4.273,14.814-4.273,14.814,1.913,14.814,4.273" transform="translate(-17.623 -286.841)" fill="#589936"/>
        <path id="Path_58021" data-name="Path 58021" d="M53.424,1.46a18.117,18.117,0,0,0-4.289,3.331,40.415,40.415,0,0,0-5.743,3.581,10.533,10.533,0,0,1-.682-.983A16.472,16.472,0,0,1,53.424,1.46" transform="translate(-38.981 -1.332)" fill="#eaebec"/>
        <path id="Path_58022" data-name="Path 58022" d="M21.651,70.313h0q-1.433,1.071-2.761,2.267a16.5,16.5,0,0,1,2.08-3.25,10.533,10.533,0,0,0,.682.983" transform="translate(-17.241 -63.274)" fill="#231f20"/>
        <path id="Path_58023" data-name="Path 58023" d="M126.1,4.244a22.857,22.857,0,0,0-6.407,1.264L116.3,3.458A18.117,18.117,0,0,1,120.589.128a16.635,16.635,0,0,1,5.422.217,9.746,9.746,0,0,1,.085,3.9" transform="translate(-106.147 0)" fill="#231f20"/>
        <path id="Path_58024" data-name="Path 58024" d="M237.347,13.287a22.089,22.089,0,0,0-4.765-.986,24.281,24.281,0,0,0-4.958-4.46,9.746,9.746,0,0,0-.085-3.9A16.493,16.493,0,0,1,237.3,10.1v0a13.933,13.933,0,0,1,.043,3.181" transform="translate(-207.675 -3.596)" fill="#9ea0a3"/>
        <path id="Path_58025" data-name="Path 58025" d="M9.144,151.9l-2.4,3.988a25.435,25.435,0,0,1-5.008-3.2,16.422,16.422,0,0,1-.952-4.217,18.935,18.935,0,0,1,2.941-5.534l3.737,2.543Z" transform="translate(-0.712 -130.454)" fill="#dfe0e1"/>
        <path id="Path_58026" data-name="Path 58026" d="M20.684,262.508,20,263.716a16.555,16.555,0,0,1-8.311-9.146,25.434,25.434,0,0,0,5.008,3.2Z" transform="translate(-10.669 -232.333)" fill="#231f20"/>
        <path id="Path_58027" data-name="Path 58027" d="M342.761,84.529a16.567,16.567,0,0,1-.416,3.7,11.082,11.082,0,0,0-1.761-3.84,21.574,21.574,0,0,0-1.151-6.68,13.934,13.934,0,0,0-.043-3.181,16.435,16.435,0,0,1,3.371,10" transform="translate(-309.761 -68.02)" fill="#7a7c7f"/>
        <path id="Path_58028" data-name="Path 58028" d="M293.9,191.25a16.424,16.424,0,0,1-1.887,4.717,12.8,12.8,0,0,1-4.763,2.46l-.938-2.179a18.159,18.159,0,0,0,2.551-6.2,11.871,11.871,0,0,0,3.276-2.642,11.083,11.083,0,0,1,1.761,3.84" transform="translate(-261.315 -171.039)" fill="#7a7c7f"/>
        <path id="Path_58029" data-name="Path 58029" d="M243.538,285.37a16.579,16.579,0,0,1-6.623,6.252h0a16.412,16.412,0,0,1-3.715.237,26.553,26.553,0,0,0,5.575-4.03,12.805,12.805,0,0,0,4.763-2.46" transform="translate(-212.841 -260.442)" fill="#7a7c7f"/>
        <path id="Path_58030" data-name="Path 58030" d="M195.834,356.95a16.415,16.415,0,0,1-7.573,1.839h-.071a18.856,18.856,0,0,0,3.929-1.6,16.412,16.412,0,0,0,3.715-.237" transform="translate(-171.761 -325.769)" fill="#7e8081"/>
        <path id="Path_58031" data-name="Path 58031" d="M117.917,346.682a18.855,18.855,0,0,1-3.929,1.6h0a16.412,16.412,0,0,1-7.1-1.635l.683-1.208a57.555,57.555,0,0,0,6.329.585,16.482,16.482,0,0,0,4.015.657" transform="translate(-97.558 -315.265)" fill="#7e8081"/>
        <path id="Path_58032" data-name="Path 58032" d="M153,53.05a41.534,41.534,0,0,1-1.213,5.725c-2.183.564-4.325,1.094-6.393,1.561-1.731-1.416-3.514-2.964-5.049-4.471a30.832,30.832,0,0,1,1.289-6.012,22.857,22.857,0,0,1,6.407-1.264A24.28,24.28,0,0,1,153,53.05" transform="translate(-128.097 -44.346)" fill="#c8cacb"/>
        <path id="Path_58033" data-name="Path 58033" d="M45,41.64a30.834,30.834,0,0,0-1.289,6.012l-5.506,3.509L34.47,48.618a33.662,33.662,0,0,1,1.4-5.446h0a40.415,40.415,0,0,1,5.743-3.581Z" transform="translate(-31.461 -36.132)" fill="#e2e3e4"/>
        <path id="Path_58034" data-name="Path 58034" d="M4.41,80.59a33.661,33.661,0,0,0-1.4,5.446A18.936,18.936,0,0,0,.068,91.57Q0,90.823,0,90.06a16.455,16.455,0,0,1,1.649-7.2q1.329-1.2,2.761-2.267" transform="translate(0 -73.55)"/>
        <path id="Path_58035" data-name="Path 58035" d="M87.835,136.351l-2.326,6.27-6.543-.813-1.686-6.419,5.506-3.509c1.535,1.507,3.317,3.055,5.049,4.471" transform="translate(-70.533 -120.36)"/>
        <path id="Path_58036" data-name="Path 58036" d="M81.858,250.607a26.021,26.021,0,0,1-2.483,4.236,57.559,57.559,0,0,1-6.329-.585l-3.985-4.74,2.4-3.988,6.543.813Z" transform="translate(-63.031 -224.082)" fill="#9ea0a3"/>
        <path id="Path_58037" data-name="Path 58037" d="M196.8,290.769a26.555,26.555,0,0,1-5.575,4.03,16.483,16.483,0,0,1-4.015-.657,26.025,26.025,0,0,0,2.483-4.236,21.33,21.33,0,0,0,6.169-1.316Z" transform="translate(-170.866 -263.381)"/>
        <path id="Path_58038" data-name="Path 58038" d="M184.111,169.773a18.16,18.16,0,0,1-2.551,6.2,21.329,21.329,0,0,1-6.169,1.316l-3.851-4.264,2.326-6.27c2.068-.467,4.21-1,6.393-1.561Z" transform="translate(-156.564 -150.76)" fill="#9ea0a3"/>
        <path id="Path_58039" data-name="Path 58039" d="M278.538,107.316a11.872,11.872,0,0,1-3.276,2.642l-3.852-4.583a41.535,41.535,0,0,0,1.213-5.725,22.089,22.089,0,0,1,4.765.986,21.576,21.576,0,0,1,1.151,6.68" transform="translate(-247.715 -90.945)"/>
        <g id="Group_7398" data-name="Group 7398" transform="translate(0.559 12.307)" opacity="0.2" style="mix-blend-mode: multiply;isolation: isolate">
          <g id="Group_7397" data-name="Group 7397">
            <g id="Group_7396" data-name="Group 7396" clip-path="url(#clip-path-3)">
              <path id="Path_58040" data-name="Path 58040" d="M22.339,145.009l15.982-4.125A16.6,16.6,0,0,1,22.339,161.6,16.556,16.556,0,0,1,6.4,149.289Z" transform="translate(-6.398 -140.884)" fill="#7d7e81"/>
            </g>
          </g>
        </g>
      </g>
    </g>
  </g>
</svg>
