<svg id="crash_game" xmlns="http://www.w3.org/2000/svg" xmlns:xlink="http://www.w3.org/1999/xlink" width="38" height="38" viewBox="0 0 38 38">
  <defs>
    <clipPath id="clip-path">
      <rect id="Rectangle_1080" data-name="Rectangle 1080" width="38" height="38" fill="none"/>
    </clipPath>
    <clipPath id="clip-path-2">
      <rect id="Rectangle_1079" data-name="Rectangle 1079" width="11.642" height="19.939" fill="none"/>
    </clipPath>
  </defs>
  <g id="Group_7350" data-name="Group 7350" clip-path="url(#clip-path)">
    <path id="Path_57948" data-name="Path 57948" d="M49.056,55.921H25.065a3.319,3.319,0,0,1-3.345-3.292V29.014a3.319,3.319,0,0,1,3.345-3.292H49.056A3.319,3.319,0,0,1,52.4,29.014V52.629a3.319,3.319,0,0,1-3.345,3.292" transform="translate(-18.433 -21.89)" fill="#7016c8"/>
    <path id="Path_57956" data-name="Path 57956" d="M19201.637,15430.809a3.316,3.316,0,0,1-3.34-3.294v-17.346a68.109,68.109,0,0,0,20.207,11.861,63.061,63.061,0,0,0,10.473,2.859v2.625a3.321,3.321,0,0,1-3.346,3.294Z" transform="translate(-19195.008 -15396.778)" fill="#531194"/>
    <path id="Path_57949" data-name="Path 57949" d="M31.06,130.1V108.222A123.548,123.548,0,0,1,6.2,130.1Z" transform="translate(-5.263 -92.1)" fill="#f07922"/>
    <path id="Path_57950" data-name="Path 57950" d="M62.985,153.514V135.735s-5.507,7.2-18.031,16.928c-.361.281-.741.565-1.134.851Z" transform="translate(-37.188 -115.514)" fill="#d1591f"/>
    <path id="Path_57951" data-name="Path 57951" d="M1.828,114.675q1.135-.715,2.253-1.456A125.929,125.929,0,0,0,25.739,94.154c.678-.764,1.336-1.512,1.981-2.292a1.072,1.072,0,0,0-.206-1.557,1.11,1.11,0,0,0-1.523.221c-.6.773-1.228,1.544-1.847,2.289A124.168,124.168,0,0,1,3.436,112.321Q1.742,113.53,0,114.675Z" transform="translate(0 -76.675)" fill="#fd0"/>
    <path id="Path_57952" data-name="Path 57952" d="M149.911,15.427a.769.769,0,0,1-.212.66l-3.955,4.037a.327.327,0,0,1-.424.036l-.414-.3a.316.316,0,0,1-.127-.318l.273-3.393a1.283,1.283,0,0,0-.535-1.145,1.329,1.329,0,0,0-1.271-.151l-3.2,1.293a.328.328,0,0,1-.347-.022l-.414-.3a.316.316,0,0,1-.094-.408l2.7-4.94a.789.789,0,0,1,.573-.4l1.441-.222a.953.953,0,0,0,.789-.729,11.681,11.681,0,0,1,2.021-4.4A12,12,0,0,1,154.587.013a1.191,1.191,0,0,1,1.357.974,11.633,11.633,0,0,1-2.156,8.82,11.891,11.891,0,0,1-3.638,3.239.94.94,0,0,0-.464.962Zm2.552-11.145a1.465,1.465,0,0,0-2.025.312,1.413,1.413,0,0,0,.317,1.994,1.465,1.465,0,0,0,2.025-.312,1.412,1.412,0,0,0-.317-1.994" transform="translate(-118.094 0)" fill="#b3c3e5"/>
    <g id="Group_7349" data-name="Group 7349" transform="translate(26.358 0.282)" opacity="0.1" style="mix-blend-mode: multiply;isolation: isolate">
      <g id="Group_7348" data-name="Group 7348">
        <g id="Group_7347" data-name="Group 7347" clip-path="url(#clip-path-2)">
          <path id="Path_57953" data-name="Path 57953" d="M179.613,17.038l-.226-1.419a.94.94,0,0,1,.465-.962,11.891,11.891,0,0,0,3.638-3.239,11.633,11.633,0,0,0,2.156-8.82,1.157,1.157,0,0,0-.411-.705c-.742,1.164-1.76,2.608-2.9,4.153a1.407,1.407,0,0,1,.144,1.841,1.46,1.46,0,0,1-1.837.421c-2.406,3.169-4.979,6.392-6.491,8.268.022.014.045.026.066.042a1.283,1.283,0,0,1,.535,1.145l-.273,3.393a.316.316,0,0,0,.127.318l.414.3a.327.327,0,0,0,.424-.036L179.4,17.7a.769.769,0,0,0,.212-.66" transform="translate(-174.154 -1.893)"/>
        </g>
      </g>
    </g>
    <path id="Path_57954" data-name="Path 57954" d="M213.547,26.453a1.714,1.714,0,1,1-1.714-1.687,1.7,1.7,0,0,1,1.714,1.687" transform="translate(-178.319 -21.077)" fill="#383838"/>
  </g>
</svg>
