<?xml version="1.0" encoding="utf-8"?>
<!-- Generator: Adobe Illustrator 24.3.0, SVG Export Plug-In . SVG Version: 6.00 Build 0)  -->
<svg version="1.1" id="Layer_1" xmlns="http://www.w3.org/2000/svg" xmlns:xlink="http://www.w3.org/1999/xlink" x="0px" y="0px"
	 viewBox="0 0 1615.75 1131.34" style="enable-background:new 0 0 1615.75 1131.34;" xml:space="preserve">
<style type="text/css">
	.st0{fill:#332466;}
	.st1{fill:#FFFFFF;}
	.st2{fill:#0D1925;}
	.st3{fill:#F79320;}
	.st4{fill:#FEFFFF;}
	.st5{fill:#342467;}
	.st6{clip-path:url(#SVGID_2_);fill:#342467;}
	.st7{clip-path:url(#SVGID_2_);}
	.st8{clip-path:url(#SVGID_4_);fill:#342467;}
	.st9{clip-path:url(#SVGID_4_);fill:#F5921F;}
</style>
<g>
	<path class="st0" d="M1161.81,529.15c16.56-36.93,20.22-76.34,21.97-116.04c0.45-10.31,2.13-20.71,0.67-31.65
		c-30.73,20.85-47.8,28.44-72.39,31.98c-15.02,2.16-30.12,3.87-45.15,6.05c-10.63,1.53-20.91,4.65-32.34,8.04l-0.02,0.01
		c0.82-1.39,1.11-3,0.94-4.65c-0.18-1.72-1.03-3.19-2.36-4.27c-3.62-2.91-10.62-3.04-15.14-3.78c-26.95-4.44-54.17-5.48-81.43-5.82
		c-17.21-0.21-34.53-0.31-51.72,0.78c-42.55,2.6-85.34,7.3-126.72,17.91c-4.01,1.03-13.2,2.64-15.79,5.54l-0.43,0.54l-0.37,0.58
		l-0.31,0.62l-0.25,0.64c-0.07,0.22-0.13,0.44-0.17,0.67c-0.05,0.23-0.09,0.45-0.11,0.68c-0.02,0.23-0.03,0.46-0.04,0.69
		c0,0.23,0.01,0.46,0.03,0.69c0.02,0.23,0.05,0.45,0.1,0.67c0.05,0.22,0.1,0.44,0.17,0.66l0.23,0.6c-0.44-0.27-0.89-0.57-1.41-1
		c-19.05-15.57-41.66-22.77-65.66-25.95c-30.6-4.04-59.56-11.87-82.76-33.89c-0.53-0.51-1.54-0.51-3.11-0.97
		c-10.88,80.56-0.95,153.86,66.97,209.54c-11.4,7.68-22.58,15.43-32.35,24.94c-9.66,9.41-18.74,19.32-26.97,32.31h29.64
		c-10.29,16.8-20.45,31.94-25.82,49.47c-0.85,2.74-2.5,2.5-4.99,2.33c-24.16-1.69-38.32,8.99-41.52,33.17
		c-5.39,40.79,6.53,76.49,34.68,106.49c8.64,9.2,19.32,15.93,32.21,16.96c5.67,0.44,7.83,2.86,10.05,7.37
		c14.76,30.12,34.45,56.52,60.22,78.19c9.35,7.87,18.89,15.5,30.32,22.11c-1.1-9.34-4.79-17.11-3.89-26.91
		c19.62,15.82,42.33,24.28,63.68,35.25c9.4,4.83,18.29,10.4,26.47,17.13c3.45,2.84,4.5,5.13,1.44,9.07
		c-3.72,4.78-6.74,10.08-11.42,17.26c69.04-8.2,128.59-33.05,183.15-73.01c-1.65,7.76-3.18,14.87-5.05,23.6
		c44.95-24.74,78.84-58.2,103.55-103.81c2.34,9.59,2.24,16.77,2.47,24.05c38.45-49.99,54.99-106.2,48.32-170.11
		c13.33,6.23,23.76,14.22,35.84,22.16c-4.34-36.34-17.92-67.43-36.63-97.46c12.46-0.76,23.26,3.92,36.04,7.33
		c-14.24-21.85-32.32-37.89-51.64-53.9C1135.49,575.29,1150.73,553.84,1161.81,529.15"/>
	<path class="st0" d="M660.35,264.85c0.36,4.76,2.56,9.58,6.23,12.69c0.22,0.19,0.46,0.37,0.69,0.55c0.24,0.18,0.47,0.35,0.72,0.51
		c0.24,0.16,0.49,0.32,0.74,0.48c0.25,0.15,0.51,0.3,0.77,0.44c0.26,0.14,0.52,0.27,0.79,0.41c0.27,0.13,0.54,0.25,0.81,0.36
		c0.28,0.11,0.55,0.22,0.83,0.32c0.28,0.1,0.56,0.19,0.84,0.28c0.28,0.09,0.57,0.17,0.85,0.24c0.29,0.07,0.57,0.14,0.87,0.2
		c0.29,0.06,0.58,0.11,0.87,0.15c0.29,0.04,0.59,0.08,0.88,0.11c0.29,0.03,0.59,0.05,0.88,0.07c0.29,0.01,0.59,0.02,0.89,0.02
		c0.29,0,0.59-0.01,0.88-0.02c0.29-0.01,0.59-0.04,0.88-0.07c0.79-0.07,1.58-0.14,2.36-0.3c3.78,5.6,7.45,11.26,11.02,17
		c3.56,5.74,7.02,11.54,10.37,17.41c3.34,5.87,6.57,11.8,9.69,17.79c3.12,5.99,6.13,12.04,9.02,18.14
		c10.96,22.92,20.3,46.3,26.23,71.05c4.29-0.87,8.51-2.17,12.76-3.21c9.27-2.27,18.7-4.42,28.08-6.17
		c33.03-6.15,66.46-9.05,99.96-10.96c15.73-0.79,31.47-1.09,47.21-0.91c15.75,0.18,31.48,0.84,47.18,1.99
		c8.77,0.78,17.53,1.77,26.26,2.95c5.44,0.76,11.09,1.96,16.56,2.25c0.83-5.16,1.75-10.31,2.77-15.44
		c1.02-5.13,2.13-10.24,3.33-15.33c1.2-5.09,2.5-10.16,3.89-15.2c1.39-5.04,2.87-10.06,4.44-15.05c1.57-4.99,3.23-9.95,4.98-14.87
		c1.75-4.93,3.59-9.82,5.51-14.69c1.93-4.86,3.95-9.69,6.05-14.47c2.11-4.79,4.3-9.54,6.57-14.25c4.38-9.16,9.5-17.87,14.09-26.89
		c6.45-0.21,11.54-1.05,16.19-5.95c0.21-0.22,0.41-0.44,0.6-0.66c0.2-0.23,0.39-0.46,0.57-0.69c0.18-0.24,0.36-0.48,0.54-0.72
		c0.17-0.25,0.34-0.5,0.5-0.75c0.16-0.25,0.31-0.51,0.46-0.77c0.15-0.26,0.29-0.52,0.42-0.79c0.13-0.27,0.26-0.53,0.38-0.81
		c0.12-0.28,0.23-0.55,0.34-0.83c0.11-0.28,0.21-0.56,0.3-0.85c0.09-0.28,0.18-0.57,0.26-0.85c0.08-0.29,0.15-0.58,0.22-0.87
		c0.07-0.29,0.12-0.58,0.18-0.88c0.05-0.29,0.09-0.59,0.13-0.88c0.04-0.3,0.07-0.6,0.09-0.9c0.02-0.3,0.04-0.6,0.05-0.89
		c0-0.3,0-0.6,0-0.9c-0.14-4.93-2.33-9.92-5.96-13.27c-3.61-3.33-8.56-5.33-13.49-5.09c-0.3,0.02-0.6,0.04-0.9,0.07
		c-0.3,0.03-0.6,0.07-0.89,0.11c-0.3,0.04-0.6,0.1-0.89,0.15c-0.3,0.06-0.59,0.13-0.88,0.2c-0.29,0.08-0.58,0.16-0.87,0.24
		c-0.29,0.09-0.58,0.18-0.86,0.29c-0.28,0.1-0.56,0.21-0.84,0.32c-0.28,0.11-0.55,0.24-0.82,0.37c-0.27,0.13-0.54,0.26-0.81,0.41
		c-0.26,0.14-0.52,0.29-0.78,0.44c-0.26,0.16-0.51,0.31-0.76,0.49c-0.25,0.17-0.49,0.34-0.73,0.52c-0.24,0.18-0.48,0.37-0.71,0.56
		c-0.23,0.19-0.46,0.39-0.68,0.59l-0.65,0.62c-0.21,0.21-0.42,0.43-0.62,0.66c-0.21,0.23-0.42,0.47-0.62,0.72
		c-0.2,0.25-0.4,0.5-0.58,0.75c-0.19,0.25-0.37,0.52-0.55,0.78c-0.17,0.26-0.34,0.53-0.5,0.81c-0.16,0.27-0.31,0.55-0.46,0.83
		c-0.15,0.28-0.28,0.56-0.42,0.85c-0.13,0.29-0.26,0.58-0.37,0.87c-0.12,0.3-0.22,0.59-0.33,0.89c-0.1,0.3-0.2,0.6-0.28,0.9
		c-0.09,0.31-0.16,0.61-0.23,0.92c-0.07,0.31-0.14,0.62-0.2,0.93c-0.05,0.31-0.1,0.62-0.14,0.94c-0.04,0.31-0.07,0.62-0.09,0.94
		c-0.03,0.31-0.04,0.63-0.05,0.94c-0.01,0.32,0,0.64,0,0.95c0.01,0.31,0.02,0.63,0.05,0.94c0.41,5.96,2.56,9.65,6.99,13.5
		c-6,5.28-11.22,11.41-17.22,16.74c-17.52,15.59-46.13,34.9-70.56,33.38c-17.02-1.06-31.25-11.02-42.17-23.53
		c-10.76-12.33-18.88-27.04-26.29-41.54c-5.39-10.51-10.4-21.19-15.02-32.06c-4.62-10.86-8.84-21.88-12.67-33.06
		c-2.12-6.05-5.13-12.41-6.13-18.75c5.7-2.26,10.2-5.57,12.71-11.37c0.13-0.31,0.26-0.62,0.37-0.93c0.12-0.32,0.23-0.64,0.33-0.96
		c0.1-0.32,0.19-0.64,0.28-0.97c0.09-0.32,0.16-0.65,0.23-0.98c0.07-0.33,0.13-0.66,0.18-0.99c0.06-0.33,0.1-0.67,0.14-1
		c0.03-0.33,0.06-0.67,0.08-1c0.02-0.34,0.03-0.68,0.03-1.01c0-0.34,0-0.67-0.02-1.01c-0.02-0.34-0.04-0.67-0.07-1.01
		c-0.03-0.33-0.07-0.66-0.12-1c-0.05-0.33-0.1-0.66-0.17-0.99c-0.07-0.33-0.13-0.66-0.22-0.99c-0.08-0.33-0.17-0.65-0.26-0.97
		c-0.1-0.32-0.2-0.64-0.31-0.96c-0.11-0.32-0.23-0.63-0.36-0.94c-1.93-4.76-5.57-8.72-10.33-10.73c-3.22-1.36-7.21-2.05-10.7-1.64
		c-5.49,0.84-10.2,3.19-13.53,7.76c-3.24,4.46-4.45,10.52-3.54,15.92c0.86,5.08,3.97,10.09,8.19,13.05
		c2.29,1.61,4.92,2.55,7.64,3.12c-1.88,8.27-3.67,16.59-5.74,24.82c-1.48,5.86-3.27,11.64-4.92,17.44
		c-5.25,18.42-11.11,36.46-18.84,54c-2.77,6.28-5.6,12.6-8.93,18.6c-2.57,4.62-5.46,9-8.43,13.38
		c-6.11,8.98-12.98,17.52-22.33,23.35c-12.59,7.86-26.84,9.61-41.19,6.22c-21.17-5-41.43-17.31-57.92-31.22
		c-3.61-3.04-7.6-6.31-10.56-9.99c3.74-3.89,5.76-8.41,5.62-13.86c-0.01-0.31-0.03-0.62-0.05-0.92c-0.03-0.31-0.06-0.61-0.1-0.92
		c-0.04-0.3-0.09-0.61-0.14-0.91c-0.06-0.3-0.12-0.6-0.19-0.9c-0.07-0.3-0.15-0.6-0.23-0.89c-0.09-0.3-0.18-0.59-0.28-0.88
		c-0.1-0.29-0.21-0.58-0.32-0.86c-0.12-0.29-0.24-0.57-0.36-0.85c-0.13-0.28-0.26-0.55-0.41-0.82c-0.14-0.27-0.29-0.54-0.45-0.81
		c-0.16-0.27-0.32-0.52-0.48-0.78c-0.17-0.26-0.35-0.51-0.53-0.76c-0.18-0.25-0.37-0.49-0.56-0.73c-0.19-0.23-0.39-0.47-0.6-0.7
		c-0.2-0.23-0.42-0.45-0.63-0.67c-0.22-0.21-0.44-0.43-0.67-0.64c-0.22-0.2-0.44-0.4-0.67-0.59c-0.22-0.19-0.46-0.38-0.7-0.56
		c-0.24-0.18-0.48-0.35-0.72-0.51c-0.25-0.17-0.5-0.33-0.75-0.48c-0.25-0.15-0.51-0.3-0.77-0.44c-0.26-0.14-0.52-0.28-0.79-0.41
		c-0.27-0.13-0.54-0.25-0.81-0.36c-0.27-0.12-0.55-0.22-0.82-0.32c-0.28-0.1-0.56-0.2-0.85-0.29c-0.28-0.09-0.57-0.16-0.86-0.24
		c-0.29-0.08-0.57-0.14-0.87-0.2c-0.29-0.06-0.58-0.11-0.87-0.15c-0.3-0.05-0.59-0.08-0.89-0.11c-0.29-0.03-0.59-0.05-0.88-0.07
		c-0.3-0.01-0.59-0.02-0.89-0.02c-0.29,0-0.59,0.01-0.89,0.02c-4.79,0.26-9.58,2.45-12.76,6.07c-0.21,0.23-0.4,0.46-0.59,0.71
		c-0.19,0.23-0.37,0.48-0.55,0.73c-0.18,0.24-0.35,0.5-0.52,0.76c-0.16,0.26-0.33,0.52-0.48,0.78c-0.15,0.27-0.3,0.53-0.44,0.81
		c-0.14,0.27-0.27,0.55-0.39,0.83c-0.13,0.28-0.24,0.56-0.35,0.85c-0.11,0.29-0.22,0.57-0.31,0.86c-0.1,0.29-0.19,0.58-0.27,0.88
		c-0.08,0.3-0.15,0.59-0.22,0.89c-0.06,0.3-0.13,0.6-0.18,0.9c-0.05,0.3-0.1,0.6-0.13,0.91c-0.04,0.31-0.06,0.61-0.09,0.92
		c-0.02,0.31-0.03,0.61-0.04,0.92c0,0.31,0,0.61,0.01,0.92C660.31,264.24,660.33,264.55,660.35,264.85 M875.23,304.88
		c1.89-4.84,3.59-9.71,5.6-14.5c1.55,1.8,3.54,6.59,4.69,8.86l11.23,21.94c2.74,5.37,6.13,10.8,8.33,16.38
		c-1.57,4.79-3.8,9.52-5.66,14.22l-13.61,33.64c-0.25-0.25-23.71-44.68-24.14-46.14L875.23,304.88z"/>
	<path class="st0" d="M972.75,296.45c11.26,3.02,21.47,1.48,32.04-3.09c-10.46-27.03-17.93-49.02-15.21-78.5
		c5.79,0.4,10.7-0.13,15.25-4.05c3.77-3.24,5.84-7.89,6.21-12.82c0.02-0.31,0.04-0.62,0.05-0.93c0.01-0.31,0.01-0.62,0-0.93
		c0-0.31-0.02-0.62-0.04-0.92c-0.02-0.31-0.05-0.62-0.09-0.92c-0.04-0.31-0.08-0.61-0.13-0.92c-0.05-0.3-0.11-0.61-0.18-0.91
		c-0.07-0.3-0.14-0.6-0.22-0.9c-0.08-0.3-0.17-0.6-0.27-0.89c-0.1-0.29-0.2-0.58-0.31-0.87c-0.11-0.29-0.23-0.57-0.36-0.85
		c-0.13-0.28-0.26-0.56-0.4-0.83c-0.14-0.28-0.29-0.55-0.44-0.82c-0.15-0.27-0.31-0.53-0.48-0.79c-0.17-0.26-0.34-0.51-0.52-0.76
		c-0.18-0.25-0.37-0.5-0.56-0.74c-0.19-0.24-0.39-0.48-0.6-0.71c-0.2-0.23-0.41-0.45-0.61-0.66l-0.65-0.63
		c-0.22-0.21-0.45-0.41-0.68-0.6c-0.23-0.2-0.47-0.38-0.71-0.57c-0.24-0.18-0.49-0.36-0.73-0.53c-0.25-0.17-0.51-0.33-0.76-0.49
		c-0.26-0.16-0.52-0.31-0.79-0.45c-0.27-0.14-0.53-0.28-0.81-0.41c-0.27-0.13-0.55-0.25-0.82-0.37c-0.28-0.12-0.56-0.22-0.85-0.33
		c-0.28-0.1-0.57-0.2-0.86-0.29c-0.29-0.09-0.58-0.17-0.87-0.24c-0.3-0.07-0.59-0.14-0.88-0.2c-0.3-0.06-0.59-0.11-0.89-0.15
		c-0.3-0.04-0.6-0.08-0.9-0.11c-0.3-0.03-0.6-0.05-0.9-0.06c-1.12-0.06-2.37-0.04-3.47,0.16c-5.04,1.07-9.57,3.36-12.42,7.8
		c-2.71,4.22-3.45,9.71-2.36,14.57c0.06,0.27,0.13,0.55,0.2,0.82c0.07,0.27,0.15,0.54,0.24,0.81c0.09,0.27,0.18,0.53,0.27,0.8
		c0.1,0.27,0.2,0.53,0.31,0.79c0.11,0.26,0.22,0.52,0.34,0.77c0.12,0.26,0.25,0.51,0.38,0.76c0.13,0.25,0.27,0.5,0.41,0.74
		c0.14,0.24,0.29,0.48,0.45,0.72c0.15,0.24,0.31,0.47,0.48,0.7c0.17,0.23,0.33,0.45,0.51,0.67c0.17,0.22,0.35,0.44,0.54,0.65
		l0.57,0.63l0.6,0.6l0.62,0.57l0.65,0.55c0.22,0.18,0.44,0.35,0.67,0.52c-1.87,3.51-3.6,7.11-5.54,10.6
		c-4.89,8.81-10.35,17.57-16.01,25.91c-5.63,8.29-11.82,16.18-17.73,24.27C948.36,281.5,963.2,293.37,972.75,296.45"/>
	<path class="st0" d="M741.79,209.93c0.03,0.31,0.07,0.62,0.11,0.92c0.72,4.59,3.22,9,7.01,11.72c4.76,3.42,9.44,3.69,15.08,3.25
		c4.32,21.51,3.53,48.08-3.06,69.07c-1.15,3.68-2.73,7.05-4.23,10.58c12.95,4.24,24.74,4.13,37.06-2.1l0.47-0.24
		c8.3-4.59,14.89-9.95,20.28-17.86c1.51-2.22,3.06-4.65,4.09-7.12c-2.32-2-4.6-4.05-6.83-6.14c-2.24-2.09-4.44-4.23-6.59-6.41
		c-2.15-2.18-4.26-4.4-6.33-6.66c-2.06-2.26-4.09-4.56-6.06-6.9c-1.98-2.34-3.9-4.72-5.79-7.14c-1.88-2.42-3.72-4.87-5.5-7.36
		c-1.79-2.49-3.52-5.01-5.21-7.57c-1.69-2.56-3.32-5.15-4.91-7.77c3.74-3.15,6.11-7.46,6.5-12.37c0.02-0.31,0.04-0.63,0.05-0.94
		c0.01-0.31,0.01-0.63,0-0.94c-0.01-0.31-0.02-0.62-0.04-0.94c-0.02-0.31-0.05-0.62-0.09-0.93c-0.04-0.31-0.08-0.62-0.14-0.93
		c-0.05-0.31-0.11-0.62-0.18-0.92c-0.07-0.31-0.15-0.61-0.23-0.91c-0.08-0.3-0.17-0.6-0.27-0.9c-0.1-0.3-0.2-0.59-0.31-0.88
		c-0.11-0.29-0.23-0.58-0.36-0.87c-0.13-0.29-0.26-0.57-0.4-0.85c-0.14-0.28-0.28-0.56-0.44-0.83c-0.15-0.27-0.31-0.54-0.48-0.81
		c-0.16-0.26-0.34-0.53-0.52-0.78c-0.18-0.25-0.37-0.51-0.56-0.75c-0.19-0.25-0.39-0.49-0.59-0.73c-3.13-3.63-7.38-5.74-12.16-6.07
		c-1.28-0.09-2.73-0.12-4,0.06c-4.79,0.72-8.9,2.91-11.8,6.86c-0.18,0.25-0.36,0.51-0.52,0.77c-0.17,0.26-0.34,0.52-0.49,0.79
		c-0.16,0.27-0.31,0.54-0.45,0.81c-0.15,0.27-0.28,0.55-0.41,0.83c-0.13,0.28-0.25,0.56-0.37,0.85c-0.12,0.29-0.23,0.58-0.33,0.87
		c-0.1,0.29-0.2,0.59-0.29,0.88c-0.09,0.3-0.17,0.6-0.25,0.9c-0.07,0.3-0.14,0.6-0.2,0.91c-0.06,0.3-0.11,0.61-0.15,0.92
		c-0.04,0.31-0.08,0.61-0.11,0.92c-0.03,0.31-0.05,0.62-0.07,0.93c-0.01,0.31-0.02,0.62-0.02,0.93c0,0.31,0.01,0.62,0.02,0.93
		C741.73,209.32,741.76,209.63,741.79,209.93"/>
	<path class="st1" d="M933.69,450.87c0.1-0.28,0.19-0.56,0.28-0.84c-0.14,0.24-0.27,0.48-0.41,0.72L933.69,450.87"/>
	<path class="st1" d="M972.74,493.62c0.26-0.25,0.51-0.5,0.77-0.75l-0.19,0.46c-0.19,0.12-0.45,0.13-0.68,0.18L972.74,493.62"/>
	<path class="st1" d="M797.63,911.98c-0.22-0.34-0.45-0.68-0.67-1.02c0.33,0.23,0.67,0.46,1.01,0.69L797.63,911.98"/>
	<path class="st2" d="M795.43,635.32c-0.58-0.47-1.37-0.93-0.32-1.65c0.1-0.07,0.68,0.59,1.04,0.91
		C795.92,634.83,795.68,635.08,795.43,635.32"/>
	<path class="st2" d="M937.44,904.52c-0.21,0.51-0.43,1.02-0.65,1.53c-1.03-0.94,0.26-1.11,0.54-1.62L937.44,904.52"/>
	<path class="st3" d="M937.44,904.52c30.31-28.55,56.91-59.52,66.61-101.57c0.75-3.24,1.51-6.49,2.58-11.06
		c8.13,12.11,11.47,24.89,16.41,38.84c11.94-23.7,17.78-47.15,19.69-71.61c1.28-16.43,0.29-32.8-3.43-48.93
		c-0.57-2.5-3.34-5.59,0.27-7.36c3.09-1.51,5.66,1.03,7.79,3.25c9.62,10.05,18.46,20.74,27.36,33.86
		c1.11-42.66-12.32-79.12-34.11-114.08c11.25-0.95,18.69,7.14,29.52,8.88c-5.39-7.72-9.92-14.21-14.96-21.43
		c12.36-3.87,24.62-6.9,36.5-9.86c8.93-2.22,17.13,7.5,26.11,13.95c-9.02,4.09-17.69,0.81-24.93,5.49
		c19.01,22.37,37.8,44.73,46.37,75.25c-12.12-4.04-22.17-9.52-33.87-10.27c16.51,50.74,8.97,98.77-12.93,148.07
		c-4.85-11.44-7.7-21.24-15.15-30.07c-10.13,48.56-38.13,84.54-74.36,117.09c-1.28-12.2,3.52-22.95,0.56-35.52
		c-39.06,52.05-94.41,76.19-154.76,97.61c9.07-16.17,14.63-30.71,12.8-47.07c-0.54-4.84-0.61-9.7-3.32-14.05
		c-3.31,1.16-2.56,4.13-3.16,6.32c-4.28,15.46-11.37,29.41-22.04,41.46c-3.59,4.05-6.75,6.11-12.19,1.36
		c-16.31-14.22-36.09-22.68-55.53-31.59c-11.87-5.44-23.1-11.86-33.52-19.79c-9.4-7.15-16.16-16.08-20.27-27.1
		c2.1-2.49,3.96-0.35,5.79,0.15c12.21,3.33,24.12,7.47,36.97,8.58c11.2,0.97,19.91,7.99,27.81,15.7
		c5.49,5.36,11.06,10.63,17.03,16.35c3-8.18-1.35-15.72-1.41-23.42l0.33-0.33c16.07,4.53,23.06,18.19,31.8,33.22
		c5.33-24.19,26.06-29.98,41.77-41.26c8.47-6.09,16.03-13.26,23.67-21.24c2.81,6.46-0.77,12.05-0.24,18.94
		c20.44-11.58,35.96-26.81,48.49-47.69c4,18.99-0.75,34.93-6.12,50.8c-0.27,0.51-1.57,0.68-0.54,1.62
		C937.01,905.54,937.22,905.03,937.44,904.52"/>
	<path class="st3" d="M691.06,596c-1.49-1.45-3.59-0.42-5.22,0.28c-11.55,4.96-23.03,10.09-33.34,17.4
		c-5.11,3.62-10.39,7.14-16.1,14.04h31.91c-22.87,22.43-40.9,44.97-49.82,73.46h0c-0.6,0.66-1.22,1.38-0.11,2.02
		c0.25,0.15,0.9-0.39,1.37-0.61c6.12,0.11,11.15-3.32,16.72-5.02c9.16-2.8,13.52-8.2,15.3-18.14c3.33-18.57,12.41-34.81,25.26-48.83
		c3.22-3.51,9.69-6.47,7.79-11.46c-1.39-3.63-7.85-0.19-11.94-1.2c-0.48-0.12-0.92-0.43-2.43-1.18c8.48-3.25,15.97-6.89,19.75-14.97
		C691.04,599.96,693.11,598.01,691.06,596"/>
	<path class="st3" d="M798.21,450.03c-0.09-6.05,0.41-11.84,1.26-17.47c-12.54,2.22-22.4,4.37-29.19,5.98
		c-14.76,21.18-25.04,44.93-30.52,71.43c-3.22,15.57-3.15,15.86,11.74,26.12c4.72-30.53,10.87-60.25,30.54-86.64
		c1.52,17.9,3.56,34.21,11.17,51.37c17.32-32.2,38.56-58.87,70.75-76.51c-15.01,1.24-28.68,2.82-40.87,4.53
		C814.46,435.18,806.16,442.22,798.21,450.03"/>
	<path class="st3" d="M923.96,421.79c-11.65,2.81-23.2,6.53-34.69,11.43c1.59-3.75,3.31-7.31,5.09-10.8
		c-7.94,0.33-15.6,0.78-22.98,1.31c-10.54,17.57-16.92,35.36-20.49,56.28c15.98-11.6,30.46-21.7,46.9-28.19
		c16.49-6.52,33.37-11.69,53.27-12.21c-9.41,11.85-18.85,21.38-23.1,35.78c12.7-2.01,24.55-5.99,36.39-4.06
		c17.3,2.84,22.53-11.02,33.08-19.99c-9.27-1.89-16.7,0.71-25.23,0.38c6.75-10.71,15.19-18.82,24.73-26.49
		C971.19,422.74,946.73,421.74,923.96,421.79"/>
	<path class="st1" d="M681.55,852.72c33.56-2.44,64.64,5.05,95.28,15.49c8.74,2.98,17.7,5.5,27.2,3.67
		c20.85-4.01,31.87-19,40.2-36.51c5.32-11.19,8.51-23.17,9.75-35.59c0.21-2.07,0.47-4.24,2.69-5.9c8.16,16.09,3.65,31.46-2.28,46.57
		c-4.2,10.71-10.79,20.09-17.79,29.23c-15.8,20.62-36.56,20.88-59.32,15.79c-29.91-6.68-59.19-15.23-87.56-26.79
		C686.93,857.52,684,856.35,681.55,852.72"/>
	<path class="st4" d="M840.77,763.96c0.74,25.5-3.01,49.74-15.65,71.73c-11.33,19.7-25.51,23.82-46.22,14.27
		c-3.37-1.55-4.28-2.81-1.54-5.8c6.05-6.6,11.65-13.64,17.96-19.98c15.78-15.86,29.66-33.1,40.48-52.74
		C837.23,768.83,839.1,766.45,840.77,763.96"/>
	<path class="st1" d="M694.62,916.47c-11.17-8.82-19.93-20.71-28.86-32.35c-5.25-6.84-9.73-14.3-14.2-21.7
		c-1.72-2.86-5.17-6.95-1.72-9.52c3.14-2.34,5.98,1.99,8.18,4.37c5.92,6.4,12.22,12.78,19.99,16.39
		C697.1,882.54,706.65,894.73,694.62,916.47"/>
	<path class="st1" d="M703.72,653.4c-12.87,12.4-25.15,21-38.18,28.57c-4.01,2.33-6.28,0.74-4.94-3.63
		c3.78-12.39,9.3-24.08,16.46-34.86c3.19-4.81,7.31-9.04,11.31-13.25c2.36-2.48,6.16-5.1,8.16-0.63c1.49,3.33,7.17,7.66,0.75,11.8
		c-6.39,4.12-12.91,8.06-20.73,12.92C685.78,656.5,693.46,654.84,703.72,653.4"/>
	<path class="st1" d="M711.08,590.93c5.36,2.48,5.15,6.26,4.36,10.46c-2.07,11.12-3.59,22.2,6.05,31.07c2.6,2.39,0.5,3.62-1.18,5.06
		c-2.62,2.25-5.21,3.52-7.93,0.22c-3.63-4.43-5.74-9.44-6.1-15.21C705.63,611.89,707.09,601.61,711.08,590.93"/>
	<path class="st4" d="M722.04,605.26c3.48,4.83,7.01,9.62,10.39,14.52c0.98,1.42,2.92,3.18,1.47,4.85c-1.44,1.65-3.99,1.53-6.1,0.87
		c-4.33-1.36-6.22-4.89-6.89-8.98c-0.57-3.44-0.51-6.98-0.74-10.47C720.79,605.78,721.42,605.52,722.04,605.26"/>
	<path class="st4" d="M907.47,579.62c-2.64-4.83-4.91-5.68-9.41-2.99c-4.38,2.61-13.28,4.55-5.62,13.17
		c-4.54,0.84-8.47,2.65-7.4,8.13c1.29,6.61,6.39,6.04,11.39,5.07c0.25,9.15-4.6,15.06-12.42,18.78c-6.61,3.15-12.48,1.38-18.01-3.12
		c-2.02-1.64-3.88-7.73-7.3-2.52c-2.4,3.66-8.11,7.44-2.67,13.6c15.4,17.41,42.96,14.5,53.76-6.04
		C917.75,608.59,915.35,594.04,907.47,579.62"/>
	<path class="st1" d="M605.34,413.93c-5.44,2.42-17.2,115.2,81.43,167.62c0,0,8.08-5.59,2.49-10.77
		c-5.59-5.18-15.33-13.26-16.78-13.88c-1.45-0.62-7.25-0.83-7.25-0.83c0-2.28,0.42-4.14,0.42-4.14l-0.62-2.07
		c0,0-22.38-14.92-27.55-35.85c0,0,15.95,25.48,29.63,30.66c0,0,4.97,0.21,5.18-3.31c0.21-3.52-35.02-25.07-41.23-54.28
		c0,0,20.3,42.06,49.11,40.2c0,0-44.96-31.08-52.01-61.33c0,0,15.54,25.48,39.78,31.8c0,0-36.05-23.93-48.07-54.8
		c0,0,3.87,6.05,50.35,20.1c46.62,14.09,50.97,37.09,50.97,37.09l13.26-36.47c0,0-10.98-23.21-59.88-28.18
		C625.64,430.51,612.01,410.96,605.34,413.93"/>
	<polygon class="st1" points="933.56,450.76 933.47,450.89 933.69,450.87 	"/>
	<path class="st1" d="M1160.26,417.11c-22.42,12.23-47.28,14.55-71.89,16.5c-50.56,4.01-88.2,26.23-109.98,73.11
		c-8.02,17.27-8.41,17.1,4.39,31.68c0.21,0.23,0.45,0.44,0.62,0.69c2.97,4.47,8.96,8.28,5.79,14.5c-3.19,6.26-9.97,4.85-15.79,5.24
		c-3.64,0.25-7.42-2.85-10.79-0.08c-10.47,8.61-21.64,16.17-34.38,22.3c31.79,19.44,42.32,28.52,45.33,39.86
		c-12.61-4.61-23.5-12.35-37.35-13.48c21.07,24.95,25.41,33.99,21.4,47.51c-2.7-3.5-4.53-6.34-6.84-8.72
		c-2.35-2.43-5.17-4.42-7.79-6.58c-10.81-8.92-13.9-8.67-22,2.46c-13.94,19.14-34.56,20.08-52.81,11.38
		c-5.98-2.85-11.55-4.42-17.71-3.53c-10.09,1.45-20.06,3.57-29.74,6.93c-6.4,2.22-12.95,4-21.43,6.59
		c6.88-7.85,15.39-9.44,21.61-16.15c-9.98-2.43-20.53-1.75-25.47-12c-0.58-0.47-1.37-0.93-0.31-1.65c0.09-0.06,0.68,0.59,1.04,0.91
		c9.5,2.81,17.76,1.33,25.88-5.04c10.97-8.61,18.25-19.94,26.09-31.01c24.28-34.31,56.77-53.52,99.6-53.37
		c7.22,0.02,14.43,0,22.45,0c-15.54-17.1-34.09-26.89-54.44-33.96c-4.87-1.69-8.89-1.55-13.19,1.03
		c-12.75,7.66-25.36,15.58-38.41,22.69c-15.66,8.53-26.95,20.4-32.78,37.43c-2.39,6.95-7.42,12.81-8.69,20.36
		c-0.26,1.54-1.55,4.62-4.25,3.67c-2.46-0.87-2.44-3.37-1.37-5.54c4.3-8.75,4.26-18.64,7.27-27.65c3.14-9.4,2.44-20.67,12.22-27.21
		c21.02-14.06,42.48-27.41,64.35-40.13c4.06-2.36,7.8-2.48,12.34-0.99c16.52,5.44,32.74,11.42,46.8,21.99
		c2.76,2.07,5.14,2.99,5.93-1.28c1.38-7.57,6.07-14.1,6.66-21.88c-5.24,2.76-7.58,8.57-12.65,12.6c-1.26-7.45,3.42-12.22,5.47-17.79
		c1.01-2.74,4.75-5.39,2.34-8.25c-1.99-2.36-5.95-1.33-8.89-0.84c-11.86,1.95-23.94,2.59-35.52,6.23c-5.06,1.59-6.64,0.15-5.04-5.43
		c3.11-10.85,8.75-20.25,15.14-29.33c-23.56,1.59-43.32,12.68-62.53,25.1c-9.31,6.02-18.56,12.12-28.42,18.56
		c-0.81-14.43,2.62-27.34,6.48-40.03c3.08-10.36,9.9-20.02,9.9-20.02c-4.8,3.2-10.65,8.16-14.5,11.56c-0.5,0.43-0.99,0.87-1.47,1.31
		c-1.58,1.42-2.64,2.4-2.64,2.4l0.07,0.04c-12.6,11.64-23.46,24.72-32.18,39.55c-5.1,8.67-10.1,17.4-15.65,26.98
		c-8.37-13.2-12.5-27.17-17.19-41.14c-18.54,40.24-19.18,82.06-13.62,124.68c-7.08-12.34-10-25.9-13.53-39.25
		c-0.79-2.99-0.98-6.14-3.45-8.42c-8.42-7.77-16.71-15.69-25.29-23.28c-3.59-3.18-7.76-4.8-12.82-2.43
		c-11.45,5.37-19.34,14.63-29.54,24.24c13.17,0.96,22.52,5.49,31.15,11.75c11.4,8.27,17.95,20.22,24.69,32.12
		c8.38,14.79,14.57,31.51,34.01,38.4c-26.55,4.98-29.16,6.7-49.31,28.94c-19.82,21.88-43.11,39.02-70.45,50.44
		c-4.41,1.84-8.9,3.49-15.24,5.96c16.01,8.82,31.81,7.82,47.18,8.86c-0.5,2.43-1.93,2.14-3,2.32c-25.76,4.36-50.59,1.72-74.21-9.95
		c-17.52-8.66-27.16-4.24-29.91,15.34c-4.05,28.85,3.82,55.11,20.18,78.98c10.71,15.63,24.71,22.92,44.4,20.25
		c30.53-4.14,61.25-2.86,91.81,0.36c11.43,1.21,19.87-2.76,26.49-11.67c9.16-12.33,15.99-25.91,19.57-40.77
		c3.55-14.72,3.56-29.53-4.4-43.26c-6.57-11.34-12.51-13.96-25.31-11.4c-9.48,1.89-18.19,6.01-27.18,9.34
		c-9.78,3.62-19.68,6.9-29.53,10.33c15.44-12.25,30.77-24.09,48.12-32.81c17.41-8.75,33.21-5.31,45.27,10.19
		c8.52,10.96,13.93,23.32,14.71,37.43c0.16,2.93-0.94,7.01,2.49,8.24c2.86,1.03,4.5-2.65,6.56-4.38
		c21.07-17.67,43.46-33.04,71.1-38.38c9.87-1.91,19.99-2.6,31.07-3.99c-10.71-15.49-24.29-26.54-41.05-35.52
		c24.64-1.5,61.45,29.3,71.76,54.34c-0.87,0.22-1.72,0.59-2.56,0.61c-1.55,0.03-3.13,0.01-4.64-0.28
		c-22.19-4.16-42.91,1.56-63.41,9.13c-5.19,1.92-6.67,4.05-3.6,9.37c5.76,9.97,9.51,20.87,11.73,32.14
		c1.51,7.67,2.05,15.53,3.13,24.19c26.15-11.74,50.36-24.47,70.13-44.36c11.5-11.57,11.57-11.5,17.79,2.89
		c0.19,0.45,0.99,0.64,1.86,1.16c0.63-0.98,1.66-1.89,1.82-2.93c3.28-21.3,6.43-42.61,9.7-63.91c0.68-4.41-2.28-11.55,1.97-12.65
		c4.8-1.24,7.68,5.97,11.61,9.25c0.68,0.56,0.97,1.58,1.56,2.28c8.49,10.16,13.17,22.52,19.55,34.05
		c6.02-30.9,3.32-59.95-17.43-85.9c4.42,0.38,7.83,1.51,11.26,2.57c5.27,1.63,7.56,0.95,5.9-5.6c-1.67-6.58-1.84-13.62,1.12-20.04
		c3.3-7.17,0.73-12.25-4.43-17.27c-6.93-6.74-13.41-13.96-22.12-23.11c9.09,1.2,15.27,2.02,21.18,2.8
		c4.05-11.8-2.14-18.3-11.72-22.91c-6.04-2.9-6.48-7.95-5.06-13.37c2.28-8.66,4.39-17.45,7.67-25.74
		c13.6-34.29,36.72-58.51,74.08-65.94c25.33-5.04,51.29-7.59,74.44-24.05c-11.21,36.13-40.19,47.52-70.4,57.46
		c20.27-1.05,37.8-9.67,57.14-20.45c-12.64,31.62-36.22,47.31-64.33,59.62c11.88,1.46,21.73-3.06,34.66-2.66
		c-29.12,22.85-59.48,32.95-93.89,29.38c8.26,8.81,15.87,16.84,23.35,24.98c2.13,2.32,4.62,2.97,7.53,2.61
		c28.31-3.52,54.47-12.21,74.65-33.44c37.78-39.75,44.15-90.26,47.69-141.64C1166.34,415.41,1163.52,415.33,1160.26,417.11
		 M605.84,774.63c-0.56,11.09,5.18,20.07,9.5,31.04c-7.56-2.36-12.35-6.77-16.38-11.85c-10.48-13.19-13.96-28.57-13.08-45.11
		c0.11-2.12,0.24-4.64,2.52-5.51c1.96-0.74,3.37,1.14,4.67,2.38c12.89,12.33,27.07,23.15,42.31,35.69
		C624.13,780.84,615.8,775.77,605.84,774.63 M740.62,754.76c4.86-1.03,7.45,0.75,9.17,5.32c8.1,21.51-7.79,44.99-33.18,45.33
		c7.99-6.33,13.24-12.81,15.4-21.3c2.48-9.71,1.26-11.16-8.43-8.68c-10.73,2.76-21.4,5.71-32.1,8.58c-0.28-0.85-0.56-1.71-0.84-2.56
		C706.24,770.65,721.27,758.88,740.62,754.76"/>
	<polygon class="st1" points="972.64,493.51 972.61,493.71 972.74,493.62 	"/>
</g>
<path class="st5" d="M7205.52,2496.43c0.61-0.65,1.4-0.98,2.38-0.98c1,0,1.8,0.33,2.41,0.98c0.6,0.65,0.9,1.51,0.9,2.59
	c0,1.08-0.3,1.94-0.9,2.59c-0.6,0.65-1.4,0.97-2.41,0.97c-1,0-1.8-0.33-2.41-0.98c-0.59-0.65-0.89-1.52-0.89-2.63
	C7204.6,2497.93,7204.91,2497.09,7205.52,2496.43z M7203.67,2503.16c1.12,1.14,2.52,1.71,4.19,1.71c1.68,0,3.1-0.56,4.25-1.68
	c1.15-1.12,1.72-2.52,1.72-4.18c0-1.65-0.57-3.04-1.71-4.17c-1.16-1.13-2.56-1.7-4.22-1.7c-1.65,0-3.05,0.56-4.2,1.69
	c-1.15,1.12-1.72,2.49-1.72,4.09C7201.98,2500.62,7202.54,2502.04,7203.67,2503.16z M7196.01,2501.51
	c-0.57,0.71-1.35,1.07-2.33,1.07s-1.75-0.35-2.3-1.06c-0.51-0.65-0.76-1.47-0.76-2.49c0-1.03,0.25-1.86,0.76-2.51
	c0.56-0.72,1.33-1.08,2.3-1.08c0.91,0,1.66,0.33,2.25,0.99c0.58,0.65,0.87,1.51,0.87,2.59
	C7196.8,2500.03,7196.53,2500.86,7196.01,2501.51z M7199.26,2493.45h-2.57v1.25c-0.93-1.04-2.09-1.56-3.49-1.56
	c-1.6,0-2.88,0.6-3.85,1.8c-0.91,1.13-1.36,2.51-1.36,4.13c0,1.66,0.49,3.05,1.46,4.16c0.96,1.09,2.2,1.64,3.72,1.64
	c1.33,0,2.5-0.52,3.52-1.56v1.55c0,2.3-0.94,3.46-2.82,3.46c-1.02,0-1.79-0.35-2.33-1.04c-0.23-0.3-0.39-0.72-0.49-1.27h-2.58
	c0.15,1.45,0.72,2.59,1.71,3.41c0.96,0.8,2.18,1.2,3.66,1.2c1.76,0,3.14-0.58,4.14-1.73c0.53-0.6,0.89-1.32,1.07-2.16
	c0.06-0.3,0.11-0.66,0.14-1.05c0.03-0.4,0.05-0.86,0.05-1.39V2493.45z M7177.49,2496.43c0.61-0.65,1.4-0.98,2.38-0.98
	c1,0,1.8,0.33,2.41,0.98c0.6,0.65,0.9,1.51,0.9,2.59c0,1.08-0.3,1.94-0.9,2.59c-0.6,0.65-1.4,0.97-2.41,0.97
	c-1,0-1.8-0.33-2.41-0.98c-0.59-0.65-0.89-1.52-0.89-2.63C7176.58,2497.93,7176.89,2497.09,7177.49,2496.43z M7175.65,2503.16
	c1.12,1.14,2.52,1.71,4.18,1.71c1.68,0,3.1-0.56,4.25-1.68c1.15-1.12,1.72-2.52,1.72-4.18c0-1.65-0.57-3.04-1.71-4.17
	c-1.16-1.13-2.56-1.7-4.22-1.7c-1.65,0-3.05,0.56-4.2,1.69c-1.15,1.12-1.72,2.49-1.72,4.09
	C7173.96,2500.62,7174.52,2502.04,7175.65,2503.16z M7164.63,2486.95v17.61h7.83v-2.5h-5.18v-15.11H7164.63z M7144.14,2504.55h2.58
	v-5.36c0-1.38,0.17-2.35,0.52-2.91c0.36-0.56,0.96-0.84,1.81-0.84c0.78,0,1.32,0.21,1.62,0.64c0.3,0.42,0.46,1.17,0.46,2.27v6.2
	h2.58v-6.81c0-1.57-0.31-2.69-0.94-3.39c-0.72-0.81-1.73-1.22-3.02-1.22c-1.12,0-2.14,0.44-3.03,1.33v-1.03h-2.58V2504.55z
	 M7138.42,2490.02c0.33,0.33,0.72,0.49,1.19,0.49s0.86-0.16,1.17-0.49c0.33-0.33,0.49-0.72,0.49-1.19c0-0.46-0.16-0.86-0.49-1.17
	c-0.33-0.33-0.72-0.49-1.19-0.49c-0.46,0-0.85,0.16-1.17,0.49s-0.49,0.71-0.49,1.16C7137.93,2489.3,7138.1,2489.7,7138.42,2490.02z
	 M7138.32,2493.45v11.11h2.57v-11.11H7138.32z M7127.29,2496.46c0.59-0.67,1.33-1,2.21-1c0.94,0,1.7,0.33,2.28,0.99
	c0.58,0.68,0.88,1.54,0.88,2.58c0,1.04-0.29,1.9-0.88,2.58c-0.59,0.65-1.35,0.98-2.3,0.98c-0.89,0-1.63-0.34-2.21-1.01
	c-0.57-0.67-0.86-1.54-0.86-2.6C7126.41,2497.97,7126.7,2497.13,7127.29,2496.46z M7132.5,2494.73c-1.03-1.06-2.19-1.6-3.48-1.6
	c-1.5,0-2.74,0.56-3.74,1.66c-1,1.11-1.49,2.5-1.49,4.16c0,1.7,0.5,3.11,1.49,4.24c1,1.11,2.27,1.66,3.81,1.66
	c1.22,0,2.35-0.49,3.41-1.48v1.16h2.58v-11.11h-2.58V2494.73z M7104.49,2504.55l1.89-10.64l5.06,11.45l5.21-11.44l1.7,10.63h2.73
	l-3.33-18.93l-6.26,13.68l-6.04-13.68l-3.71,18.93H7104.49z M7084.06,2497.5c0.08-0.32,0.21-0.6,0.36-0.86
	c0.16-0.25,0.35-0.47,0.58-0.64c0.22-0.18,0.47-0.32,0.75-0.41c0.27-0.09,0.57-0.14,0.88-0.14c1.37,0,2.23,0.68,2.59,2.05H7084.06z
	 M7091.86,2499c0-1.83-0.47-3.26-1.41-4.3c-0.95-1.04-2.24-1.56-3.88-1.56c-1.62,0-2.92,0.54-3.9,1.61
	c-0.97,1.09-1.46,2.51-1.46,4.26c0,1.77,0.5,3.19,1.51,4.26c1,1.06,2.33,1.6,3.99,1.6c0.58,0,1.11-0.06,1.61-0.18
	s0.95-0.31,1.38-0.58c0.43-0.26,0.82-0.6,1.2-1c0.37-0.41,0.73-0.9,1.06-1.47l-2.17-1.21c-0.52,0.82-0.99,1.38-1.4,1.69
	c-0.42,0.3-0.95,0.46-1.58,0.46c-0.82,0-1.49-0.27-2.02-0.8c-0.52-0.54-0.82-1.27-0.89-2.18h7.96L7091.86,2499z M7075.54,2493.14
	c-0.97,0-1.79,0.32-2.46,0.95c-0.66,0.63-0.99,1.43-0.99,2.39c0,0.73,0.19,1.33,0.58,1.79c0.3,0.36,0.83,0.73,1.57,1.09
	c0.27,0.13,0.53,0.25,0.79,0.38s0.52,0.25,0.78,0.38c0.67,0.4,1,0.82,1,1.28c0,0.79-0.43,1.19-1.3,1.19c-0.43,0-0.81-0.14-1.12-0.43
	c-0.16-0.14-0.39-0.48-0.7-1.01l-2.19,1.01c0.78,1.82,2.09,2.73,3.96,2.73c1.09,0,2.01-0.34,2.78-1.03
	c0.79-0.72,1.19-1.62,1.19-2.69c0-0.84-0.24-1.5-0.71-2s-1.39-1.03-2.75-1.62c-0.99-0.42-1.48-0.84-1.48-1.27
	c0-0.24,0.08-0.44,0.25-0.6c0.17-0.16,0.37-0.23,0.6-0.23c0.49,0,0.91,0.34,1.24,1.03l2.12-1.13
	C7078.02,2493.87,7076.96,2493.14,7075.54,2493.14z M7063.52,2504.55h2.57v-5.76c0-2.11,0.7-3.17,2.1-3.17
	c0.46,0,0.94,0.18,1.42,0.52l1.17-2.35c-0.74-0.44-1.44-0.66-2.12-0.66c-0.51,0-0.95,0.1-1.32,0.29c-0.37,0.18-0.78,0.52-1.25,1.01
	v-0.99h-2.57V2504.55z M7052.93,2497.5c0.08-0.32,0.21-0.6,0.37-0.86c0.16-0.25,0.35-0.47,0.58-0.64c0.22-0.18,0.47-0.32,0.75-0.41
	c0.27-0.09,0.57-0.14,0.88-0.14c1.37,0,2.23,0.68,2.59,2.05H7052.93z M7060.73,2499c0-1.83-0.47-3.26-1.41-4.3
	c-0.95-1.04-2.24-1.56-3.88-1.56c-1.62,0-2.92,0.54-3.9,1.61c-0.97,1.09-1.46,2.51-1.46,4.26c0,1.77,0.5,3.19,1.51,4.26
	c1,1.06,2.33,1.6,3.99,1.6c0.58,0,1.11-0.06,1.61-0.18c0.49-0.12,0.95-0.31,1.38-0.58c0.43-0.26,0.83-0.6,1.2-1
	c0.37-0.41,0.73-0.9,1.06-1.47l-2.17-1.21c-0.52,0.82-0.99,1.38-1.4,1.69c-0.42,0.3-0.95,0.46-1.58,0.46c-0.82,0-1.49-0.27-2.02-0.8
	c-0.52-0.54-0.82-1.27-0.89-2.18h7.96L7060.73,2499z M7037.78,2493.45l5.72,11.87l5.77-11.87h-2.88l-2.86,6.24l-2.87-6.24H7037.78z
	 M7029.08,2497.5c0.08-0.32,0.21-0.6,0.37-0.86c0.16-0.25,0.35-0.47,0.58-0.64c0.22-0.18,0.47-0.32,0.75-0.41
	c0.27-0.09,0.57-0.14,0.88-0.14c1.37,0,2.23,0.68,2.59,2.05H7029.08z M7036.88,2499c0-1.83-0.47-3.26-1.41-4.3
	c-0.95-1.04-2.24-1.56-3.88-1.56c-1.62,0-2.92,0.54-3.9,1.61c-0.97,1.09-1.46,2.51-1.46,4.26c0,1.77,0.5,3.19,1.5,4.26
	c1,1.06,2.33,1.6,3.99,1.6c0.58,0,1.11-0.06,1.61-0.18s0.95-0.31,1.38-0.58c0.43-0.26,0.83-0.6,1.2-1s0.73-0.9,1.06-1.47l-2.17-1.21
	c-0.53,0.82-0.99,1.38-1.4,1.69c-0.42,0.3-0.95,0.46-1.58,0.46c-0.82,0-1.49-0.27-2.02-0.8c-0.53-0.54-0.82-1.27-0.89-2.18h7.96
	L7036.88,2499z M7016.22,2489.44h0.95c2.45,0,3.67,0.9,3.67,2.7c0,1.92-1.26,2.88-3.77,2.88h-0.84V2489.44z M7022.35,2495.33
	c0.71-0.9,1.07-1.97,1.07-3.22c0-1.6-0.57-2.88-1.71-3.85c-1.03-0.87-2.71-1.31-5.04-1.31h-3.11v17.61h2.66v-7.21h0.48l5.03,7.21
	h3.25l-5.45-7.5C7020.69,2496.8,7021.64,2496.22,7022.35,2495.33z"/>
<g>
	<g>
		<defs>
			<rect id="SVGID_1_" x="-4998.75" y="3595.59" width="1080" height="650"/>
		</defs>
		<clipPath id="SVGID_2_">
			<use xlink:href="#SVGID_1_"  style="overflow:visible;"/>
		</clipPath>
		<rect x="-4998.75" y="4168.83" class="st6" width="1080" height="36.77"/>
		<g class="st7">
			<text transform="matrix(1 0 0 1 -4018.0525 4195.2109)" class="st1" style="font-family:'Futura-Medium'; font-size:23.3529px;">Color</text>
		</g>
		<g class="st7">
			<text transform="matrix(1 0 0 1 -4263.748 3845.5479)"><tspan x="0" y="0" class="st0" style="font-family:'Futura-Medium'; font-size:23.3529px;">H</tspan><tspan x="15.23" y="0" class="st0" style="font-family:'Futura-Medium'; font-size:23.3529px;">e</tspan><tspan x="26.48" y="0" class="st0" style="font-family:'Futura-Medium'; font-size:23.3529px;">x</tspan></text>
		</g>
		<g class="st7">
			<text transform="matrix(1 0 0 1 -4263.748 3873.5713)"><tspan x="0" y="0" style="font-family:'Futura-CondensedMedium'; font-size:23.3529px;">#F5</tspan><tspan x="34.96" y="0" style="font-family:'Futura-CondensedMedium'; font-size:23.3529px;">9</tspan><tspan x="46" y="0" style="font-family:'Futura-CondensedMedium'; font-size:23.3529px; letter-spacing:-1;">1</tspan><tspan x="56" y="0" style="font-family:'Futura-CondensedMedium'; font-size:23.3529px;">1E</tspan></text>
		</g>
		<g class="st7">
			<text transform="matrix(1 0 0 1 -4263.748 3913.5752)"><tspan x="0" y="0" class="st0" style="font-family:'Futura-Medium'; font-size:23.3529px;">R</tspan><tspan x="12.17" y="0" class="st0" style="font-family:'Futura-Medium'; font-size:23.3529px;">GB</tspan></text>
		</g>
		<g class="st7">
			<text transform="matrix(1 0 0 1 -4263.748 3941.5986)"><tspan x="0" y="0" style="font-family:'Futura-CondensedMedium'; font-size:23.3529px;">2</tspan><tspan x="11.12" y="0" style="font-family:'Futura-CondensedMedium'; font-size:23.3529px;">45</tspan><tspan x="35.08" y="0" style="font-family:'Futura-CondensedMedium'; font-size:23.3529px; letter-spacing:-1;">.</tspan><tspan x="38.58" y="0" style="font-family:'Futura-CondensedMedium'; font-size:23.3529px; letter-spacing:-1;">1</tspan><tspan x="49.27" y="0" style="font-family:'Futura-CondensedMedium'; font-size:23.3529px;">45.30</tspan></text>
		</g>
		<g class="st7">
			<text transform="matrix(1 0 0 1 -4263.748 3981.6016)" class="st0" style="font-family:'Futura-Medium'; font-size:23.3529px;">CMYK</text>
		</g>
		<g class="st7">
			<text transform="matrix(1 0 0 1 -4263.748 4009.625)"><tspan x="0" y="0" style="font-family:'Futura-CondensedMedium'; font-size:23.3529px;">0.50</tspan><tspan x="40.77" y="0" style="font-family:'Futura-CondensedMedium'; font-size:23.3529px; letter-spacing:-1;">.</tspan><tspan x="44.28" y="0" style="font-family:'Futura-CondensedMedium'; font-size:23.3529px; letter-spacing:-1;">1</tspan><tspan x="55.09" y="0" style="font-family:'Futura-CondensedMedium'; font-size:23.3529px;">00.0</tspan></text>
		</g>
		<g class="st7">
			<text transform="matrix(1 0 0 1 -4696.3838 3845.5479)"><tspan x="0" y="0" class="st0" style="font-family:'Futura-Medium'; font-size:23.3529px;">H</tspan><tspan x="15.23" y="0" class="st0" style="font-family:'Futura-Medium'; font-size:23.3529px;">e</tspan><tspan x="26.48" y="0" class="st0" style="font-family:'Futura-Medium'; font-size:23.3529px;">x</tspan></text>
		</g>
		<g class="st7">
			<text transform="matrix(1 0 0 1 -4719.9238 3873.5713)" style="font-family:'Futura-CondensedMedium'; font-size:23.3529px;">#320F69</text>
		</g>
		<g class="st7">
			<text transform="matrix(1 0 0 1 -4700.8911 3913.5752)"><tspan x="0" y="0" class="st0" style="font-family:'Futura-Medium'; font-size:23.3529px;">R</tspan><tspan x="12.17" y="0" class="st0" style="font-family:'Futura-Medium'; font-size:23.3529px;">GB</tspan></text>
		</g>
		<g class="st7">
			<text transform="matrix(1 0 0 1 -4725.8086 3941.5986)"><tspan x="0" y="0" style="font-family:'Futura-CondensedMedium'; font-size:23.3529px;">50</tspan><tspan x="23.96" y="0" style="font-family:'Futura-CondensedMedium'; font-size:23.3529px; letter-spacing:-1;">.</tspan><tspan x="27.46" y="0" style="font-family:'Futura-CondensedMedium'; font-size:23.3529px; letter-spacing:-1;">1</tspan><tspan x="38.02" y="0" style="font-family:'Futura-CondensedMedium'; font-size:23.3529px;">5</tspan><tspan x="50" y="0" style="font-family:'Futura-CondensedMedium'; font-size:23.3529px; letter-spacing:-1;">.</tspan><tspan x="53.5" y="0" style="font-family:'Futura-CondensedMedium'; font-size:23.3529px; letter-spacing:-1;">1</tspan><tspan x="64.31" y="0" style="font-family:'Futura-CondensedMedium'; font-size:23.3529px;">05</tspan></text>
		</g>
		<g class="st7">
			<text transform="matrix(1 0 0 1 -4722.0488 3981.6016)" class="st0" style="font-family:'Futura-Medium'; font-size:23.3529px;">CMYK</text>
		</g>
		<g class="st7">
			<text transform="matrix(1 0 0 1 -4752.7578 4009.625)"><tspan x="0" y="0" style="font-family:'Futura-CondensedMedium'; font-size:23.3529px;">95</tspan><tspan x="23.96" y="0" style="font-family:'Futura-CondensedMedium'; font-size:23.3529px; letter-spacing:-1;">.</tspan><tspan x="27.46" y="0" style="font-family:'Futura-CondensedMedium'; font-size:23.3529px; letter-spacing:-1;">1</tspan><tspan x="38.27" y="0" style="font-family:'Futura-CondensedMedium'; font-size:23.3529px;">00.20.20</tspan></text>
		</g>
		<g class="st7">
			<defs>
				<rect id="SVGID_3_" x="-4998.75" y="3595.59" width="1080" height="650"/>
			</defs>
			<clipPath id="SVGID_4_">
				<use xlink:href="#SVGID_3_"  style="overflow:visible;"/>
			</clipPath>
			<path class="st8" d="M-4430.12,3920.59c0,56.23-45.58,101.81-101.81,101.81s-101.81-45.58-101.81-101.81
				s45.58-101.81,101.81-101.81S-4430.12,3864.36-4430.12,3920.59"/>
			<path class="st9" d="M-4283.75,3920.59c0,56.23-45.58,101.81-101.81,101.81s-101.81-45.58-101.81-101.81
				s45.58-101.81,101.81-101.81S-4283.75,3864.36-4283.75,3920.59"/>
		</g>
	</g>
</g>
</svg>
