<svg id="big_win" xmlns="http://www.w3.org/2000/svg" width="38" height="38" viewBox="0 0 38 38">
  <g id="Group_7382" data-name="Group 7382" transform="translate(2)">
    <path id="Path_57976" data-name="Path 57976" d="M243.628,85.439a11.948,11.948,0,0,0,8.023-1.963c5.927-4.128,5.178-12.834,5.143-13.2l-.057-.606-.553-.28a27.524,27.524,0,0,0-5.228-2l-.609,2.145a25.311,25.311,0,0,1,4.206,1.548c.044,1.891-.167,7.758-4.225,10.585a9.632,9.632,0,0,1-6.469,1.561c-.286-.028-.57-.069-.846-.12l-.424,2.187c.34.063.689.112,1.04.147" transform="translate(-222.842 -62.028)" fill="#fc8d12"/>
    <path id="Path_57977" data-name="Path 57977" d="M247.769,85.182a12.733,12.733,0,0,1-4.142.257c-.35-.035-.7-.084-1.04-.147l.424-2.187c.276.051.561.091.846.12a9.733,9.733,0,0,0,6.1-1.319,17.749,17.749,0,0,1-2.19,3.277M252.6,67.888c-.541-.183-1.089-.352-1.642-.5l-.609,2.145q1.189.322,2.335.756c0-.063,0-.126,0-.19q0-1.121-.085-2.21" transform="translate(-222.842 -62.028)" fill="#e68010"/>
    <path id="Path_57978" data-name="Path 57978" d="M13.214,85.439a11.948,11.948,0,0,1-8.023-1.963C-.736,79.349.013,70.643.048,70.274l.057-.606.553-.28a27.523,27.523,0,0,1,5.228-2L6.5,69.531a25.311,25.311,0,0,0-4.206,1.548c-.044,1.891.167,7.758,4.225,10.585a9.632,9.632,0,0,0,6.469,1.561c.286-.028.57-.069.846-.12l.424,2.187c-.34.063-.689.112-1.04.147" transform="translate(0 -62.028)" fill="#fcb912"/>
    <path id="Path_57979" data-name="Path 57979" d="M51.086,70.1q0-1.121.085-2.21c.541-.183,1.089-.352,1.642-.5l.609,2.145q-1.189.322-2.335.756c0-.063,0-.127,0-.19m8.825,13.127a9.733,9.733,0,0,1-6.1-1.319A17.749,17.749,0,0,0,56,85.182a12.731,12.731,0,0,0,4.142.257c.35-.035.7-.084,1.04-.147L60.758,83.1c-.276.051-.561.091-.846.12" transform="translate(-46.928 -62.028)" fill="#faab18"/>
    <path id="Path_57980" data-name="Path 57980" d="M81.153,53.584a.033.033,0,0,1,.008-.007c.037-.032.066-.056.086-.072l.017-.014.007-.006.008-.006c3.372-2.838,5.932-8.646,6.811-15.733q.138-1.109.22-2.259a.926.926,0,0,0-.652-.944q-.641-.2-1.3-.38a36.753,36.753,0,0,0-7.629-1.211q-1.056-.058-2.135-.058a37.676,37.676,0,0,0-8.7,1q-.537.128-1.063.27-.659.178-1.3.38a.926.926,0,0,0-.652.944q.081,1.149.22,2.259.2,1.572.5,3.055c1.1,5.43,3.237,9.847,5.931,12.339q.189.175.383.339l.008.006.007.006.017.014c.02.017.05.041.086.072a.03.03,0,0,1,.008.007,9.488,9.488,0,0,1,1.291,1.37.465.465,0,0,1,.015.547.875.875,0,0,0-.151.492h0a.909.909,0,0,0,.919.9h0a.478.478,0,0,1,.456.318,5.577,5.577,0,0,1,.291,2.207,6.427,6.427,0,0,1-4.425,5.719,3.305,3.305,0,0,0-.465-.326l-.011,0h0c-1.777.425-2.881,1.019-2.881,1.675v0c0,.11,2,1.789,9.521,1.789s9.521-1.679,9.521-1.789v0c0-.657-1.1-1.251-2.881-1.675l-.013,0a3.309,3.309,0,0,0-.465.326,6.426,6.426,0,0,1-4.425-5.719,5.571,5.571,0,0,1,.291-2.207.478.478,0,0,1,.456-.318.909.909,0,0,0,.919-.9.876.876,0,0,0-.151-.492.465.465,0,0,1,.014-.547,9.483,9.483,0,0,1,1.291-1.37" transform="translate(-59.593 -30.279)" fill="#fcb912"/>
    <path id="Path_57981" data-name="Path 57981" d="M218.371,66.489v0c0-.657-1.1-1.251-2.881-1.675l-.013,0a3.306,3.306,0,0,0-.465.326,6.427,6.427,0,0,1-4.425-5.719,5.573,5.573,0,0,1,.291-2.207.478.478,0,0,1,.456-.318.909.909,0,0,0,.919-.9.875.875,0,0,0-.151-.492.465.465,0,0,1,.015-.547,9.487,9.487,0,0,1,1.291-1.37l.008-.007c.037-.032.066-.056.086-.072l.017-.014.007-.006.008-.006c3.372-2.838,5.932-8.646,6.811-15.733q.138-1.109.22-2.259a.926.926,0,0,0-.652-.944q-.641-.2-1.3-.38a36.753,36.753,0,0,0-7.629-1.211q-1.056-.058-2.135-.058V68.279c7.522,0,9.521-1.679,9.521-1.789" transform="translate(-191.85 -30.279)" fill="#faab18"/>
    <path id="Path_57982" data-name="Path 57982" d="M108.419,3.183a38.2,38.2,0,0,0-19.529,0q.311-.527.641-1.02a20.324,20.324,0,0,1,18.246,0q.33.493.641,1.02" transform="translate(-81.655)" fill="#fcb912"/>
    <path id="Path_57983" data-name="Path 57983" d="M153.753,102.522l-4.882-5.794,4.882-5.794,4.882,5.794Z" transform="translate(-136.753 -83.704)" fill="#fc8d12"/>
    <path id="Path_57984" data-name="Path 57984" d="M173.359,163.81v3.732l-3.145-3.732Z" transform="translate(-156.359 -150.785)" fill="#c41819"/>
    <path id="Path_57985" data-name="Path 57985" d="M173.359,116.859v3.733h-3.145Z" transform="translate(-156.359 -107.568)" fill="#f91819"/>
    <path id="Path_57986" data-name="Path 57986" d="M212,120.592H208.85v-3.733Z" transform="translate(-191.85 -107.567)" fill="#c41819"/>
    <path id="Path_57987" data-name="Path 57987" d="M212,163.81l-3.145,3.732V163.81Z" transform="translate(-191.85 -150.785)" fill="#a11414"/>
    <path id="Path_57988" data-name="Path 57988" d="M218.614,3.183q-.311-.527-.641-1.02A20.16,20.16,0,0,0,208.85,0V1.914a37.353,37.353,0,0,1,9.764,1.269" transform="translate(-191.85)" fill="#faab18"/>
  </g>
</svg>
