<svg id="providers" xmlns="http://www.w3.org/2000/svg" xmlns:xlink="http://www.w3.org/1999/xlink" width="38" height="38" viewBox="0 0 38 38">
  <defs>
    <clipPath id="clip-path">
      <rect id="Rectangle_1084" data-name="Rectangle 1084" width="38" height="34" fill="none"/>
    </clipPath>
    <clipPath id="clip-path-2">
      <rect id="Rectangle_1083" data-name="Rectangle 1083" width="9.247" height="30.839" fill="none"/>
    </clipPath>
  </defs>
  <g id="Group_7360" data-name="Group 7360" transform="translate(0 2)">
    <g id="Group_7383" data-name="Group 7383">
      <g id="Group_7358" data-name="Group 7358">
        <g id="Group_7357" data-name="Group 7357" clip-path="url(#clip-path)">
          <path id="Path_57965" data-name="Path 57965" d="M68.539,17a30.72,30.72,0,0,1-3.755,15.134A40.949,40.949,0,0,1,52.354,34a40.971,40.971,0,0,1-12.428-1.866A30.723,30.723,0,0,1,36.171,17,30.721,30.721,0,0,1,39.927,1.865a42.323,42.323,0,0,1,24.855,0A30.712,30.712,0,0,1,68.539,17" transform="translate(-33.355)" fill="#c41819"/>
          <path id="Path_57966" data-name="Path 57966" d="M244.056,0V34a40.952,40.952,0,0,0,12.428-1.867A30.72,30.72,0,0,0,260.24,17a30.711,30.711,0,0,0-3.756-15.134A40.968,40.968,0,0,0,244.056,0" transform="translate(-225.056)" fill="#a11414"/>
          <path id="Path_57967" data-name="Path 57967" d="M456.177,122.192a17.38,17.38,0,0,1-1.991,8.088q-.319.17-.65.336a35.409,35.409,0,0,0-.055-16.876q.361.178.705.363a17.38,17.38,0,0,1,1.991,8.088" transform="translate(-418.177 -105.291)" fill="#f0a400"/>
          <path id="Path_57968" data-name="Path 57968" d="M1.648,122.3a34.808,34.808,0,0,0,.992,8.325q-.332-.164-.648-.335a17.421,17.421,0,0,1,0-16.177q.344-.185.7-.363a34.747,34.747,0,0,0-1.048,8.55" transform="translate(0 -105.3)" fill="#ffbf00"/>
          <path id="Path_57969" data-name="Path 57969" d="M23.159,83.106h0q-.2-.074-.4-.149-.114-.355-.22-.718-.2-.68-.374-1.38h0a35.416,35.416,0,0,1,.056-16.874q.2-.766.424-1.507.056-.184.114-.365l.2-.074a40.419,40.419,0,0,1,8.193-2.047c-.143.425-.28.863-.408,1.313a43.816,43.816,0,0,0-.059,22.252q.218.786.468,1.522a40.7,40.7,0,0,1-7.99-1.972" transform="translate(-19.522 -55.534)" fill="#d9d9d9"/>
          <path id="Path_57970" data-name="Path 57970" d="M348.739,72.533a34.774,34.774,0,0,1-.993,8.325q-.173.7-.374,1.38-.106.362-.22.717-.2.076-.4.149a40.709,40.709,0,0,1-7.99,1.972q.249-.735.468-1.521a43.819,43.819,0,0,0-.059-22.253q-.193-.674-.408-1.313a40.414,40.414,0,0,1,8.194,2.047l.2.074q.058.181.114.363.229.742.424,1.508a34.758,34.758,0,0,1,1.048,8.55" transform="translate(-312.388 -55.534)" fill="#d4d4d4"/>
          <path id="Path_57971" data-name="Path 57971" d="M44.115,150.922l8.473-.509q.078,1.15.121,2.3a91.951,91.951,0,0,1-3.73,9l-3.138-.188a89.572,89.572,0,0,0,3.884-8.7l-5.5.2q-.04-1.05-.111-2.1" transform="translate(-40.681 -139.239)" fill="#910074"/>
          <path id="Path_57972" data-name="Path 57972" d="M328.667,150.413l8.473.509q-.071,1.048-.111,2.1a87.466,87.466,0,0,0-3.5,8.619l-3.138.188a89.579,89.579,0,0,1,3.652-8.915l-5.5-.2q.044-1.152.121-2.3" transform="translate(-302.969 -139.239)" fill="#910074"/>
          <path id="Path_57973" data-name="Path 57973" d="M143.765,36.69a39.981,39.981,0,0,1-1.875,12.544c-.258.767-.54,1.492-.842,2.171a30.6,30.6,0,0,1-13.061,0c-.3-.678-.584-1.4-.842-2.171A39.958,39.958,0,0,1,125.27,36.69a39.977,39.977,0,0,1,1.874-12.543q.388-1.151.843-2.171a30.6,30.6,0,0,1,13.061,0q.453,1.018.843,2.171a40,40,0,0,1,1.874,12.543" transform="translate(-115.518 -19.69)" fill="#e8e8e8"/>
          <path id="Path_57974" data-name="Path 57974" d="M172.753,130.022a35.15,35.15,0,0,1,11.1,0q-.155,1.37-.249,2.746c-1.8,3.708-3.032,7.619-4.48,11.456a40.953,40.953,0,0,1-4.112-.158c1.881-3.753,3.24-7.7,4.86-11.561a56.774,56.774,0,0,0-6.873.263q-.093-1.376-.249-2.746" transform="translate(-159.304 -119.955)" fill="#910074"/>
          <g id="Group_7356" data-name="Group 7356" transform="translate(19 1.58)" opacity="0.2" style="mix-blend-mode: multiply;isolation: isolate">
            <g id="Group_7355" data-name="Group 7355">
              <g id="Group_7354" data-name="Group 7354" clip-path="url(#clip-path-2)">
                <path id="Path_57975" data-name="Path 57975" d="M244.056,52.109h0a30.171,30.171,0,0,0,6.53-.7c.3-.678.584-1.4.842-2.171A39.981,39.981,0,0,0,253.3,36.69a40,40,0,0,0-1.874-12.543q-.388-1.151-.843-2.171a30.171,30.171,0,0,0-6.53-.7h0Z" transform="translate(-244.056 -21.27)" fill="#003174"/>
              </g>
            </g>
          </g>
        </g>
      </g>
    </g>
  </g>
</svg>
