<svg id="Layer_1" class="sbe-icons" data-name="Layer 1" xmlns="http://www.w3.org/2000/svg" width="35" height="35.004" viewBox="0 0 595.28 584.97"><defs><style>.cls-1{fill:#fff;}</style></defs><title>Icons</title><path class="cls-1" d="M506.78,294c-.16,70.24-57.74,127.7-127.87,127.6A128.34,128.34,0,0,1,250.55,292.42c.29-70.32,58.13-127.33,128.9-127.05C449.88,165.65,506.94,223.29,506.78,294Zm-120.1-64.55a35.85,35.85,0,0,1,0,5.49c-.73,4.68,1.07,7.64,5.08,10.2,6.17,3.93,11.89,8.55,17.85,12.81,5.4,3.87,10.5,9.9,16.39,10.84s12.58-3.28,18.92-5.23c.16,0,.37,0,.48-.14,1.42-1.4,3.53-2.57,4.12-4.27,4.17-12.1,8.15-24.28,11.84-36.53a7.37,7.37,0,0,0-1.43-6,111,111,0,0,0-32.74-24.21c-2.8-1.4-4.74-1-7.18.8-7.83,5.93-15.61,12-23.88,17.26C388.85,215.1,383.95,220.22,386.67,229.47Zm-16-.16c0-2.83.33-5.72-.12-8.48a8.71,8.71,0,0,0-2.68-5.24Q352.51,204,336.74,193a7.33,7.33,0,0,0-6.12-.53,110,110,0,0,0-33.06,23.76c-2.17,2.23-2.48,4.17-1.48,7.07,3.63,10.53,7.3,21.07,10.27,31.8,1.5,5.4,3.88,8.64,9.58,9.68a58.81,58.81,0,0,1,11.85,3.81c2.89,1.2,4.92.52,7.26-1.23,8.54-6.38,16.93-13,25.91-18.72C368.36,243.93,373.34,238.75,370.66,229.31ZM305.1,350.37c1.33,0,2.67,0,4,0,6.14-.13,13.28,1.62,18.13-.95,5.08-2.68,8.15-9.39,11.69-14.63a8.54,8.54,0,0,0,1-6.26c-2.27-8.35-5-16.59-7.57-24.84-2-6.18-2.44-14-6.55-18-4.27-4.2-12-5-18.44-6.78a9,9,0,0,0-6.64,1.18c-10.13,7-19.95,14.51-30,21.59-2.7,1.89-3.62,3.83-3.13,7,2.11,13.63,6.13,26.62,13.1,38.55.91,1.56,3.52,2.86,5.42,3C292.41,350.59,298.76,350.37,305.1,350.37Zm147.46,0c6.34,0,12.68.16,19-.11,1.67-.07,4-1.07,4.79-2.39a102,102,0,0,0,13.26-40,7.38,7.38,0,0,0-2.58-5.61q-15.12-11.5-30.72-22.37a8.56,8.56,0,0,0-6.24-1,108.22,108.22,0,0,0-15.64,5.11,9.25,9.25,0,0,0-4.67,4.87c-3,8.47-4.53,17.57-8.37,25.6-6.14,12.85-4.14,23.23,5.93,32.87,2.11,2,3.77,3.24,6.71,3.15C440.21,350.23,446.39,350.37,452.56,350.37Zm-73.9,55.72c6.83-.82,13.59-1.75,20.37-2.41,3-.29,4.25-1.75,5.06-4.51,2.12-7.18,4.58-14.25,6.85-21.39,1.91-6,5.92-12.4,5-18s-6.65-10.46-10.66-15.33a8.53,8.53,0,0,0-5.62-2.82c-9-.29-18-.16-27-.12-6.16,0-13.32-1.79-18.2.74-5.08,2.63-8,9.51-11.8,14.53-.1.13-.26.26-.29.4-.32,1.79-1.3,3.79-.82,5.35,3.81,12.4,7.78,24.76,12,37a7.21,7.21,0,0,0,4.73,3.9C365,404.68,371.84,405.26,378.66,406.09Z"/><path class="cls-1" d="M186.27,301.5H70.15a24.6,24.6,0,0,1-5-.17c-4.28-.9-6.8-3.63-6.7-8.06.09-4.19,2.58-6.77,6.64-7.61a25.18,25.18,0,0,1,5-.17H186.41c-.31-6.73-.53-13.14-.92-19.55a336.3,336.3,0,0,0-11.61-69.37c-.48-1.73-2.74-3.64-4.56-4.21A635.78,635.78,0,0,1,65.88,150.07a24,24,0,0,1-4.32-2.49c-3.21-2.64-4.22-6-2.2-9.79s5.45-5.31,9.69-3.84a46.86,46.86,0,0,1,5.86,2.79,603.54,603.54,0,0,0,86.56,36.17c1.52.5,3.08.92,5.71,1.71-1.8-4.67-3.16-8.51-4.73-12.26-13.62-32.71-32.11-62.12-58.45-86.19-2.95-2.7-6.11-5.16-9.25-7.65-4.64-3.68-5.68-8.09-2.73-12s7.88-4.7,12.3-.69C115.16,65.61,126.4,75.2,136,86.22c22.55,26,37.94,56.24,48.51,88.91,1.36,4.19,3.38,6.24,7.62,7.15,20,4.27,40,8.78,60,13.2,1.3.29,2.61.52,3.92.81,5.34,1.17,8.29,4.93,7.41,9.43s-5.16,7.36-10.28,6.3c-17.44-3.61-34.86-7.36-52.28-11.09-2.88-.62-5.73-1.38-7.66-1.85L204,285.49c5.83,0,13.1-.12,20.36.07,2.24.06,5.32.21,6.5,1.6,1.82,2.15,3.39,5.5,3.16,8.17-.35,4-3.73,6.12-7.91,6.14-7.66,0-15.31,0-23.66,0A403.38,403.38,0,0,1,191,390.24c10.12-2.5,19.37-4.95,28.71-7.05,11.37-2.56,22.79-4.91,34.22-7.21,5.16-1,9.3,1.71,10.13,6.41.78,4.37-2,8-7.09,9.23-22.36,5.26-44.7,10.59-67.1,15.69-3.27.74-4.56,2.43-5.56,5.4-13.64,40.39-34.16,76.61-65.24,106.28a171.51,171.51,0,0,1-14.57,12.18c-5,3.8-9.81,3.26-12.68-.93-2.76-4-1.6-8.18,3.19-12,33.76-26.85,55.44-62.09,70.61-101.84a7.5,7.5,0,0,0,0-1.69c-8.44,2.92-16.83,5.42-24.91,8.68-22.23,9-44.33,18.22-66.48,27.38-1.54.64-3,1.45-4.56,2-4.54,1.73-8.58.21-10.49-3.86s-.51-8.35,3.89-10.47c9-4.33,18-8.85,27.28-12.4,25.65-9.79,51.45-19.19,77.27-28.53,3.46-1.25,5.37-2.74,6.37-6.51a371.22,371.22,0,0,0,12.25-84.41C186.31,305.15,186.27,303.67,186.27,301.5Z"/><path class="cls-1" d="M309.79,472.39c7.85-2.47,14.52-4.85,21.34-6.65,25.58-6.78,51.54-12.34,76.77-20.24C471.28,425.67,510.14,382.65,520.62,317c13.38-83.74-40.74-159.89-123.86-178.8-27.4-6.23-54.32-14.59-81.45-22-1.4-.38-2.8-.8-5.24-1.5l2.09,5c4.16,10,8.47,19.91,12.44,30,2.31,5.84.49,10.2-4.36,11.91s-8.67-.75-10.72-6.85a193.66,193.66,0,0,0-22-45.81,13.48,13.48,0,0,0-6-4.75,550.88,550.88,0,0,1-72.51-34.64,16.47,16.47,0,0,1-4.43-3.17c-2.72-3.18-2.86-6.76-.17-10,3-3.64,6.68-3.81,10.77-1.69C227.8,61.25,240.25,68,253,74.11c47.58,22.72,97.52,38.14,149,49.28,72.68,15.73,126.4,75.41,135.56,149.09,11,88.47-47.45,172-135,191-56.78,12.34-111.54,29.94-163.44,56.15-7.73,3.9-15.33,8.07-23,12.12-5.66,3-10.11,2.26-12.59-2.09s-.84-8.67,4.7-11.86a562.93,562.93,0,0,1,72.93-34.94c2.54-1,5.38-3.07,6.57-5.41,7.17-14.06,13.92-28.33,20.76-42.55.64-1.34.89-2.86,1.46-4.25,2-4.81,6-6.86,10.33-5.27s6.57,5.74,4.71,10.56c-4,10.24-8.3,20.33-12.51,30.48C311.86,468,311.06,469.62,309.79,472.39Z"/></svg>