<svg id="top_games" xmlns="http://www.w3.org/2000/svg" width="38" height="38" viewBox="0 0 38 38">
  <g id="Group_7384" data-name="Group 7384" transform="translate(0 1)">
    <path id="Path_57956" data-name="Path 57956" d="M71.78,26.219A15.812,15.812,0,1,1,55.97,10.225,15.9,15.9,0,0,1,71.78,26.219" transform="translate(-36.97 -9.404)" fill="#9e0b0f"/>
    <path id="Path_57957" data-name="Path 57957" d="M239.249,10.225V42.213a15.995,15.995,0,0,0,0-31.988" transform="translate(-220.249 -9.404)" fill="#8a1618"/>
    <path id="Path_57958" data-name="Path 57958" d="M102.448,59.748A12.916,12.916,0,1,1,89.532,46.683a12.991,12.991,0,0,1,12.915,13.065" transform="translate(-70.532 -42.933)" fill="#660303"/>
    <path id="Path_57959" data-name="Path 57959" d="M7.713,249.413l-2.6-5.175L0,241.611l9.445-9.555,7.713,7.8Z" transform="translate(0 -213.413)" fill="#ed1c24"/>
    <path id="Path_57960" data-name="Path 57960" d="M72.566,280.168l-8.147,8.317,2.6,5.175,9.429-9.539Z" transform="translate(-59.303 -257.66)" fill="#c5191f"/>
    <path id="Path_57961" data-name="Path 57961" d="M279.591,241.611l-5.116,2.627-2.6,5.175-9.445-9.555,7.713-7.8Z" transform="translate(-241.591 -213.413)" fill="#ed1c24"/>
    <path id="Path_57962" data-name="Path 57962" d="M310.545,236.183l8.222,8.242,5.116-2.627-9.429-9.539Z" transform="translate(-285.882 -213.6)" fill="#c5191f"/>
    <path id="Path_57963" data-name="Path 57963" d="M60.769,11.136,52.192,9.284A1.626,1.626,0,0,1,51.124,8.5L46.733.82a1.616,1.616,0,0,0-2.813,0L39.528,8.5a1.626,1.626,0,0,1-1.067.784l-8.576,1.852a1.65,1.65,0,0,0-.869,2.707l5.863,6.6a1.656,1.656,0,0,1,.408,1.269l-.909,8.824a1.629,1.629,0,0,0,2.276,1.673l8.014-3.6a1.608,1.608,0,0,1,1.32,0L54,32.206a1.629,1.629,0,0,0,2.276-1.673l-.909-8.824a1.656,1.656,0,0,1,.408-1.269l5.862-6.6a1.65,1.65,0,0,0-.869-2.707" transform="translate(-26.326 0)" fill="#ffc83b"/>
    <path id="Path_57964" data-name="Path 57964" d="M254.687,11.137,246.11,9.284a1.626,1.626,0,0,1-1.067-.785L240.652.821A1.606,1.606,0,0,0,239.245,0V28.464a1.608,1.608,0,0,1,.66.142l8.014,3.6a1.629,1.629,0,0,0,2.276-1.673l-.909-8.824a1.656,1.656,0,0,1,.408-1.269l5.863-6.6a1.65,1.65,0,0,0-.869-2.707" transform="translate(-220.245 0)" fill="#fcb331"/>
  </g>
</svg>
