<?xml version="1.0" encoding="utf-8"?>
<!-- Generator: Adobe Illustrator 24.3.0, SVG Export Plug-In . SVG Version: 6.00 Build 0)  -->
<svg version="1.1" id="Layer_1" xmlns="http://www.w3.org/2000/svg" xmlns:xlink="http://www.w3.org/1999/xlink" x="0px" y="0px"
	 viewBox="0 0 1615.75 1131.34" style="enable-background:new 0 0 1615.75 1131.34;" xml:space="preserve">
<style type="text/css">
	.st0{fill:#342467;}
	.st1{fill:#FFFFFF;}
	.st2{fill:#F79320;}
	.st3{fill:none;}
	.st4{clip-path:url(#SVGID_2_);fill:#342467;}
	.st5{clip-path:url(#SVGID_2_);fill:#FFFFFF;}
	.st6{clip-path:url(#SVGID_2_);}
	.st7{clip-path:url(#SVGID_4_);fill:#332466;}
	.st8{clip-path:url(#SVGID_4_);fill:#FFFFFF;}
	.st9{clip-path:url(#SVGID_4_);fill:#F79320;}
	.st10{clip-path:url(#SVGID_4_);fill:#0D1925;}
	.st11{clip-path:url(#SVGID_4_);fill:#FEFFFF;}
	.st12{clip-path:url(#SVGID_6_);fill:#342467;}
	.st13{clip-path:url(#SVGID_6_);fill:#FFFFFF;}
	.st14{clip-path:url(#SVGID_6_);}
	.st15{clip-path:url(#SVGID_8_);fill:#332466;}
	.st16{clip-path:url(#SVGID_8_);fill:#FFFFFF;}
	.st17{clip-path:url(#SVGID_8_);fill:#F79320;}
	.st18{clip-path:url(#SVGID_10_);fill:#342467;}
	.st19{clip-path:url(#SVGID_10_);fill:#FFFFFF;}
	.st20{clip-path:url(#SVGID_10_);}
	.st21{clip-path:url(#SVGID_12_);fill:#332466;}
	.st22{clip-path:url(#SVGID_12_);fill:#FFFFFF;}
	.st23{clip-path:url(#SVGID_12_);fill:#0D1925;}
	.st24{clip-path:url(#SVGID_12_);fill:#F79320;}
	.st25{clip-path:url(#SVGID_12_);fill:#FEFFFF;}
	.st26{clip-path:url(#SVGID_14_);fill:#342467;}
	.st27{clip-path:url(#SVGID_14_);fill:#FFFFFF;}
	.st28{clip-path:url(#SVGID_14_);}
	.st29{clip-path:url(#SVGID_16_);fill:#FFFFFF;}
	.st30{clip-path:url(#SVGID_16_);fill:#332466;}
	.st31{clip-path:url(#SVGID_16_);fill:#F79320;}
	.st32{clip-path:url(#SVGID_18_);fill:#342467;}
	.st33{clip-path:url(#SVGID_18_);}
	.st34{clip-path:url(#SVGID_20_);fill:#342467;}
	.st35{clip-path:url(#SVGID_20_);fill:#F5921F;}
</style>
<rect class="st0" width="1615.75" height="1131.34"/>
<g>
	<path class="st0" d="M439.5,795.49c-25.24,0-49.27-5.1-71.42-15.17l-18.39-8.36c-1.43-0.65-2.08-2.32-1.46-3.77l13.9-32.5
		l-0.57,0.06h-74.31c-1.01,0-1.95-0.53-2.47-1.4l-39.74-66.01l-11.13,65.01c-0.24,1.39-1.44,2.4-2.85,2.4h-94.82
		c-0.85,0-1.66-0.38-2.21-1.03c-0.55-0.65-0.78-1.52-0.63-2.36l41.43-235.81c0.24-1.38,1.44-2.39,2.85-2.39h74.35
		c1.02,0,1.96,0.53,2.48,1.41l39.57,66.16l11.3-65.17c0.24-1.39,1.44-2.4,2.85-2.4h94.78c0.85,0,1.67,0.38,2.21,1.03
		c0.55,0.65,0.78,1.52,0.63,2.36l-13.95,79.43c17.68-18.32,41.02-28.64,65.41-28.64c9.61,0,18.76,1.51,27.27,4.48
		c0.4-0.2,0.84-0.31,1.31-0.31h78.3c-2.89-8.26-3.58-17.28-1.99-26.34c4.2-24.42,26.47-42.85,51.82-42.85
		c15.45,0,29.65,6.4,38.97,17.54c9.27,11.09,13.03,26.04,10.32,41.03c-0.68,3.66-1.75,7.21-3.17,10.61h69.28
		c8.53-2.4,17.84-3.61,27.69-3.61h0.2c-1.93-7.27-2.24-15.04-0.89-22.71c4.2-24.43,26.47-42.86,51.82-42.86
		c15.44,0,29.65,6.4,38.96,17.54c0.34,0.4,0.66,0.81,0.99,1.23l0.98-5.54c0.24-1.38,1.44-2.39,2.85-2.39h125.7
		c23.68,0,45.19,9.48,59.04,26c13.33,15.93,18.56,36.55,14.71,58.09l-0.08,0.45c19.75-19.42,47.25-30.36,77.2-30.36
		c25.3,0,47.39,8.46,62.89,23.96l3.01-17.39c0.24-1.38,1.44-2.39,2.85-2.39h18.82l7.07-39.31c0.25-1.38,1.45-2.38,2.84-2.38h89.89
		c0.85,0,1.66,0.38,2.21,1.03c0.55,0.65,0.78,1.52,0.64,2.36l-6.64,38.3h38.24c0.85,0,1.66,0.38,2.21,1.03
		c0.55,0.65,0.78,1.51,0.64,2.36l-0.83,4.77c14.93-8.18,33.16-12.32,54.28-12.32c53.45,0,74.91,27.71,83.49,50.95l7.68,20.81
		c0.28,0.75,0.23,1.59-0.13,2.3c-0.36,0.71-1,1.25-1.77,1.47l-20.93,6.08c0.8,1,1.56,2.03,2.28,3.08
		c8.26,12.09,10.67,26.85,7.18,43.88c-10.67,54.81-64.99,63-96.42,63c-25.27,0-46.53-4.68-66.55-14.7l-0.04,0.22
		c-0.17,0.96-0.82,1.77-1.72,2.16l-10.35,4.36c-12.89,5.43-25.42,7.96-39.43,7.96c-32.72,0-50.43-12.89-59.53-23.7
		c-2.85-3.38-6.07-8.06-8.74-14.12l2.77,6.95c0.53,1.32,0.01,2.83-1.21,3.55l-15.18,9.01c-20.47,12.15-43.77,18.3-69.26,18.3
		c-33.91,0-62.28-11.48-79.88-32.31c-2.3-2.73-4.44-5.65-6.38-8.72c-15.88,23.5-43.09,36.87-75.45,36.87h-230.2
		c-0.85,0-1.66-0.38-2.21-1.03c-0.55-0.65-0.78-1.52-0.63-2.36l15.14-86.26c-9.84,1.09-17.91,5.89-22.07,10.73l-13.53,76.53
		c-0.25,1.38-1.44,2.39-2.85,2.39H543.55C526.37,775.4,491.37,795.49,439.5,795.49 M365.29,728.3l10.24-23.96
		c-1.68-2.45-3.23-5.07-4.65-7.85L365.29,728.3z M1200.1,698.1c-1.43-3.98-2.58-8.46-3.27-13.46h-2.1L1200.1,698.1z M1295.39,648.87
		c1.29-0.35,2.59-0.77,3.91-1.25l16.53-6.13l-0.06-0.2h-19.05L1295.39,648.87z M458.35,648.09c2.11,0,5.19-0.43,8.37-2.35l1.68-9.15
		c-2.83,0.16-8.14,1.33-10.05,10.08c-0.11,0.53-0.17,1-0.2,1.42H458.35"/>
	<path class="st1" d="M808.2,486.22c14.59,0,27.98,6.01,36.75,16.51c1.85,2.21,3.4,4.61,4.78,7.11l2.25-12.78h125.7
		c22.82,0,43.53,9.1,56.82,24.97c12.77,15.26,17.77,35.05,14.09,55.72c-0.72,4.09-1.78,8.01-3.1,11.78
		c19.03-23.92,48.58-38.29,83.06-38.29c26.89,0,49.69,9.67,64.73,27.33l4.01-23.16h21.23l7.5-41.68h89.89l-7.22,41.68h41.67
		l-1.9,10.98c14.05-9.18,33.13-15.15,58.21-15.15c51.79,0,72.51,26.68,80.78,49.06l7.68,20.81l-25.29,7.35
		c1.83,1.9,3.52,3.97,5.06,6.22c7.8,11.41,10.07,25.43,6.74,41.67c-4.38,22.54-22.44,60.69-93.59,60.69
		c-26.1,0-48.22-5.21-68.7-16.17l-0.73,4.08l-10.35,4.36c-12.52,5.28-24.7,7.73-38.31,7.73c-31.61,0-48.61-12.33-57.32-22.67
		c-5.73-6.81-11.72-17.39-13.24-32.62h-8.93l11.31,28.38l-15.19,9.01c-20.01,11.87-42.82,17.9-67.78,17.9
		c-33.05,0-60.63-11.11-77.67-31.29c-3.28-3.88-6.1-8.03-8.5-12.4c-14.58,24.62-41.96,39.52-75.53,39.52H816.94h-6.4h-83.62
		l15.77-89.88c-12.06,0.2-22.94,5.93-28.26,12.59l-13.66,77.28h-78.05h-11.95h-69.14c-12.94,31.25-41.39,59.73-102.14,59.73
		c-24.83,0-48.46-5.02-70.23-14.91l-18.39-8.36L378.82,704c-3.81-5.29-6.8-11.15-9.14-17.4l-8.13,46.27h-74.31l-43.75-72.67
		l-12.45,72.67h-94.82l41.43-235.81h74.35l43.56,72.85l12.63-72.85h94.78l-15.75,89.65c17.17-21.87,42.42-35.47,70.06-35.47
		c10.17,0,19.75,1.76,28.41,5.09l0.17-0.92h78h4.57c-3.93-8.69-5.18-18.68-3.41-28.72c3.96-23.07,25-40.46,48.97-40.46
		c14.59,0,27.98,6.01,36.75,16.51c8.72,10.43,12.25,24.52,9.7,38.67c-0.94,5-2.61,9.71-4.89,14.02h74.24
		c8.4-2.41,17.5-3.61,27.28-3.61h4.12c-2.76-7.79-3.49-16.42-1.97-25.1C763.19,503.62,784.23,486.22,808.2,486.22 M1031.25,613.87
		l0.28-0.68l-0.41,0.48L1031.25,613.87 M458.35,650.97c2.77,0,6.92-0.65,10.99-3.5l2.5-13.62c-0.63-0.11-1.4-0.17-2.32-0.17
		c-9.33,0-12.75,6.73-13.99,12.37c-0.45,2.21-0.31,3.82-0.13,4.62C455.9,650.81,456.94,650.97,458.35,650.97 M1291.8,652.6
		c2.86-0.47,5.65-1.22,8.5-2.27l19.19-7.11c-0.6-1.53-1.11-3.14-1.57-4.81h-23.64L1291.8,652.6 M808.2,480.44
		c-26.73,0-50.24,19.46-54.67,45.27c-1.2,6.82-1.14,13.73,0.13,20.35c-8.71,0.25-16.99,1.44-24.67,3.57h-64.72
		c0.78-2.34,1.39-4.74,1.85-7.17c2.86-15.87-1.13-31.69-10.95-43.44c-9.87-11.81-24.88-18.58-41.18-18.58
		c-26.73,0-50.23,19.46-54.67,45.26c-1.43,8.14-1.11,16.28,0.93,23.92h-74.39c-0.45,0-0.89,0.05-1.31,0.15
		c-8.54-2.87-17.7-4.32-27.27-4.32c-22.32,0-43.77,8.36-61.05,23.4l12.44-70.8c0.3-1.68-0.17-3.41-1.27-4.72
		c-1.1-1.31-2.72-2.06-4.42-2.06H308.2c-2.81,0-5.21,2.02-5.69,4.79l-9.97,57.5l-35.57-59.48c-1.04-1.74-2.92-2.81-4.96-2.81h-74.35
		c-2.81,0-5.2,2.02-5.69,4.78l-41.43,235.81c-0.3,1.68,0.17,3.41,1.27,4.72c1.1,1.31,2.72,2.06,4.42,2.06h94.82
		c2.81,0,5.22-2.03,5.7-4.8l9.82-57.34l35.73,59.35c1.05,1.74,2.92,2.8,4.95,2.8h70.48l-12.15,28.42c-1.24,2.89,0.06,6.23,2.92,7.53
		l18.39,8.36c22.53,10.24,46.96,15.43,72.62,15.43c36.21,0,83.56-10.48,105.92-59.73h65.35h11.95h78.05c2.8,0,5.2-2.01,5.69-4.77
		l13.38-75.72c3.24-3.45,8.91-6.94,15.81-8.51l-14.43,82.22c-0.3,1.68,0.17,3.41,1.27,4.72c1.1,1.31,2.72,2.06,4.42,2.06h83.62h6.4
		h140.19c31.72,0,58.68-12.52,75.36-34.67c1.35,1.91,2.76,3.75,4.25,5.5c18.16,21.5,47.31,33.34,82.08,33.34
		c26.01,0,49.81-6.29,70.73-18.71l15.19-9.01c0.27-0.16,0.52-0.34,0.75-0.53c0.93,1.29,1.85,2.47,2.74,3.52
		c9.49,11.28,27.91,24.72,61.74,24.72c14.41,0,27.29-2.6,40.55-8.18l10.35-4.36c0.7-0.3,1.33-0.72,1.85-1.24
		c19.56,9.27,41.01,13.78,65.34,13.78c32.71,0,58.16-7.85,75.66-23.34c15.4-13.63,21.33-30.37,23.6-42.02
		c3.63-17.7,1.1-33.14-7.53-45.86l16.96-4.93c1.54-0.45,2.82-1.51,3.55-2.95s0.82-3.1,0.26-4.6l-7.68-20.81
		c-8.9-24.11-31.09-52.84-86.2-52.84c-19.26,0-36.2,3.38-50.53,10.07c0.03-1.39-0.45-2.76-1.36-3.84c-1.1-1.3-2.72-2.06-4.42-2.06
		h-34.81l6.05-34.92c0.29-1.68-0.18-3.4-1.27-4.71c-1.1-1.3-2.72-2.06-4.42-2.06h-89.89c-2.8,0-5.19,2-5.69,4.75l-6.65,36.93h-16.4
		c-2.81,0-5.21,2.02-5.69,4.79l-2.1,12.13c-15.74-13.68-36.96-21.1-60.95-21.1c-27.82,0-53.59,9.22-73.28,25.78
		c1.67-19.63-4.01-38.19-16.34-52.92c-14.39-17.18-36.72-27.04-61.25-27.04h-125.7c-2.69,0-5,1.85-5.62,4.43
		C836.58,485.96,822.92,480.44,808.2,480.44 M461.92,644.7c0.73-1.88,1.69-3.1,2.76-3.89l-0.56,3.05
		C463.37,644.23,462.63,644.5,461.92,644.7 M1299.14,644.18h1.11l-1.19,0.44L1299.14,644.18z"/>
	<polygon class="st1" points="378.38,517.72 344.2,712.2 298.92,712.2 232.51,601.9 213.62,712.2 160.83,712.2 195,517.72 
		240.29,517.72 306.42,628.3 325.59,517.72 	"/>
	<path class="st1" d="M551.19,576.07l-22.23,126.41c-8.34,46.95-38.62,69.46-89.46,69.46c-26.12,0-46.4-6.11-61.68-13.06
		l16.39-38.34c13.06,8.34,29.45,10.83,41.4,10.83c26.67,0,42.23-12.5,45.84-32.78l0.56-3.61c-11.67,11.39-25.84,18.06-42.51,18.06
		c-36.12,0-61.4-28.9-53.07-74.46c6.94-40.56,38.06-66.68,70.85-66.68c20.56,0,35.01,9.17,42.79,21.12l3.05-16.95H551.19z
		 M488.4,658.03l5.56-30.28c-4.45-10-13.62-14.73-24.45-14.73c-16.95,0-30.28,10.84-34.17,28.62c-3.05,15.01,2.78,30.01,23.06,30.01
		C468.96,671.64,479.79,667.47,488.4,658.03"/>
	<path class="st1" d="M605.38,712.2h-48.06l23.89-136.14h48.06L605.38,712.2z M585.37,530.22c2.22-13.06,14.45-23.34,28.62-23.34
		c17.78,0,29.17,13.89,26.12,30.84c-2.5,13.34-14.73,23.62-28.89,23.62C593.71,561.34,582.32,547.45,585.37,530.22"/>
	<path class="st1" d="M757.07,572.45l-8.89,50.01c-23.34-1.94-44.73,10.28-53.35,25.28l-11.39,64.46h-48.06l23.89-136.14h48.06
		l-3.89,21.95C717.9,578.29,737.35,572.45,757.07,572.45"/>
	<path class="st1" d="M799.59,712.2h-48.06l23.89-136.14h48.06L799.59,712.2z M779.58,530.22c2.22-13.06,14.45-23.34,28.62-23.34
		c17.78,0,29.17,13.89,26.12,30.84c-2.5,13.34-14.73,23.62-28.89,23.62C787.92,561.34,776.53,547.45,779.58,530.22"/>
	<path class="st2" d="M869.32,517.72h108.36c33.9,0,56.12,25.28,50.57,56.4c-3.33,18.9-15.28,31.67-31.67,39.46
		c18.06,5.83,30.56,24.17,25.56,50.01c-5.84,30-30.84,48.62-65.01,48.62H835.15L869.32,517.72z M945.45,669.97
		c14.17,0,24.72-6.67,26.67-18.34c1.39-8.89-3.06-16.95-18.06-16.95h-52.79l-6.11,35.29H945.45z M949.06,594.68
		c14.45,0,24.45-6.39,26.12-18.33c1.39-9.17-3.33-16.67-15.84-16.67h-44.73l-6.11,35.01H949.06z"/>
	<path class="st2" d="M1125.21,678.86c13.62,0,26.12-3.33,37.79-10.28l13.06,32.79c-16.39,9.73-35.56,15-57.24,15
		c-50.84,0-81.68-30-73.9-75.85c6.67-39.45,37.79-68.62,83.63-68.62c45.29,0,73.91,33.89,58.07,89.18h-94.19
		C1096.31,673.86,1108.54,678.86,1125.21,678.86 M1144.1,631.36c0.56-16.67-6.67-23.34-19.17-23.34c-13.89,0-25.01,8.61-30.28,23.34
		H1144.1z"/>
	<path class="st2" d="M1269.69,659.14c-1.67,9.73,3.05,14.73,14.45,14.73c8.34,0,15.84-1.39,23.34-4.16l-7.23,40.56
		c-10.56,4.45-20.01,6.11-30.28,6.11c-35.56,0-55.29-18.89-49.18-54.17l7.78-44.46h-21.11l7.22-41.67h21.12l7.5-41.67h48.06
		l-7.22,41.67h41.67l-7.22,41.67h-41.67L1269.69,659.14z"/>
	<path class="st2" d="M1320.26,697.48l20.56-32.78c15,10.56,30.84,14.45,47.79,14.45c14.17,0,22.23-2.78,23.06-8.06
		c1.11-5.84-7.22-6.11-23.34-8.89c-34.45-5.84-55.57-16.95-50.84-44.73c4.17-26.12,27.5-45.56,69.18-45.56
		c39.17,0,54.73,17.5,61.4,35.56l-41.12,11.95c-3.05-9.45-12.5-11.67-22.5-11.67c-11.39,0-17.5,3.33-18.33,8.33
		c-0.83,5.28,5.28,6.95,24.72,10.28c29.17,5,57.51,11.95,50.57,45.84c-6.11,31.4-34.45,44.18-73.35,44.18
		C1361.1,716.37,1339.99,710.26,1320.26,697.48"/>
</g>
<rect class="st3" width="1615.75" height="972.44"/>
<g>
	<defs>
		<rect id="SVGID_1_" x="2875.25" y="1904.94" width="1080" height="650"/>
	</defs>
	<clipPath id="SVGID_2_">
		<use xlink:href="#SVGID_1_"  style="overflow:visible;"/>
	</clipPath>
	<rect x="2875.25" y="2478.17" class="st4" width="1080" height="36.77"/>
	<path class="st5" d="M3905.52,2496.43c0.61-0.65,1.4-0.98,2.38-0.98c1,0,1.8,0.33,2.41,0.98c0.6,0.65,0.9,1.51,0.9,2.59
		c0,1.08-0.3,1.94-0.9,2.59c-0.6,0.65-1.4,0.97-2.41,0.97c-1,0-1.8-0.33-2.41-0.98c-0.59-0.65-0.89-1.52-0.89-2.63
		C3904.61,2497.93,3904.92,2497.09,3905.52,2496.43z M3903.68,2503.16c1.12,1.14,2.52,1.71,4.19,1.71c1.68,0,3.1-0.56,4.25-1.68
		c1.15-1.12,1.72-2.52,1.72-4.18c0-1.65-0.57-3.04-1.71-4.17c-1.16-1.13-2.56-1.7-4.22-1.7c-1.65,0-3.05,0.56-4.2,1.69
		c-1.15,1.12-1.72,2.49-1.72,4.09C3901.99,2500.62,3902.55,2502.04,3903.68,2503.16z M3896.02,2501.51
		c-0.57,0.71-1.35,1.07-2.33,1.07s-1.75-0.35-2.3-1.06c-0.51-0.65-0.76-1.47-0.76-2.49c0-1.03,0.25-1.86,0.76-2.51
		c0.56-0.72,1.33-1.08,2.3-1.08c0.91,0,1.66,0.33,2.25,0.99c0.58,0.65,0.87,1.51,0.87,2.59
		C3896.81,2500.03,3896.54,2500.86,3896.02,2501.51z M3899.27,2493.45h-2.57v1.25c-0.93-1.04-2.09-1.56-3.49-1.56
		c-1.6,0-2.88,0.6-3.85,1.8c-0.9,1.13-1.36,2.51-1.36,4.13c0,1.66,0.49,3.05,1.46,4.16c0.97,1.09,2.2,1.64,3.72,1.64
		c1.33,0,2.5-0.52,3.52-1.56v1.55c0,2.3-0.94,3.46-2.82,3.46c-1.02,0-1.79-0.35-2.33-1.04c-0.23-0.3-0.39-0.72-0.49-1.27h-2.58
		c0.15,1.45,0.72,2.59,1.71,3.41c0.96,0.8,2.18,1.2,3.66,1.2c1.76,0,3.14-0.58,4.14-1.73c0.53-0.6,0.89-1.32,1.07-2.16
		c0.06-0.3,0.11-0.66,0.14-1.05c0.03-0.4,0.05-0.86,0.05-1.39V2493.45z M3877.5,2496.43c0.61-0.65,1.4-0.98,2.38-0.98
		c1,0,1.8,0.33,2.41,0.98c0.6,0.65,0.9,1.51,0.9,2.59c0,1.08-0.3,1.94-0.9,2.59c-0.6,0.65-1.4,0.97-2.41,0.97
		c-1,0-1.8-0.33-2.41-0.98c-0.59-0.65-0.89-1.52-0.89-2.63C3876.59,2497.93,3876.89,2497.09,3877.5,2496.43z M3875.65,2503.16
		c1.12,1.14,2.52,1.71,4.18,1.71c1.68,0,3.1-0.56,4.25-1.68c1.15-1.12,1.72-2.52,1.72-4.18c0-1.65-0.57-3.04-1.71-4.17
		c-1.16-1.13-2.56-1.7-4.22-1.7c-1.65,0-3.05,0.56-4.2,1.69c-1.15,1.12-1.72,2.49-1.72,4.09
		C3873.97,2500.62,3874.53,2502.04,3875.65,2503.16z M3864.64,2486.95v17.61h7.83v-2.5h-5.18v-15.11H3864.64z M3844.13,2504.55h2.58
		v-5.36c0-1.38,0.17-2.35,0.52-2.91c0.36-0.56,0.96-0.84,1.81-0.84c0.78,0,1.32,0.21,1.62,0.64c0.3,0.42,0.46,1.17,0.46,2.27v6.2
		h2.58v-6.81c0-1.57-0.31-2.69-0.94-3.39c-0.72-0.81-1.73-1.22-3.02-1.22c-1.12,0-2.14,0.44-3.03,1.33v-1.03h-2.58V2504.55z
		 M3838.42,2490.02c0.33,0.33,0.72,0.49,1.19,0.49s0.86-0.16,1.17-0.49c0.33-0.33,0.49-0.72,0.49-1.19c0-0.46-0.16-0.86-0.49-1.17
		c-0.33-0.33-0.72-0.49-1.19-0.49c-0.46,0-0.85,0.16-1.17,0.49s-0.49,0.71-0.49,1.16C3837.93,2489.3,3838.09,2489.7,3838.42,2490.02
		z M3838.32,2493.45v11.11h2.57v-11.11H3838.32z M3827.28,2496.46c0.59-0.67,1.33-1,2.21-1c0.94,0,1.7,0.33,2.28,0.99
		c0.58,0.68,0.88,1.54,0.88,2.58c0,1.04-0.29,1.9-0.88,2.58c-0.59,0.65-1.35,0.98-2.3,0.98c-0.89,0-1.63-0.34-2.21-1.01
		c-0.57-0.67-0.86-1.54-0.86-2.6C3826.4,2497.97,3826.7,2497.13,3827.28,2496.46z M3832.49,2494.73c-1.03-1.06-2.19-1.6-3.48-1.6
		c-1.5,0-2.74,0.56-3.74,1.66c-1,1.11-1.49,2.5-1.49,4.16c0,1.7,0.5,3.11,1.49,4.24c1,1.11,2.27,1.66,3.81,1.66
		c1.22,0,2.35-0.49,3.41-1.48v1.16h2.58v-11.11h-2.58V2494.73z M3804.49,2504.55l1.89-10.64l5.06,11.45l5.21-11.44l1.7,10.63h2.73
		l-3.33-18.93l-6.26,13.68l-6.04-13.68l-3.71,18.93H3804.49z"/>
	<g class="st6">
		<defs>
			<rect id="SVGID_3_" x="2875.25" y="1904.94" width="1080" height="650"/>
		</defs>
		<clipPath id="SVGID_4_">
			<use xlink:href="#SVGID_3_"  style="overflow:visible;"/>
		</clipPath>
		<path class="st7" d="M3655.94,2341.54l9.3-2.7l-2.83-7.66c-3.04-8.24-10.67-18.05-29.72-18.05c-9.23,0-16.25,2.2-21.42,5.57
			l0.7-4.04h-15.33l2.66-15.34h-33.07l-2.76,15.34h-7.81l-1.48,8.52c-5.54-6.5-13.92-10.05-23.82-10.05
			c-12.69,0-23.56,5.29-30.56,14.09c0.49-1.39,0.88-2.83,1.14-4.33c1.36-7.61-0.48-14.89-5.18-20.5
			c-4.89-5.84-12.51-9.19-20.91-9.19h-46.25l-0.83,4.7c-0.51-0.92-1.08-1.8-1.76-2.62c-3.23-3.86-8.15-6.07-13.52-6.07
			c-8.82,0-16.56,6.4-18.02,14.89c-0.56,3.19-0.29,6.37,0.72,9.23h-1.52c-3.6,0-6.95,0.45-10.04,1.33h-27.31
			c0.84-1.59,1.45-3.32,1.8-5.16c0.94-5.2-0.36-10.39-3.57-14.23c-3.23-3.86-8.15-6.07-13.52-6.07c-8.82,0-16.56,6.4-18.02,14.89
			c-0.65,3.7-0.19,7.37,1.25,10.57h-1.68h-28.7l-0.06,0.34c-3.19-1.23-6.71-1.87-10.45-1.87c-10.17,0-19.46,5-25.78,13.05l5.8-32.99
			h-34.87l-4.65,26.8l-16.03-26.8h-27.36l-15.25,86.76h34.89l4.58-26.74l16.1,26.74h27.34l2.99-17.02c0.86,2.3,1.96,4.46,3.36,6.4
			l-10.28,24.04l6.77,3.08c8.01,3.64,16.7,5.48,25.84,5.48c22.35,0,32.82-10.48,37.58-21.98h25.44h4.4h28.72l5.03-28.43
			c1.96-2.45,5.96-4.56,10.4-4.63l-5.8,33.07h30.77h2.36h51.58c12.35,0,22.43-5.48,27.79-14.54c0.88,1.61,1.92,3.13,3.13,4.56
			c6.27,7.42,16.42,11.51,28.58,11.51c9.18,0,17.57-2.22,24.94-6.59l5.59-3.31l-4.16-10.44h3.28c0.56,5.61,2.76,9.5,4.87,12
			c3.2,3.8,9.46,8.34,21.09,8.34c5.01,0,9.49-0.9,14.09-2.84l3.81-1.6l0.27-1.5c7.54,4.04,15.68,5.95,25.28,5.95
			c26.18,0,32.82-14.04,34.43-22.33c1.22-5.97,0.39-11.13-2.48-15.33C3657.24,2343,3656.62,2342.24,3655.94,2341.54
			 M3282.73,2348.02c0.46-2.08,1.72-4.55,5.15-4.55c0.34,0,0.62,0.02,0.85,0.06l-0.92,5.01c-2.25,1.58-4.58,1.32-5.13,1.18
			C3282.62,2349.42,3282.57,2348.83,3282.73,2348.02 M3593.56,2349.59c-1.05,0.39-2.07,0.66-3.13,0.84l0.91-5.22h8.7
			c0.17,0.62,0.36,1.21,0.58,1.77L3593.56,2349.59z M3494.67,2335.92l-0.1,0.25l-0.05-0.07L3494.67,2335.92"/>
		<polygon class="st8" points="3254.35,2300.8 3241.77,2372.35 3225.11,2372.35 3200.68,2331.77 3193.73,2372.35 3174.3,2372.35 
			3186.88,2300.8 3203.54,2300.8 3227.87,2341.48 3234.92,2300.8 		"/>
		<path class="st8" d="M3317.94,2322.26l-8.18,46.51c-3.07,17.28-14.21,25.56-32.92,25.56c-9.61,0-17.07-2.25-22.7-4.8l6.03-14.11
			c4.8,3.07,10.84,3.99,15.23,3.99c9.81,0,15.54-4.6,16.87-12.06l0.21-1.33c-4.29,4.19-9.51,6.64-15.64,6.64
			c-13.29,0-22.59-10.63-19.53-27.4c2.56-14.93,14-24.53,26.07-24.53c7.56,0,12.88,3.37,15.74,7.77l1.12-6.24H3317.94z
			 M3294.83,2352.42l2.04-11.14c-1.64-3.68-5.01-5.42-9-5.42c-6.24,0-11.14,3.99-12.57,10.53c-1.12,5.52,1.02,11.04,8.49,11.04
			C3287.68,2357.43,3291.66,2355.9,3294.83,2352.42"/>
		<path class="st8" d="M3337.87,2372.35h-17.69l8.79-50.09h17.68L3337.87,2372.35z M3330.51,2305.4c0.82-4.8,5.32-8.59,10.53-8.59
			c6.54,0,10.73,5.11,9.61,11.35c-0.92,4.91-5.42,8.69-10.63,8.69C3333.58,2316.85,3329.39,2311.73,3330.51,2305.4"/>
		<path class="st8" d="M3393.69,2320.94l-3.27,18.4c-8.59-0.72-16.46,3.78-19.63,9.3l-4.19,23.72h-17.68l8.79-50.09h17.69
			l-1.43,8.07C3379.27,2323.08,3386.43,2320.94,3393.69,2320.94"/>
		<path class="st8" d="M3409.33,2372.35h-17.68l8.79-50.09h17.68L3409.33,2372.35z M3401.97,2305.4c0.82-4.8,5.32-8.59,10.53-8.59
			c6.54,0,10.73,5.11,9.61,11.35c-0.92,4.91-5.42,8.69-10.63,8.69C3405.04,2316.85,3400.84,2311.73,3401.97,2305.4"/>
		<path class="st9" d="M3434.99,2300.8h39.87c12.47,0,20.65,9.3,18.61,20.75c-1.23,6.95-5.62,11.65-11.65,14.52
			c6.64,2.15,11.24,8.89,9.4,18.4c-2.15,11.04-11.35,17.89-23.92,17.89h-44.88L3434.99,2300.8z M3463,2356.82
			c5.21,0,9.1-2.45,9.81-6.75c0.51-3.27-1.12-6.24-6.65-6.24h-19.42l-2.25,12.98H3463z M3464.33,2329.11c5.32,0,9-2.35,9.61-6.75
			c0.51-3.37-1.23-6.13-5.83-6.13h-16.46l-2.25,12.88H3464.33z"/>
		<path class="st9" d="M3529.14,2360.09c5.01,0,9.61-1.23,13.9-3.78l4.8,12.06c-6.03,3.58-13.08,5.52-21.06,5.52
			c-18.71,0-30.05-11.04-27.19-27.91c2.46-14.52,13.9-25.25,30.77-25.25c16.66,0,27.19,12.47,21.37,32.81h-34.66
			C3518.51,2358.25,3523.01,2360.09,3529.14,2360.09 M3536.09,2342.61c0.21-6.13-2.45-8.59-7.05-8.59c-5.11,0-9.2,3.17-11.14,8.59
			H3536.09z"/>
		<path class="st9" d="M3582.3,2352.83c-0.61,3.58,1.12,5.42,5.32,5.42c3.07,0,5.83-0.51,8.59-1.53l-2.66,14.92
			c-3.88,1.64-7.36,2.25-11.14,2.25c-13.08,0-20.34-6.95-18.09-19.93l2.86-16.36h-7.77l2.66-15.33h7.77l2.76-15.33h17.68
			l-2.66,15.33h15.33l-2.66,15.33h-15.33L3582.3,2352.83z"/>
		<path class="st9" d="M3600.91,2366.94l7.57-12.06c5.52,3.89,11.35,5.32,17.58,5.32c5.21,0,8.18-1.02,8.48-2.97
			c0.41-2.15-2.66-2.25-8.59-3.27c-12.68-2.15-20.45-6.24-18.71-16.46c1.53-9.61,10.12-16.77,25.46-16.77
			c14.41,0,20.14,6.44,22.59,13.09l-15.13,4.4c-1.12-3.48-4.6-4.29-8.28-4.29c-4.19,0-6.44,1.23-6.75,3.07
			c-0.31,1.94,1.94,2.56,9.1,3.78c10.73,1.84,21.16,4.4,18.61,16.87c-2.25,11.55-12.68,16.25-26.99,16.25
			C3615.94,2373.89,3608.16,2371.64,3600.91,2366.94"/>
		<path class="st7" d="M3489.94,2162.05c4.22-9.41,5.15-19.44,5.59-29.55c0.12-2.63,0.54-5.27,0.17-8.06
			c-7.82,5.31-12.17,7.24-18.43,8.14c-3.83,0.55-7.67,0.98-11.5,1.54c-2.71,0.39-5.33,1.19-8.24,2.05l0,0
			c0.21-0.35,0.28-0.76,0.24-1.18c-0.04-0.44-0.26-0.81-0.6-1.09c-0.92-0.74-2.7-0.77-3.86-0.96c-6.86-1.13-13.79-1.4-20.74-1.48
			c-4.38-0.06-8.79-0.08-13.17,0.2c-10.84,0.66-21.73,1.86-32.27,4.56c-1.02,0.26-3.36,0.67-4.02,1.41l-0.11,0.14l-0.09,0.15
			l-0.08,0.16l-0.06,0.16l-0.04,0.17l-0.03,0.17l-0.01,0.17l0.01,0.18l0.03,0.17l0.04,0.17l0.06,0.15
			c-0.11-0.07-0.23-0.15-0.36-0.25c-4.85-3.96-10.61-5.8-16.72-6.61c-7.79-1.03-15.17-3.02-21.08-8.63
			c-0.13-0.13-0.39-0.13-0.79-0.25c-2.77,20.51-0.24,39.18,17.05,53.36c-2.9,1.96-5.75,3.93-8.24,6.35
			c-2.46,2.4-4.77,4.92-6.87,8.23h7.55c-2.62,4.28-5.21,8.13-6.57,12.6c-0.21,0.7-0.64,0.64-1.27,0.59
			c-6.15-0.43-9.76,2.29-10.57,8.45c-1.37,10.39,1.66,19.48,8.83,27.12c2.2,2.34,4.92,4.06,8.2,4.32c1.45,0.11,2,0.73,2.56,1.88
			c3.76,7.67,8.77,14.39,15.33,19.91c2.38,2,4.81,3.95,7.72,5.63c-0.28-2.38-1.22-4.36-0.99-6.85c5,4.03,10.78,6.18,16.22,8.98
			c2.39,1.23,4.66,2.65,6.74,4.36c0.88,0.72,1.15,1.31,0.37,2.31c-0.95,1.22-1.71,2.57-2.91,4.4c17.58-2.09,32.74-8.42,46.64-18.59
			c-0.42,1.98-0.81,3.79-1.29,6.01c11.44-6.3,20.08-14.82,26.37-26.43c0.59,2.44,0.57,4.27,0.63,6.12
			c9.79-12.73,14-27.04,12.3-43.32c3.39,1.59,6.05,3.62,9.12,5.64c-1.1-9.25-4.56-17.17-9.33-24.82c3.17-0.19,5.92,1,9.18,1.87
			c-3.63-5.56-8.23-9.65-13.15-13.73C3483.24,2173.8,3487.12,2168.34,3489.94,2162.05"/>
		<path class="st7" d="M3362.25,2094.75c0.09,1.21,0.65,2.44,1.59,3.23l0.18,0.14l0.18,0.13l0.19,0.12l0.2,0.11l0.2,0.1l0.21,0.09
			l0.21,0.08l0.21,0.07l0.22,0.06l0.22,0.05l0.22,0.04l0.22,0.03l0.23,0.02l0.23,0.01l0.22-0.01l0.23-0.02
			c0.2-0.02,0.4-0.04,0.6-0.08c0.96,1.43,1.9,2.87,2.81,4.33c0.91,1.46,1.79,2.94,2.64,4.43c0.85,1.49,1.67,3,2.47,4.53
			c0.79,1.52,1.56,3.07,2.3,4.62c2.79,5.83,5.17,11.79,6.68,18.09c1.09-0.22,2.17-0.55,3.25-0.82c2.36-0.58,4.76-1.12,7.15-1.57
			c8.41-1.57,16.92-2.3,25.46-2.79c4-0.2,8.01-0.28,12.02-0.23c4.01,0.04,8.01,0.21,12.01,0.51c2.23,0.2,4.46,0.45,6.69,0.75
			c1.39,0.19,2.82,0.5,4.22,0.57c0.21-1.32,0.45-2.62,0.71-3.93c0.26-1.31,0.54-2.61,0.85-3.9c0.31-1.3,0.64-2.59,0.99-3.87
			c0.35-1.28,0.73-2.56,1.13-3.83c0.4-1.27,0.82-2.53,1.27-3.79c0.45-1.26,0.91-2.5,1.4-3.74c0.49-1.24,1-2.47,1.54-3.69
			s1.09-2.43,1.67-3.63c1.11-2.33,2.42-4.55,3.59-6.85c1.64-0.05,2.94-0.27,4.12-1.52l0.15-0.17l0.14-0.18l0.14-0.18l0.12-0.19
			l0.12-0.2l0.11-0.2l0.1-0.21l0.09-0.21l0.08-0.21l0.07-0.22l0.05-0.22l0.04-0.22l0.03-0.22l0.02-0.23l0.01-0.23l0-0.23
			c-0.04-1.26-0.59-2.53-1.52-3.38c-0.92-0.85-2.18-1.36-3.43-1.3l-0.23,0.02l-0.23,0.03l-0.23,0.04l-0.22,0.05l-0.22,0.06
			l-0.22,0.07l-0.21,0.08l-0.21,0.09l-0.2,0.1l-0.2,0.11l-0.19,0.12l-0.19,0.13l-0.18,0.14l-0.17,0.15L3466,2086l-0.16,0.17
			l-0.16,0.18l-0.15,0.19l-0.14,0.2l-0.13,0.21l-0.12,0.21l-0.11,0.22l-0.09,0.22l-0.08,0.23l-0.07,0.23l-0.06,0.23l-0.05,0.24
			l-0.04,0.24l-0.02,0.24l-0.01,0.24l0,0.24l0.01,0.24c0.1,1.52,0.65,2.46,1.78,3.44c-1.53,1.35-2.86,2.91-4.39,4.26
			c-4.46,3.97-11.75,8.89-17.97,8.5c-4.33-0.27-7.96-2.81-10.74-5.99c-2.74-3.14-4.81-6.89-6.69-10.58
			c-1.37-2.68-2.65-5.4-3.82-8.16c-1.18-2.77-2.25-5.57-3.23-8.42c-0.54-1.54-1.31-3.16-1.56-4.78c1.45-0.58,2.6-1.42,3.24-2.89
			l0.09-0.24l0.08-0.24l0.07-0.25l0.06-0.25l0.05-0.25l0.03-0.26l0.02-0.25l0.01-0.26l0-0.26l-0.02-0.26l-0.03-0.26l-0.04-0.25
			l-0.06-0.25l-0.07-0.25l-0.08-0.24l-0.09-0.24c-0.49-1.21-1.42-2.22-2.63-2.73c-0.82-0.35-1.84-0.52-2.72-0.42
			c-1.4,0.21-2.6,0.81-3.45,1.98c-0.83,1.14-1.13,2.68-0.9,4.05c0.22,1.29,1.01,2.57,2.09,3.32c0.58,0.41,1.25,0.65,1.95,0.8
			c-0.48,2.11-0.93,4.22-1.46,6.32c-0.38,1.49-0.83,2.96-1.25,4.44c-1.34,4.69-2.83,9.28-4.8,13.75c-0.7,1.6-1.42,3.21-2.27,4.74
			c-0.65,1.18-1.39,2.29-2.15,3.41c-1.56,2.29-3.31,4.46-5.69,5.95c-3.21,2-6.83,2.45-10.49,1.59c-5.39-1.27-10.55-4.41-14.75-7.95
			c-0.92-0.77-1.93-1.61-2.69-2.54c0.95-0.99,1.47-2.14,1.43-3.53l-0.01-0.23l-0.03-0.23l-0.04-0.23l-0.05-0.23l-0.06-0.23
			l-0.07-0.22l-0.08-0.22l-0.09-0.22l-0.1-0.21l-0.11-0.21l-0.12-0.2l-0.13-0.19l-0.14-0.19l-0.15-0.18l-0.16-0.17l-0.17-0.16
			l-0.17-0.15l-0.18-0.14l-0.18-0.13l-0.19-0.12l-0.2-0.11l-0.2-0.1l-0.21-0.09l-0.21-0.08l-0.22-0.07l-0.22-0.06l-0.22-0.05
			l-0.22-0.04l-0.22-0.03l-0.23-0.02l-0.23-0.01l-0.23,0.01c-1.22,0.07-2.44,0.62-3.25,1.55l-0.15,0.18l-0.14,0.19l-0.13,0.19
			l-0.12,0.2l-0.11,0.2l-0.1,0.21l-0.09,0.21l-0.08,0.22l-0.07,0.22l-0.06,0.23l-0.04,0.23l-0.03,0.23l-0.02,0.23l-0.01,0.23l0,0.23
			L3362.25,2094.75 M3416.97,2104.95c0.48-1.23,0.91-2.47,1.43-3.69c0.39,0.46,0.9,1.68,1.19,2.26l2.86,5.59
			c0.7,1.37,1.56,2.75,2.12,4.17c-0.4,1.22-0.97,2.42-1.44,3.62l-3.47,8.57c-0.06-0.06-6.04-11.38-6.15-11.75L3416.97,2104.95z"/>
		<path class="st7" d="M3441.8,2102.8c2.87,0.77,5.47,0.38,8.16-0.79c-2.66-6.88-4.57-12.48-3.87-19.99
			c1.47,0.1,2.72-0.03,3.88-1.03c0.96-0.83,1.49-2.01,1.58-3.26l0.01-0.24v-0.24l-0.01-0.24l-0.02-0.24l-0.03-0.23l-0.05-0.23
			l-0.06-0.23l-0.07-0.22l-0.08-0.22l-0.09-0.22l-0.1-0.21l-0.11-0.21l-0.12-0.2l-0.13-0.2l-0.14-0.19l-0.15-0.18l-0.16-0.17
			l-0.17-0.16l-0.17-0.15l-0.18-0.14l-0.19-0.13l-0.19-0.12l-0.2-0.11l-0.21-0.1l-0.21-0.09l-0.21-0.08l-0.22-0.07l-0.22-0.06
			l-0.23-0.05l-0.23-0.04l-0.23-0.03l-0.23-0.02c-0.29-0.01-0.6-0.01-0.89,0.04c-1.28,0.27-2.43,0.85-3.16,1.99
			c-0.69,1.07-0.88,2.47-0.6,3.71l0.05,0.21l0.06,0.21l0.07,0.2l0.08,0.2l0.09,0.2l0.1,0.19l0.1,0.19l0.11,0.18l0.12,0.18l0.13,0.17
			l0.14,0.17l0.14,0.16l0.15,0.15l0.16,0.15l0.16,0.14l0.17,0.13c-0.48,0.9-0.92,1.81-1.41,2.7c-1.25,2.24-2.64,4.47-4.08,6.6
			c-1.44,2.11-3.01,4.12-4.52,6.18C3435.59,2098.99,3439.37,2102.02,3441.8,2102.8"/>
		<path class="st7" d="M3382.99,2080.77l0.03,0.23c0.18,1.17,0.82,2.29,1.79,2.98c1.21,0.87,2.41,0.94,3.84,0.83
			c1.1,5.48,0.9,12.24-0.78,17.59c-0.29,0.94-0.69,1.8-1.08,2.7c3.3,1.08,6.3,1.05,9.44-0.54l0.12-0.06
			c2.12-1.17,3.79-2.53,5.16-4.55c0.38-0.56,0.78-1.18,1.04-1.81c-0.59-0.51-1.17-1.03-1.74-1.56c-0.57-0.53-1.13-1.08-1.68-1.63
			c-0.55-0.55-1.09-1.12-1.61-1.7c-0.53-0.58-1.04-1.16-1.54-1.76c-0.5-0.6-0.99-1.2-1.47-1.82c-0.48-0.62-0.95-1.24-1.4-1.87
			c-0.45-0.63-0.9-1.28-1.33-1.93c-0.43-0.65-0.85-1.31-1.25-1.98c0.95-0.8,1.56-1.9,1.66-3.15l0.01-0.24v-0.24l-0.01-0.24
			l-0.02-0.24l-0.03-0.24l-0.05-0.23l-0.06-0.23l-0.07-0.23l-0.08-0.23l-0.09-0.22l-0.1-0.22l-0.11-0.21l-0.12-0.21l-0.13-0.2
			l-0.14-0.19l-0.15-0.18c-0.8-0.93-1.88-1.46-3.1-1.55c-0.33-0.02-0.7-0.03-1.02,0.02c-1.22,0.18-2.26,0.74-3,1.75l-0.13,0.2
			l-0.12,0.2l-0.11,0.21l-0.1,0.21l-0.09,0.22l-0.08,0.22l-0.07,0.22l-0.06,0.23l-0.05,0.23l-0.04,0.23l-0.03,0.23l-0.02,0.24
			l0,0.24l0.01,0.24L3382.99,2080.77"/>
		<polyline class="st8" points="3431.85,2142.12 3431.92,2141.91 3431.82,2142.09 3431.85,2142.12 		"/>
		<polyline class="st8" points="3441.8,2153.01 3441.99,2152.81 3441.94,2152.93 3441.77,2152.98 3441.8,2153.01 		"/>
		<polyline class="st8" points="3397.21,2259.54 3397.03,2259.28 3397.29,2259.46 3397.21,2259.54 		"/>
		<path class="st10" d="M3396.65,2189.09c-0.15-0.12-0.35-0.24-0.08-0.42c0.02-0.02,0.17,0.15,0.27,0.23L3396.65,2189.09"/>
		<path class="st10" d="M3432.81,2257.64c-0.05,0.13-0.11,0.26-0.16,0.39c-0.26-0.24,0.07-0.28,0.14-0.41L3432.81,2257.64"/>
		<path class="st9" d="M3432.81,2257.64c7.72-7.27,14.49-15.16,16.96-25.86c0.19-0.83,0.38-1.65,0.66-2.82
			c2.07,3.08,2.92,6.34,4.18,9.89c3.04-6.03,4.53-12.01,5.01-18.24c0.33-4.18,0.07-8.35-0.87-12.46c-0.15-0.64-0.85-1.42,0.07-1.87
			c0.79-0.39,1.44,0.26,1.99,0.83c2.45,2.56,4.7,5.28,6.97,8.62c0.28-10.86-3.14-20.15-8.69-29.05c2.87-0.24,4.76,1.82,7.52,2.26
			c-1.37-1.97-2.53-3.62-3.81-5.46c3.15-0.99,6.27-1.76,9.29-2.51c2.27-0.56,4.36,1.91,6.65,3.55c-2.3,1.04-4.5,0.21-6.35,1.4
			c4.84,5.7,9.63,11.39,11.81,19.16c-3.09-1.03-5.64-2.42-8.62-2.62c4.2,12.92,2.28,25.15-3.29,37.71
			c-1.24-2.91-1.96-5.41-3.86-7.66c-2.58,12.37-9.71,21.53-18.94,29.82c-0.33-3.11,0.9-5.84,0.14-9.04
			c-9.95,13.25-24.04,19.4-39.41,24.86c2.31-4.12,3.73-7.82,3.26-11.99c-0.14-1.23-0.16-2.47-0.84-3.58
			c-0.84,0.3-0.65,1.05-0.81,1.61c-1.09,3.94-2.9,7.49-5.61,10.56c-0.92,1.03-1.72,1.55-3.1,0.35c-4.15-3.62-9.19-5.77-14.14-8.04
			c-3.02-1.39-5.88-3.02-8.54-5.04c-2.39-1.82-4.12-4.09-5.16-6.9c0.54-0.64,1.01-0.09,1.47,0.04c3.11,0.85,6.14,1.9,9.42,2.19
			c2.85,0.25,5.07,2.03,7.08,4c1.4,1.36,2.82,2.71,4.33,4.16c0.76-2.08-0.34-4-0.36-5.96l0.08-0.08c4.09,1.15,5.87,4.63,8.1,8.46
			c1.36-6.16,6.64-7.63,10.64-10.51c2.16-1.55,4.08-3.38,6.03-5.41c0.71,1.64-0.2,3.07-0.06,4.82c5.21-2.95,9.16-6.83,12.35-12.14
			c1.02,4.84-0.19,8.9-1.56,12.94c-0.07,0.13-0.4,0.17-0.14,0.41C3432.7,2257.9,3432.75,2257.77,3432.81,2257.64"/>
		<path class="st9" d="M3370.07,2179.08c-0.38-0.37-0.92-0.11-1.33,0.07c-2.94,1.26-5.87,2.57-8.49,4.43
			c-1.3,0.92-2.65,1.82-4.1,3.57h8.13c-5.82,5.71-10.41,11.45-12.69,18.71v0c-0.15,0.17-0.31,0.35-0.03,0.52
			c0.06,0.04,0.23-0.1,0.35-0.16c1.56,0.03,2.84-0.85,4.26-1.28c2.33-0.71,3.44-2.09,3.9-4.62c0.85-4.73,3.16-8.86,6.43-12.44
			c0.82-0.89,2.47-1.65,1.98-2.92c-0.35-0.93-2-0.05-3.04-0.31c-0.12-0.03-0.23-0.11-0.62-0.3c2.16-0.83,4.07-1.76,5.03-3.81
			C3370.06,2180.09,3370.59,2179.59,3370.07,2179.08"/>
		<path class="st9" d="M3397.35,2141.91c-0.02-1.54,0.1-3.02,0.32-4.45c-3.19,0.57-5.7,1.11-7.43,1.52
			c-3.76,5.39-6.38,11.44-7.77,18.19c-0.82,3.96-0.8,4.04,2.99,6.65c1.2-7.77,2.77-15.34,7.78-22.06c0.39,4.56,0.91,8.71,2.84,13.08
			c4.41-8.2,9.82-14.99,18.02-19.48c-3.82,0.31-7.3,0.72-10.41,1.15C3401.49,2138.13,3399.38,2139.92,3397.35,2141.91"/>
		<path class="st9" d="M3429.37,2134.72c-2.97,0.72-5.91,1.66-8.83,2.91c0.4-0.95,0.84-1.86,1.3-2.75c-2.02,0.08-3.97,0.2-5.85,0.33
			c-2.68,4.47-4.31,9-5.22,14.33c4.07-2.95,7.76-5.52,11.94-7.18c4.2-1.66,8.5-2.98,13.57-3.11c-2.4,3.02-4.8,5.44-5.88,9.11
			c3.23-0.51,6.25-1.53,9.27-1.03c4.4,0.72,5.74-2.81,8.42-5.09c-2.36-0.48-4.25,0.18-6.42,0.1c1.72-2.73,3.87-4.79,6.3-6.75
			C3441.4,2134.96,3435.17,2134.7,3429.37,2134.72"/>
		<path class="st8" d="M3367.65,2244.45c8.55-0.62,16.46,1.28,24.26,3.94c2.23,0.76,4.51,1.4,6.93,0.93
			c5.31-1.02,8.12-4.84,10.24-9.3c1.36-2.85,2.17-5.9,2.48-9.06c0.05-0.53,0.12-1.08,0.69-1.5c2.08,4.1,0.93,8.01-0.58,11.86
			c-1.07,2.73-2.75,5.11-4.53,7.44c-4.02,5.25-9.31,5.32-15.1,4.02c-7.62-1.7-15.07-3.88-22.3-6.82
			C3369.02,2245.67,3368.27,2245.37,3367.65,2244.45"/>
		<path class="st11" d="M3408.19,2221.85c0.19,6.49-0.76,12.66-3.99,18.26c-2.89,5.02-6.5,6.06-11.77,3.64
			c-0.86-0.4-1.09-0.72-0.39-1.48c1.54-1.68,2.97-3.47,4.57-5.09c4.02-4.04,7.55-8.43,10.31-13.43
			C3407.29,2223.09,3407.77,2222.48,3408.19,2221.85"/>
		<path class="st8" d="M3370.98,2260.68c-2.84-2.25-5.08-5.27-7.35-8.24c-1.34-1.74-2.48-3.64-3.62-5.52
			c-0.44-0.73-1.32-1.77-0.44-2.42c0.8-0.6,1.52,0.51,2.08,1.11c1.51,1.63,3.11,3.25,5.09,4.17
			C3371.61,2252.04,3374.04,2255.15,3370.98,2260.68"/>
		<path class="st8" d="M3373.29,2193.69c-3.28,3.16-6.4,5.35-9.72,7.28c-1.02,0.59-1.6,0.19-1.26-0.92
			c0.96-3.16,2.37-6.13,4.19-8.88c0.81-1.23,1.86-2.3,2.88-3.38c0.6-0.63,1.57-1.3,2.08-0.16c0.38,0.85,1.82,1.95,0.19,3.01
			c-1.63,1.05-3.29,2.05-5.28,3.29C3368.72,2194.48,3370.68,2194.06,3373.29,2193.69"/>
		<path class="st8" d="M3375.17,2177.79c1.36,0.63,1.31,1.59,1.11,2.66c-0.53,2.83-0.91,5.65,1.54,7.91
			c0.66,0.61,0.13,0.92-0.3,1.29c-0.67,0.57-1.33,0.9-2.02,0.05c-0.92-1.13-1.46-2.4-1.55-3.87
			C3373.78,2183.12,3374.15,2180.51,3375.17,2177.79"/>
		<path class="st11" d="M3377.96,2181.44c0.88,1.23,1.78,2.45,2.65,3.7c0.25,0.36,0.75,0.81,0.37,1.24
			c-0.37,0.42-1.02,0.39-1.55,0.22c-1.1-0.35-1.58-1.25-1.76-2.29c-0.14-0.88-0.13-1.78-0.19-2.67
			C3377.64,2181.57,3377.8,2181.5,3377.96,2181.44"/>
		<path class="st11" d="M3425.18,2174.91c-0.67-1.23-1.25-1.45-2.4-0.76c-1.11,0.67-3.38,1.16-1.43,3.35
			c-1.16,0.21-2.16,0.68-1.88,2.07c0.33,1.68,1.63,1.54,2.9,1.29c0.06,2.33-1.17,3.83-3.16,4.78c-1.69,0.8-3.18,0.35-4.59-0.79
			c-0.51-0.42-0.99-1.97-1.86-0.64c-0.61,0.93-2.07,1.9-0.68,3.46c3.92,4.43,10.94,3.69,13.69-1.54
			C3427.79,2182.28,3427.18,2178.58,3425.18,2174.91"/>
		<path class="st8" d="M3348.24,2132.71c-1.39,0.62-4.38,29.34,20.74,42.68c0,0,2.06-1.43,0.63-2.74c-1.42-1.32-3.9-3.38-4.27-3.54
			c-0.37-0.16-1.85-0.21-1.85-0.21c0-0.58,0.11-1.05,0.11-1.05l-0.16-0.53c0,0-5.7-3.8-7.02-9.13c0,0,4.06,6.49,7.54,7.81
			c0,0,1.27,0.05,1.32-0.84c0.05-0.9-8.92-6.38-10.5-13.82c0,0,5.17,10.71,12.5,10.24c0,0-11.45-7.91-13.24-15.62
			c0,0,3.96,6.49,10.13,8.1c0,0-9.18-6.09-12.24-13.95c0,0,0.99,1.54,12.82,5.12c11.87,3.59,12.98,9.45,12.98,9.45l3.38-9.29
			c0,0-2.8-5.91-15.25-7.18C3353.41,2136.94,3349.94,2131.96,3348.24,2132.71"/>
		<polygon class="st8" points="3431.82,2142.09 3431.8,2142.13 3431.85,2142.12 		"/>
		<path class="st8" d="M3489.55,2133.52c-5.71,3.11-12.04,3.71-18.31,4.2c-12.88,1.02-22.46,6.68-28.01,18.62
			c-2.04,4.4-2.14,4.35,1.12,8.07l0.16,0.18c0.75,1.14,2.28,2.11,1.47,3.69c-0.81,1.59-2.54,1.23-4.02,1.33
			c-0.93,0.06-1.89-0.73-2.75-0.02c-2.67,2.19-5.51,4.12-8.75,5.68c8.09,4.95,10.78,7.26,11.54,10.15
			c-3.21-1.17-5.98-3.14-9.51-3.43c5.37,6.35,6.47,8.66,5.45,12.1c-0.69-0.89-1.15-1.61-1.74-2.22c-0.6-0.62-1.32-1.12-1.98-1.68
			c-2.75-2.27-3.54-2.21-5.6,0.63c-3.55,4.88-8.8,5.11-13.45,2.9c-1.52-0.73-2.94-1.12-4.51-0.9c-2.57,0.37-5.11,0.91-7.57,1.77
			c-1.63,0.56-3.3,1.02-5.46,1.68c1.75-2,3.92-2.4,5.5-4.11c-2.54-0.62-5.23-0.45-6.48-3.05c-0.15-0.12-0.35-0.24-0.08-0.42
			c0.02-0.02,0.17,0.15,0.27,0.23c2.42,0.71,4.52,0.34,6.59-1.28c2.79-2.19,4.65-5.08,6.64-7.9c6.18-8.74,14.46-13.63,25.36-13.59
			c1.84,0.01,3.67,0,5.72,0c-3.96-4.36-8.68-6.85-13.86-8.65c-1.24-0.43-2.27-0.39-3.36,0.26c-3.25,1.95-6.46,3.97-9.78,5.78
			c-3.99,2.17-6.86,5.2-8.35,9.53c-0.61,1.77-1.89,3.26-2.21,5.18c-0.07,0.39-0.4,1.18-1.08,0.94c-0.63-0.22-0.62-0.86-0.35-1.41
			c1.1-2.23,1.08-4.75,1.85-7.04c0.8-2.39,0.62-5.26,3.11-6.93c5.35-3.58,10.82-6.98,16.39-10.22c1.03-0.6,1.99-0.63,3.14-0.25
			c4.21,1.39,8.34,2.91,11.92,5.6c0.7,0.53,1.31,0.76,1.51-0.33c0.35-1.93,1.55-3.59,1.7-5.57c-1.33,0.7-1.93,2.18-3.22,3.21
			c-0.32-1.9,0.87-3.11,1.39-4.53c0.26-0.7,1.21-1.37,0.59-2.1c-0.51-0.6-1.51-0.34-2.26-0.21c-3.02,0.49-6.1,0.66-9.04,1.59
			c-1.29,0.41-1.69,0.04-1.28-1.38c0.79-2.76,2.23-5.16,3.86-7.47c-6,0.4-11.03,3.23-15.92,6.39c-2.37,1.53-4.73,3.09-7.24,4.73
			c-0.21-3.67,0.67-6.96,1.65-10.19c0.78-2.64,2.52-5.1,2.52-5.1c-1.22,0.81-2.71,2.08-3.69,2.94c-0.12,0.11-0.25,0.22-0.37,0.33
			c-0.4,0.36-0.67,0.61-0.67,0.61l0.02,0.01c-3.21,2.96-5.97,6.29-8.19,10.07c-1.3,2.21-2.57,4.43-3.99,6.87
			c-2.13-3.36-3.18-6.92-4.38-10.47c-4.72,10.25-4.88,20.9-3.47,31.75c-1.8-3.14-2.55-6.6-3.45-9.99c-0.2-0.76-0.25-1.56-0.88-2.15
			c-2.14-1.98-4.26-3.99-6.44-5.93c-0.92-0.81-1.98-1.22-3.26-0.62c-2.92,1.37-4.93,3.73-7.52,6.17c3.35,0.24,5.74,1.4,7.93,2.99
			c2.9,2.11,4.57,5.15,6.29,8.18c2.13,3.77,3.71,8.02,8.66,9.78c-6.76,1.27-7.43,1.71-12.56,7.37c-5.05,5.57-10.98,9.94-17.94,12.85
			c-1.12,0.47-2.27,0.89-3.88,1.52c4.08,2.25,8.1,1.99,12.01,2.25c-0.13,0.62-0.49,0.55-0.76,0.59c-6.56,1.11-12.88,0.44-18.9-2.53
			c-4.46-2.2-6.92-1.08-7.62,3.91c-1.03,7.35,0.97,14.03,5.14,20.11c2.73,3.98,6.29,5.84,11.3,5.16c7.77-1.05,15.6-0.73,23.38,0.09
			c2.91,0.31,5.06-0.7,6.74-2.97c2.33-3.14,4.07-6.6,4.98-10.38c0.9-3.75,0.91-7.52-1.12-11.02c-1.67-2.89-3.18-3.56-6.45-2.9
			c-2.41,0.48-4.63,1.53-6.92,2.38c-2.49,0.92-5.01,1.76-7.52,2.63c3.93-3.12,7.84-6.13,12.25-8.35c4.43-2.23,8.46-1.35,11.53,2.6
			c2.17,2.79,3.54,5.94,3.75,9.53c0.04,0.75-0.24,1.79,0.63,2.1c0.73,0.26,1.15-0.67,1.67-1.12c5.37-4.5,11.07-8.41,18.11-9.77
			c2.51-0.49,5.09-0.66,7.91-1.02c-2.73-3.94-6.18-6.76-10.45-9.04c6.27-0.38,15.65,7.46,18.27,13.84
			c-0.22,0.05-0.44,0.15-0.65,0.15c-0.39,0.01-0.79,0-1.18-0.07c-5.65-1.06-10.92,0.4-16.15,2.32c-1.32,0.49-1.7,1.03-0.92,2.39
			c1.47,2.54,2.42,5.31,2.99,8.18c0.39,1.95,0.52,3.95,0.8,6.16c6.66-2.99,12.82-6.23,17.86-11.3c2.93-2.95,2.95-2.93,4.53,0.74
			c0.05,0.11,0.25,0.16,0.47,0.3c0.16-0.25,0.42-0.48,0.46-0.75c0.84-5.42,1.64-10.85,2.47-16.27c0.17-1.12-0.58-2.94,0.5-3.22
			c1.22-0.32,1.96,1.52,2.96,2.35c0.17,0.15,0.25,0.4,0.4,0.58c2.16,2.59,3.35,5.73,4.98,8.67c1.53-7.87,0.85-15.27-4.44-21.88
			c1.13,0.1,1.99,0.38,2.87,0.65c1.34,0.41,1.92,0.24,1.5-1.43c-0.43-1.68-0.47-3.47,0.29-5.1c0.84-1.83,0.19-3.12-1.13-4.4
			c-1.76-1.72-3.42-3.55-5.63-5.88c2.31,0.31,3.89,0.51,5.39,0.71c1.03-3-0.54-4.66-2.99-5.83c-1.54-0.74-1.65-2.03-1.29-3.4
			c0.58-2.21,1.12-4.44,1.96-6.56c3.46-8.73,9.35-14.9,18.86-16.79c6.45-1.28,13.06-1.93,18.96-6.12
			c-2.85,9.2-10.23,12.1-17.93,14.63c5.16-0.27,9.62-2.46,14.55-5.21c-3.22,8.05-9.22,12.05-16.38,15.18
			c3.02,0.37,5.53-0.78,8.83-0.68c-7.42,5.82-15.14,8.39-23.91,7.48c2.1,2.25,4.04,4.29,5.94,6.36c0.54,0.59,1.18,0.76,1.92,0.66
			c7.21-0.9,13.87-3.11,19.01-8.52c9.62-10.12,11.24-22.99,12.14-36.07C3491.1,2133.09,3490.38,2133.07,3489.55,2133.52
			 M3348.37,2224.56c-0.14,2.82,1.32,5.11,2.42,7.9c-1.93-0.6-3.14-1.73-4.17-3.02c-2.67-3.36-3.56-7.27-3.33-11.49
			c0.03-0.54,0.06-1.18,0.64-1.4c0.5-0.19,0.86,0.29,1.19,0.61c3.28,3.14,6.89,5.9,10.77,9.09
			C3353.03,2226.15,3350.9,2224.86,3348.37,2224.56 M3382.69,2219.5c1.24-0.26,1.9,0.19,2.33,1.35c2.06,5.48-1.98,11.46-8.45,11.54
			c2.03-1.61,3.37-3.26,3.92-5.42c0.63-2.47,0.32-2.84-2.15-2.21c-2.73,0.7-5.45,1.45-8.17,2.18c-0.07-0.22-0.14-0.43-0.21-0.65
			C3373.93,2223.55,3377.76,2220.55,3382.69,2219.5"/>
		<polygon class="st8" points="3441.77,2152.98 3441.76,2153.03 3441.8,2153.01 		"/>
	</g>
</g>
<g>
	<defs>
		<rect id="SVGID_5_" x="3975.25" y="1904.94" width="1080" height="650"/>
	</defs>
	<clipPath id="SVGID_6_">
		<use xlink:href="#SVGID_5_"  style="overflow:visible;"/>
	</clipPath>
	<rect x="3975.25" y="2478.17" class="st12" width="1080" height="36.77"/>
	<path class="st13" d="M5005.54,2496.43c0.61-0.65,1.4-0.98,2.38-0.98c1,0,1.8,0.33,2.41,0.98c0.6,0.65,0.9,1.51,0.9,2.59
		c0,1.08-0.3,1.94-0.9,2.59c-0.6,0.65-1.4,0.97-2.41,0.97c-1,0-1.8-0.33-2.41-0.98c-0.59-0.65-0.89-1.52-0.89-2.63
		C5004.63,2497.93,5004.93,2497.09,5005.54,2496.43z M5003.69,2503.16c1.12,1.14,2.52,1.71,4.18,1.71c1.68,0,3.1-0.56,4.25-1.68
		c1.15-1.12,1.72-2.52,1.72-4.18c0-1.65-0.57-3.04-1.71-4.17c-1.16-1.13-2.56-1.7-4.22-1.7c-1.65,0-3.05,0.56-4.2,1.69
		c-1.15,1.12-1.72,2.49-1.72,4.09C5002,2500.62,5002.56,2502.04,5003.69,2503.16z M4996.03,2501.51c-0.57,0.71-1.35,1.07-2.33,1.07
		s-1.75-0.35-2.3-1.06c-0.51-0.65-0.76-1.47-0.76-2.49c0-1.03,0.25-1.86,0.76-2.51c0.56-0.72,1.33-1.08,2.3-1.08
		c0.91,0,1.66,0.33,2.25,0.99c0.58,0.65,0.87,1.51,0.87,2.59C4996.82,2500.03,4996.56,2500.86,4996.03,2501.51z M4999.28,2493.45
		h-2.57v1.25c-0.93-1.04-2.09-1.56-3.49-1.56c-1.6,0-2.88,0.6-3.85,1.8c-0.91,1.13-1.36,2.51-1.36,4.13c0,1.66,0.49,3.05,1.46,4.16
		c0.96,1.09,2.2,1.64,3.72,1.64c1.33,0,2.5-0.52,3.52-1.56v1.55c0,2.3-0.94,3.46-2.82,3.46c-1.02,0-1.79-0.35-2.33-1.04
		c-0.23-0.3-0.39-0.72-0.49-1.27h-2.58c0.15,1.45,0.72,2.59,1.71,3.41c0.96,0.8,2.18,1.2,3.66,1.2c1.76,0,3.14-0.58,4.14-1.73
		c0.53-0.6,0.89-1.32,1.07-2.16c0.06-0.3,0.11-0.66,0.14-1.05c0.03-0.4,0.05-0.86,0.05-1.39V2493.45z M4977.51,2496.43
		c0.61-0.65,1.4-0.98,2.38-0.98c1,0,1.8,0.33,2.41,0.98c0.6,0.65,0.9,1.51,0.9,2.59c0,1.08-0.3,1.94-0.9,2.59
		c-0.6,0.65-1.4,0.97-2.41,0.97c-1,0-1.8-0.33-2.41-0.98c-0.59-0.65-0.89-1.52-0.89-2.63
		C4976.6,2497.93,4976.91,2497.09,4977.51,2496.43z M4975.67,2503.16c1.12,1.14,2.52,1.71,4.19,1.71c1.68,0,3.1-0.56,4.25-1.68
		c1.15-1.12,1.72-2.52,1.72-4.18c0-1.65-0.57-3.04-1.71-4.17c-1.16-1.13-2.56-1.7-4.22-1.7c-1.65,0-3.05,0.56-4.2,1.69
		c-1.15,1.12-1.72,2.49-1.72,4.09C4973.98,2500.62,4974.54,2502.04,4975.67,2503.16z M4964.65,2486.95v17.61h7.83v-2.5h-5.18v-15.11
		H4964.65z M4946.35,2497.5c0.08-0.32,0.21-0.6,0.36-0.86c0.16-0.25,0.35-0.47,0.58-0.64c0.22-0.18,0.47-0.32,0.75-0.41
		c0.27-0.09,0.57-0.14,0.88-0.14c1.37,0,2.23,0.68,2.59,2.05H4946.35z M4954.15,2499c0-1.83-0.47-3.26-1.41-4.3
		c-0.95-1.04-2.24-1.56-3.88-1.56c-1.62,0-2.92,0.54-3.9,1.61c-0.97,1.09-1.46,2.51-1.46,4.26c0,1.77,0.5,3.19,1.51,4.26
		c1,1.06,2.33,1.6,3.99,1.6c0.58,0,1.11-0.06,1.61-0.18s0.95-0.31,1.38-0.58c0.43-0.26,0.82-0.6,1.2-1c0.37-0.41,0.73-0.9,1.06-1.47
		l-2.17-1.21c-0.52,0.82-0.99,1.38-1.4,1.69c-0.42,0.3-0.95,0.46-1.58,0.46c-0.82,0-1.49-0.27-2.02-0.8
		c-0.52-0.54-0.82-1.27-0.89-2.18h7.96L4954.15,2499z M4925.56,2504.55h2.57v-5.74c0-1.16,0.17-2.01,0.5-2.55
		c0.33-0.54,0.86-0.81,1.58-0.81c1.14,0,1.71,0.99,1.71,2.96v6.13h2.58v-5.74c0-1.18,0.16-2.03,0.48-2.57
		c0.32-0.53,0.84-0.8,1.54-0.8c0.61,0,1.04,0.22,1.31,0.67c0.26,0.44,0.39,1.19,0.39,2.26v6.17h2.58v-6.86
		c0-3.03-1.25-4.55-3.75-4.55c-1.38,0-2.47,0.55-3.27,1.64c-0.73-1.09-1.72-1.64-2.98-1.64c-0.56,0-1.03,0.1-1.4,0.29
		c-0.35,0.18-0.77,0.53-1.27,1.05v-1.03h-2.57V2504.55z M4914.52,2496.46c0.59-0.67,1.33-1,2.21-1c0.93,0,1.69,0.33,2.28,0.99
		c0.58,0.68,0.88,1.54,0.88,2.58c0,1.04-0.29,1.9-0.88,2.58c-0.59,0.65-1.35,0.98-2.3,0.98c-0.89,0-1.63-0.34-2.21-1.01
		c-0.57-0.67-0.86-1.54-0.86-2.6C4913.64,2497.97,4913.94,2497.13,4914.52,2496.46z M4919.73,2494.73c-1.03-1.06-2.19-1.6-3.48-1.6
		c-1.5,0-2.74,0.56-3.74,1.66c-1,1.11-1.49,2.5-1.49,4.16c0,1.7,0.5,3.11,1.49,4.24c1,1.11,2.27,1.66,3.81,1.66
		c1.22,0,2.35-0.49,3.41-1.48v1.16h2.58v-11.11h-2.58V2494.73z M4894.75,2504.55v-12.33l12.84,13.4v-18.68h-2.66v12.24l-12.84-13.43
		v18.8H4894.75z"/>
	<g class="st14">
		<defs>
			<rect id="SVGID_7_" x="3975.25" y="1904.94" width="1080" height="650"/>
		</defs>
		<clipPath id="SVGID_8_">
			<use xlink:href="#SVGID_7_"  style="overflow:visible;"/>
		</clipPath>
		<path class="st15" d="M4755.94,2225.91l9.3-2.7l-2.83-7.66c-3.04-8.24-10.67-18.05-29.72-18.05c-9.23,0-16.25,2.2-21.42,5.57
			l0.7-4.04h-15.33l2.66-15.34h-33.07l-2.76,15.34h-7.81l-1.48,8.52c-5.54-6.5-13.92-10.05-23.82-10.05
			c-12.69,0-23.56,5.29-30.56,14.09c0.49-1.39,0.88-2.83,1.14-4.34c1.36-7.61-0.48-14.89-5.18-20.5
			c-4.89-5.84-12.51-9.19-20.91-9.19h-46.25l-0.83,4.7c-0.51-0.92-1.08-1.8-1.76-2.62c-3.23-3.86-8.15-6.07-13.52-6.07
			c-8.82,0-16.56,6.4-18.02,14.89c-0.56,3.19-0.29,6.37,0.72,9.24h-1.52c-3.6,0-6.95,0.44-10.04,1.33h-27.31
			c0.84-1.59,1.45-3.32,1.8-5.16c0.94-5.2-0.36-10.39-3.57-14.23c-3.23-3.86-8.15-6.07-13.52-6.07c-8.82,0-16.56,6.4-18.02,14.89
			c-0.65,3.7-0.19,7.37,1.25,10.57h-1.68h-28.7l-0.06,0.34c-3.19-1.23-6.71-1.87-10.45-1.87c-10.17,0-19.46,5-25.78,13.05l5.8-32.99
			h-34.87l-4.65,26.8l-16.03-26.8h-27.36l-15.25,86.76h34.89l4.58-26.74l16.1,26.74h27.34l2.99-17.02c0.86,2.3,1.96,4.46,3.36,6.4
			l-10.28,24.04l6.77,3.08c8.01,3.64,16.7,5.48,25.84,5.48c22.35,0,32.82-10.48,37.58-21.98h25.44h4.4h28.72l5.03-28.43
			c1.96-2.45,5.96-4.56,10.4-4.63l-5.8,33.07h30.77h2.36h51.58c12.35,0,22.43-5.48,27.79-14.54c0.88,1.61,1.92,3.13,3.13,4.56
			c6.27,7.42,16.42,11.51,28.58,11.51c9.18,0,17.57-2.22,24.94-6.59l5.59-3.31l-4.16-10.44h3.28c0.56,5.61,2.76,9.5,4.87,12
			c3.2,3.8,9.46,8.34,21.09,8.34c5.01,0,9.49-0.9,14.09-2.84l3.81-1.6l0.27-1.5c7.54,4.04,15.68,5.95,25.28,5.95
			c26.18,0,32.82-14.04,34.43-22.33c1.22-5.97,0.39-11.13-2.48-15.33C4757.24,2227.36,4756.62,2226.6,4755.94,2225.91
			 M4382.73,2232.38c0.46-2.08,1.72-4.55,5.15-4.55c0.34,0,0.62,0.02,0.85,0.06l-0.92,5.01c-2.25,1.58-4.58,1.32-5.13,1.18
			C4382.62,2233.78,4382.57,2233.19,4382.73,2232.38 M4693.56,2233.95c-1.05,0.39-2.07,0.66-3.13,0.84l0.91-5.22h8.7
			c0.17,0.62,0.36,1.21,0.58,1.77L4693.56,2233.95z M4594.67,2220.29l-0.1,0.25l-0.05-0.07L4594.67,2220.29"/>
		<polygon class="st16" points="4354.35,2185.16 4341.77,2256.72 4325.11,2256.72 4300.68,2216.14 4293.73,2256.72 4274.3,2256.72 
			4286.88,2185.16 4303.54,2185.16 4327.87,2225.85 4334.92,2185.16 		"/>
		<path class="st16" d="M4417.94,2206.63l-8.18,46.51c-3.07,17.28-14.21,25.56-32.92,25.56c-9.61,0-17.07-2.25-22.7-4.8l6.03-14.11
			c4.8,3.07,10.84,3.99,15.23,3.99c9.81,0,15.54-4.6,16.87-12.06l0.21-1.33c-4.29,4.19-9.51,6.64-15.64,6.64
			c-13.29,0-22.59-10.63-19.53-27.4c2.56-14.93,14-24.53,26.07-24.53c7.56,0,12.88,3.37,15.74,7.77l1.12-6.24H4417.94z
			 M4394.83,2236.78l2.04-11.14c-1.64-3.68-5.01-5.42-9-5.42c-6.24,0-11.14,3.99-12.57,10.53c-1.12,5.52,1.02,11.04,8.49,11.04
			C4387.68,2241.79,4391.66,2240.26,4394.83,2236.78"/>
		<path class="st16" d="M4437.87,2256.72h-17.69l8.79-50.09h17.68L4437.87,2256.72z M4430.51,2189.76c0.82-4.8,5.32-8.59,10.53-8.59
			c6.54,0,10.73,5.11,9.61,11.35c-0.92,4.91-5.42,8.69-10.63,8.69C4433.58,2201.21,4429.39,2196.1,4430.51,2189.76"/>
		<path class="st16" d="M4493.69,2205.3l-3.27,18.4c-8.59-0.71-16.46,3.78-19.63,9.3l-4.19,23.72h-17.68l8.79-50.09h17.69
			l-1.43,8.07C4479.27,2207.45,4486.43,2205.3,4493.69,2205.3"/>
		<path class="st16" d="M4509.33,2256.72h-17.68l8.79-50.09h17.68L4509.33,2256.72z M4501.97,2189.76c0.82-4.8,5.32-8.59,10.53-8.59
			c6.54,0,10.73,5.11,9.61,11.35c-0.92,4.91-5.42,8.69-10.63,8.69C4505.04,2201.21,4500.84,2196.1,4501.97,2189.76"/>
		<path class="st17" d="M4534.99,2185.16h39.87c12.47,0,20.65,9.3,18.61,20.75c-1.23,6.95-5.62,11.65-11.65,14.52
			c6.64,2.15,11.24,8.89,9.4,18.4c-2.15,11.04-11.35,17.89-23.92,17.89h-44.88L4534.99,2185.16z M4563,2241.18
			c5.21,0,9.1-2.45,9.81-6.75c0.51-3.27-1.12-6.24-6.65-6.24h-19.42l-2.25,12.98H4563z M4564.33,2213.48c5.32,0,9-2.35,9.61-6.75
			c0.51-3.37-1.23-6.13-5.83-6.13h-16.46l-2.25,12.88H4564.33z"/>
		<path class="st17" d="M4629.14,2244.45c5.01,0,9.61-1.23,13.9-3.78l4.8,12.06c-6.03,3.58-13.08,5.52-21.06,5.52
			c-18.71,0-30.05-11.04-27.19-27.91c2.46-14.52,13.9-25.25,30.77-25.25c16.66,0,27.19,12.47,21.37,32.81h-34.66
			C4618.51,2242.61,4623.01,2244.45,4629.14,2244.45 M4636.09,2226.97c0.21-6.13-2.45-8.59-7.05-8.59c-5.11,0-9.2,3.17-11.14,8.59
			H4636.09z"/>
		<path class="st17" d="M4682.3,2237.19c-0.61,3.58,1.12,5.42,5.32,5.42c3.07,0,5.83-0.51,8.59-1.53l-2.66,14.92
			c-3.88,1.64-7.36,2.25-11.14,2.25c-13.08,0-20.34-6.95-18.09-19.93l2.86-16.36h-7.77l2.66-15.33h7.77l2.76-15.33h17.68
			l-2.66,15.33h15.33l-2.66,15.33h-15.33L4682.3,2237.19z"/>
		<path class="st17" d="M4700.91,2251.3l7.57-12.06c5.52,3.89,11.35,5.32,17.58,5.32c5.21,0,8.18-1.02,8.48-2.97
			c0.41-2.15-2.66-2.25-8.59-3.27c-12.68-2.15-20.45-6.24-18.71-16.46c1.53-9.61,10.12-16.76,25.46-16.76
			c14.41,0,20.14,6.44,22.59,13.08l-15.13,4.4c-1.12-3.48-4.6-4.29-8.28-4.29c-4.19,0-6.44,1.23-6.75,3.07
			c-0.31,1.94,1.94,2.56,9.1,3.78c10.73,1.84,21.16,4.4,18.61,16.87c-2.25,11.55-12.68,16.25-26.99,16.25
			C4715.94,2258.25,4708.16,2256,4700.91,2251.3"/>
	</g>
</g>
<g>
	<defs>
		<rect id="SVGID_9_" x="5075.25" y="1904.94" width="1080" height="650"/>
	</defs>
	<clipPath id="SVGID_10_">
		<use xlink:href="#SVGID_9_"  style="overflow:visible;"/>
	</clipPath>
	<rect x="5075.25" y="2478.17" class="st18" width="1080" height="36.77"/>
	<path class="st19" d="M6098.07,2504.55h2.57v-5.74c0-1.16,0.17-2.01,0.5-2.55c0.33-0.54,0.86-0.81,1.58-0.81
		c1.14,0,1.71,0.99,1.71,2.96v6.13h2.58v-5.74c0-1.18,0.16-2.03,0.48-2.57c0.32-0.53,0.84-0.8,1.54-0.8c0.61,0,1.04,0.22,1.31,0.67
		c0.26,0.44,0.39,1.19,0.39,2.26v6.17h2.58v-6.86c0-3.03-1.25-4.55-3.75-4.55c-1.38,0-2.47,0.55-3.27,1.64
		c-0.73-1.09-1.72-1.64-2.98-1.64c-0.56,0-1.03,0.1-1.4,0.29c-0.35,0.18-0.77,0.53-1.27,1.05v-1.03h-2.57V2504.55z M6087.49,2497.5
		c0.08-0.32,0.21-0.6,0.37-0.86c0.16-0.25,0.35-0.47,0.58-0.64c0.22-0.18,0.47-0.32,0.75-0.41c0.27-0.09,0.57-0.14,0.88-0.14
		c1.37,0,2.23,0.68,2.59,2.05H6087.49z M6095.29,2499c0-1.83-0.47-3.26-1.41-4.3c-0.95-1.04-2.24-1.56-3.88-1.56
		c-1.62,0-2.92,0.54-3.9,1.61c-0.97,1.09-1.46,2.51-1.46,4.26c0,1.77,0.5,3.19,1.5,4.26c1,1.06,2.33,1.6,3.99,1.6
		c0.58,0,1.11-0.06,1.61-0.18s0.95-0.31,1.38-0.58c0.43-0.26,0.83-0.6,1.2-1c0.37-0.41,0.73-0.9,1.06-1.47l-2.17-1.21
		c-0.52,0.82-0.99,1.38-1.4,1.69c-0.42,0.3-0.95,0.46-1.59,0.46c-0.82,0-1.49-0.27-2.02-0.8c-0.52-0.54-0.82-1.27-0.89-2.18h7.96
		L6095.29,2499z M6079.35,2485.29v19.26h2.57v-19.26H6079.35z M6073.11,2501.59c-0.58,0.66-1.32,0.99-2.21,0.99
		c-0.94,0-1.7-0.33-2.28-0.99c-0.58-0.65-0.87-1.51-0.87-2.59c0-1.05,0.29-1.9,0.88-2.55c0.59-0.66,1.36-0.99,2.3-0.99
		c0.88,0,1.62,0.34,2.2,1.03c0.58,0.67,0.87,1.54,0.87,2.6C6074,2500.08,6073.7,2500.92,6073.11,2501.59z M6065.33,2485.29v19.26
		h2.57v-1.16c1.01,0.99,2.16,1.48,3.44,1.48c1.52,0,2.78-0.55,3.77-1.66c1-1.12,1.5-2.53,1.5-4.24c0-1.66-0.5-3.04-1.49-4.15
		c-1-1.12-2.24-1.68-3.74-1.68c-1.3,0-2.46,0.53-3.49,1.6v-9.44H6065.33z M6046.86,2504.55h2.57v-5.74c0-1.16,0.17-2.01,0.5-2.55
		c0.33-0.54,0.86-0.81,1.58-0.81c1.14,0,1.71,0.99,1.71,2.96v6.13h2.58v-5.74c0-1.18,0.16-2.03,0.48-2.57
		c0.32-0.53,0.84-0.8,1.54-0.8c0.61,0,1.05,0.22,1.31,0.67c0.26,0.44,0.39,1.19,0.39,2.26v6.17h2.58v-6.86
		c0-3.03-1.25-4.55-3.75-4.55c-1.38,0-2.47,0.55-3.27,1.64c-0.73-1.09-1.72-1.64-2.98-1.64c-0.56,0-1.03,0.1-1.4,0.29
		c-0.35,0.18-0.77,0.53-1.27,1.05v-1.03h-2.57V2504.55z M6043.87,2486.95h-9.72v17.61h9.72v-2.5h-7.06v-5.88h6.85v-2.5h-6.85v-4.23
		h7.06V2486.95z"/>
	<g class="st20">
		<defs>
			<rect id="SVGID_11_" x="5075.25" y="1904.94" width="1080" height="650"/>
		</defs>
		<clipPath id="SVGID_12_">
			<use xlink:href="#SVGID_11_"  style="overflow:visible;"/>
		</clipPath>
		<path class="st21" d="M5735.41,2214.55c6.79-15.13,8.28-31.28,9-47.54c0.19-4.22,0.87-8.48,0.27-12.97
			c-12.59,8.54-19.58,11.65-29.66,13.1c-6.15,0.89-12.34,1.58-18.5,2.48c-4.35,0.63-8.57,1.91-13.25,3.29l-0.01,0
			c0.34-0.57,0.45-1.23,0.38-1.9c-0.07-0.7-0.42-1.31-0.97-1.75c-1.48-1.19-4.35-1.25-6.2-1.55c-11.04-1.82-22.19-2.25-33.36-2.39
			c-7.05-0.09-14.15-0.13-21.19,0.32c-17.43,1.06-34.96,2.99-51.91,7.34c-1.64,0.42-5.41,1.08-6.47,2.27l-0.18,0.22l-0.15,0.24
			l-0.13,0.25l-0.1,0.26c-0.03,0.09-0.05,0.18-0.07,0.27c-0.02,0.09-0.04,0.19-0.05,0.28c-0.01,0.09-0.01,0.19-0.01,0.28
			c0,0.09,0,0.19,0.01,0.28c0.01,0.09,0.02,0.18,0.04,0.28c0.02,0.09,0.04,0.18,0.07,0.27l0.09,0.25c-0.18-0.11-0.37-0.24-0.58-0.41
			c-7.81-6.38-17.07-9.33-26.9-10.63c-12.54-1.66-24.4-4.86-33.91-13.88c-0.22-0.21-0.63-0.21-1.27-0.4
			c-4.46,33-0.39,63.03,27.43,85.84c-4.67,3.15-9.25,6.32-13.25,10.22c-3.96,3.86-7.68,7.91-11.05,13.24h12.14
			c-4.21,6.88-8.38,13.08-10.58,20.26c-0.35,1.12-1.02,1.03-2.04,0.95c-9.9-0.69-15.7,3.68-17.01,13.59
			c-2.21,16.71,2.68,31.34,14.21,43.63c3.54,3.77,7.92,6.53,13.2,6.95c2.32,0.18,3.21,1.17,4.12,3.02
			c6.05,12.34,14.12,23.15,24.67,32.03c3.83,3.22,7.74,6.35,12.42,9.06c-0.45-3.83-1.96-7.01-1.59-11.03
			c8.04,6.48,17.34,9.95,26.09,14.44c3.85,1.98,7.49,4.26,10.84,7.02c1.41,1.17,1.84,2.1,0.59,3.72c-1.52,1.96-2.76,4.13-4.68,7.07
			c28.28-3.36,52.68-13.54,75.03-29.91c-0.68,3.18-1.3,6.09-2.07,9.67c18.41-10.14,32.3-23.84,42.42-42.53
			c0.96,3.93,0.92,6.87,1.01,9.85c15.75-20.48,22.53-43.51,19.79-69.69c5.46,2.55,9.73,5.82,14.68,9.08
			c-1.78-14.89-7.34-27.63-15.01-39.93c5.1-0.31,9.53,1.6,14.76,3c-5.83-8.95-13.24-15.52-21.16-22.08
			C5724.63,2233.45,5730.88,2224.66,5735.41,2214.55"/>
		<path class="st21" d="M5529.98,2106.28c0.15,1.95,1.05,3.93,2.55,5.2c0.09,0.08,0.19,0.15,0.28,0.23c0.1,0.07,0.19,0.14,0.29,0.21
			c0.1,0.07,0.2,0.13,0.3,0.2c0.1,0.06,0.21,0.12,0.31,0.18c0.11,0.06,0.21,0.11,0.32,0.17c0.11,0.05,0.22,0.1,0.33,0.15
			c0.11,0.05,0.23,0.09,0.34,0.13c0.11,0.04,0.23,0.08,0.34,0.11c0.11,0.04,0.23,0.07,0.35,0.1c0.12,0.03,0.24,0.06,0.35,0.08
			c0.12,0.02,0.24,0.04,0.36,0.06c0.12,0.02,0.24,0.03,0.36,0.04c0.12,0.01,0.24,0.02,0.36,0.03c0.12,0.01,0.24,0.01,0.36,0.01
			s0.24,0,0.36-0.01c0.12-0.01,0.24-0.02,0.36-0.03c0.32-0.03,0.65-0.06,0.96-0.12c1.55,2.3,3.05,4.61,4.51,6.97
			c1.46,2.35,2.88,4.73,4.25,7.13c1.37,2.41,2.69,4.83,3.97,7.29c1.28,2.45,2.51,4.93,3.7,7.43c4.49,9.39,8.32,18.97,10.75,29.11
			c1.76-0.36,3.49-0.89,5.23-1.31c3.8-0.93,7.66-1.81,11.5-2.53c13.53-2.52,27.23-3.71,40.95-4.49c6.44-0.32,12.89-0.45,19.34-0.37
			c6.45,0.07,12.9,0.34,19.33,0.82c3.59,0.32,7.18,0.72,10.76,1.21c2.23,0.31,4.54,0.8,6.79,0.92c0.34-2.12,0.72-4.22,1.13-6.32
			c0.42-2.1,0.87-4.2,1.36-6.28c0.49-2.09,1.02-4.16,1.59-6.23s1.17-4.12,1.82-6.16c0.64-2.04,1.32-4.07,2.04-6.09
			c0.72-2.02,1.47-4.02,2.26-6.02c0.79-1.99,1.62-3.97,2.48-5.93c0.86-1.96,1.76-3.91,2.69-5.84c1.79-3.75,3.89-7.32,5.77-11.02
			c2.64-0.09,4.73-0.43,6.63-2.44c0.08-0.09,0.17-0.18,0.25-0.27c0.08-0.09,0.16-0.19,0.23-0.28c0.08-0.1,0.15-0.2,0.22-0.29
			c0.07-0.1,0.14-0.2,0.2-0.31c0.07-0.1,0.13-0.21,0.19-0.32c0.06-0.1,0.12-0.21,0.17-0.32c0.05-0.11,0.11-0.22,0.16-0.33
			c0.05-0.11,0.1-0.23,0.14-0.34c0.04-0.11,0.09-0.23,0.12-0.35s0.07-0.23,0.11-0.35c0.03-0.12,0.06-0.24,0.09-0.36
			c0.03-0.12,0.05-0.24,0.07-0.36c0.02-0.12,0.04-0.24,0.05-0.36c0.02-0.12,0.03-0.24,0.04-0.37s0.01-0.24,0.02-0.37
			c0-0.12,0-0.25,0-0.37c-0.06-2.02-0.95-4.06-2.44-5.44c-1.48-1.36-3.51-2.18-5.53-2.09c-0.12,0.01-0.25,0.01-0.37,0.03
			c-0.12,0.01-0.25,0.03-0.37,0.05c-0.12,0.02-0.25,0.04-0.36,0.06c-0.12,0.02-0.24,0.05-0.36,0.08c-0.12,0.03-0.24,0.06-0.36,0.1
			c-0.12,0.04-0.24,0.07-0.35,0.12c-0.12,0.04-0.23,0.09-0.34,0.13c-0.11,0.05-0.23,0.1-0.34,0.15c-0.11,0.05-0.22,0.11-0.33,0.17
			c-0.11,0.06-0.21,0.12-0.32,0.18c-0.1,0.06-0.21,0.13-0.31,0.2c-0.1,0.07-0.2,0.14-0.3,0.21c-0.1,0.07-0.2,0.15-0.29,0.23
			c-0.1,0.08-0.19,0.16-0.28,0.24l-0.27,0.25c-0.09,0.09-0.17,0.18-0.25,0.27c-0.09,0.1-0.17,0.19-0.25,0.3
			c-0.08,0.1-0.16,0.2-0.24,0.31c-0.08,0.1-0.15,0.21-0.22,0.32c-0.07,0.11-0.14,0.22-0.2,0.33c-0.06,0.11-0.13,0.22-0.19,0.34
			c-0.06,0.12-0.12,0.23-0.17,0.35c-0.05,0.12-0.1,0.24-0.15,0.36c-0.05,0.12-0.09,0.24-0.14,0.37c-0.04,0.12-0.08,0.25-0.12,0.37
			c-0.04,0.13-0.07,0.25-0.09,0.38c-0.03,0.13-0.06,0.25-0.08,0.38c-0.02,0.13-0.04,0.26-0.06,0.39c-0.01,0.13-0.03,0.26-0.04,0.39
			c-0.01,0.13-0.02,0.26-0.02,0.39c0,0.13,0,0.26,0,0.39c0,0.13,0.01,0.26,0.02,0.39c0.17,2.44,1.05,3.95,2.86,5.53
			c-2.46,2.17-4.6,4.68-7.06,6.86c-7.18,6.39-18.9,14.3-28.91,13.68c-6.97-0.44-12.8-4.51-17.27-9.64
			c-4.41-5.05-7.74-11.08-10.77-17.02c-2.21-4.3-4.26-8.68-6.15-13.13c-1.89-4.45-3.62-8.96-5.19-13.54
			c-0.87-2.48-2.1-5.08-2.51-7.68c2.33-0.93,4.18-2.28,5.21-4.66c0.05-0.13,0.11-0.25,0.15-0.38c0.05-0.13,0.09-0.26,0.13-0.39
			c0.04-0.13,0.08-0.26,0.11-0.4c0.04-0.13,0.07-0.27,0.09-0.4c0.03-0.14,0.05-0.27,0.07-0.41c0.02-0.14,0.04-0.27,0.06-0.41
			c0.01-0.14,0.02-0.27,0.03-0.41c0.01-0.14,0.01-0.28,0.01-0.41c0-0.14,0-0.28-0.01-0.41c-0.01-0.14-0.02-0.27-0.03-0.41
			c-0.01-0.14-0.03-0.27-0.05-0.41c-0.02-0.14-0.04-0.27-0.07-0.41c-0.03-0.14-0.05-0.27-0.09-0.4c-0.03-0.13-0.07-0.27-0.11-0.4
			c-0.04-0.13-0.08-0.26-0.13-0.39c-0.05-0.13-0.1-0.26-0.15-0.39c-0.79-1.95-2.28-3.57-4.23-4.4c-1.32-0.56-2.96-0.84-4.38-0.67
			c-2.25,0.35-4.18,1.31-5.54,3.18c-1.33,1.83-1.82,4.31-1.45,6.52c0.35,2.08,1.63,4.13,3.36,5.35c0.94,0.66,2.01,1.04,3.13,1.28
			c-0.77,3.39-1.5,6.79-2.35,10.17c-0.6,2.4-1.34,4.77-2.02,7.14c-2.15,7.55-4.55,14.94-7.72,22.12c-1.14,2.57-2.29,5.16-3.66,7.62
			c-1.05,1.89-2.24,3.69-3.46,5.48c-2.5,3.68-5.32,7.18-9.15,9.57c-5.16,3.22-11,3.94-16.87,2.55c-8.67-2.05-16.97-7.09-23.73-12.79
			c-1.48-1.25-3.11-2.58-4.33-4.09c1.53-1.59,2.36-3.45,2.3-5.68c0-0.13-0.01-0.25-0.02-0.38c-0.01-0.12-0.02-0.25-0.04-0.38
			c-0.02-0.12-0.04-0.25-0.06-0.37c-0.02-0.12-0.05-0.25-0.08-0.37c-0.03-0.12-0.06-0.24-0.1-0.36c-0.04-0.12-0.07-0.24-0.11-0.36
			c-0.04-0.12-0.09-0.24-0.13-0.35c-0.05-0.12-0.1-0.23-0.15-0.35c-0.05-0.11-0.11-0.23-0.17-0.34c-0.06-0.11-0.12-0.22-0.18-0.33
			c-0.06-0.11-0.13-0.21-0.2-0.32c-0.07-0.1-0.14-0.21-0.22-0.31c-0.07-0.1-0.15-0.2-0.23-0.3c-0.08-0.1-0.16-0.19-0.24-0.28
			c-0.08-0.1-0.17-0.19-0.26-0.28c-0.09-0.09-0.18-0.18-0.27-0.26c-0.09-0.08-0.18-0.16-0.27-0.24c-0.09-0.08-0.19-0.15-0.29-0.23
			c-0.1-0.07-0.2-0.14-0.29-0.21c-0.1-0.07-0.2-0.13-0.31-0.2c-0.1-0.06-0.21-0.12-0.31-0.18c-0.11-0.06-0.21-0.11-0.32-0.17
			c-0.11-0.05-0.22-0.1-0.33-0.15c-0.11-0.05-0.22-0.09-0.34-0.13c-0.11-0.04-0.23-0.08-0.35-0.12c-0.12-0.03-0.23-0.07-0.35-0.1
			c-0.12-0.03-0.24-0.06-0.35-0.08c-0.12-0.03-0.24-0.04-0.36-0.06c-0.12-0.02-0.24-0.03-0.36-0.04c-0.12-0.01-0.24-0.02-0.36-0.03
			c-0.12-0.01-0.24-0.01-0.37-0.01c-0.12,0-0.24,0-0.36,0.01c-1.96,0.1-3.92,1.01-5.23,2.49c-0.08,0.1-0.16,0.19-0.24,0.29
			c-0.08,0.1-0.15,0.2-0.23,0.3c-0.07,0.1-0.14,0.21-0.21,0.31s-0.13,0.21-0.2,0.32c-0.06,0.11-0.12,0.22-0.18,0.33
			c-0.06,0.11-0.11,0.22-0.16,0.34c-0.05,0.11-0.1,0.23-0.14,0.35c-0.05,0.12-0.09,0.24-0.13,0.35c-0.04,0.12-0.08,0.24-0.11,0.36
			c-0.03,0.12-0.06,0.24-0.09,0.36c-0.03,0.12-0.05,0.25-0.07,0.37c-0.02,0.12-0.04,0.25-0.05,0.37c-0.02,0.12-0.03,0.25-0.04,0.38
			c-0.01,0.12-0.01,0.25-0.02,0.38c0,0.12,0,0.25,0,0.38C5529.96,2106.03,5529.97,2106.15,5529.98,2106.28 M5618.01,2122.67
			c0.77-1.98,1.47-3.98,2.29-5.94c0.63,0.74,1.45,2.7,1.92,3.63l4.6,8.99c1.12,2.2,2.51,4.43,3.41,6.71
			c-0.64,1.96-1.56,3.9-2.32,5.82l-5.58,13.78c-0.1-0.1-9.71-18.31-9.89-18.9L5618.01,2122.67z"/>
		<path class="st21" d="M5657.96,2119.22c4.61,1.24,8.79,0.6,13.13-1.27c-4.28-11.07-7.35-20.08-6.23-32.16
			c2.37,0.16,4.38-0.05,6.25-1.66c1.54-1.33,2.39-3.23,2.54-5.25c0.01-0.13,0.02-0.25,0.02-0.38c0-0.13,0-0.25,0-0.38
			c0-0.13-0.01-0.25-0.02-0.38c-0.01-0.13-0.02-0.25-0.04-0.38c-0.01-0.12-0.03-0.25-0.05-0.38c-0.02-0.12-0.05-0.25-0.07-0.37
			c-0.03-0.12-0.06-0.25-0.09-0.37c-0.03-0.12-0.07-0.24-0.11-0.36c-0.04-0.12-0.08-0.24-0.13-0.36c-0.05-0.12-0.09-0.23-0.15-0.35
			c-0.05-0.11-0.11-0.23-0.16-0.34c-0.06-0.11-0.12-0.22-0.18-0.33c-0.06-0.11-0.13-0.22-0.2-0.32c-0.07-0.11-0.14-0.21-0.21-0.31
			c-0.07-0.1-0.15-0.2-0.23-0.3c-0.08-0.1-0.16-0.2-0.24-0.29c-0.08-0.09-0.17-0.18-0.25-0.27l-0.26-0.26
			c-0.09-0.08-0.18-0.17-0.28-0.25c-0.09-0.08-0.19-0.16-0.29-0.23c-0.1-0.07-0.2-0.15-0.3-0.22c-0.1-0.07-0.21-0.14-0.31-0.2
			c-0.11-0.06-0.21-0.13-0.32-0.19c-0.11-0.06-0.22-0.11-0.33-0.17c-0.11-0.05-0.22-0.1-0.34-0.15c-0.11-0.05-0.23-0.09-0.35-0.13
			c-0.12-0.04-0.23-0.08-0.35-0.12c-0.12-0.04-0.24-0.07-0.36-0.1c-0.12-0.03-0.24-0.06-0.36-0.08c-0.12-0.02-0.24-0.04-0.37-0.06
			c-0.12-0.02-0.25-0.03-0.37-0.04c-0.12-0.01-0.25-0.02-0.37-0.03c-0.46-0.02-0.97-0.02-1.42,0.07c-2.06,0.44-3.92,1.38-5.09,3.2
			c-1.11,1.73-1.41,3.98-0.97,5.97c0.02,0.11,0.05,0.22,0.08,0.34c0.03,0.11,0.06,0.22,0.1,0.33c0.04,0.11,0.07,0.22,0.11,0.33
			c0.04,0.11,0.08,0.22,0.13,0.32c0.04,0.11,0.09,0.21,0.14,0.32c0.05,0.11,0.1,0.21,0.16,0.31c0.05,0.1,0.11,0.2,0.17,0.3
			c0.06,0.1,0.12,0.2,0.18,0.29c0.06,0.1,0.13,0.19,0.2,0.29c0.07,0.09,0.14,0.19,0.21,0.28c0.07,0.09,0.14,0.18,0.22,0.27
			l0.23,0.26l0.24,0.25l0.25,0.23l0.26,0.22c0.09,0.07,0.18,0.14,0.27,0.21c-0.77,1.44-1.48,2.91-2.27,4.34
			c-2,3.61-4.24,7.2-6.56,10.61c-2.31,3.4-4.84,6.63-7.26,9.94C5647.97,2113.1,5654.05,2117.96,5657.96,2119.22"/>
		<path class="st21" d="M5563.34,2083.78c0.01,0.13,0.03,0.25,0.05,0.38c0.3,1.88,1.32,3.69,2.87,4.8c1.95,1.4,3.87,1.51,6.18,1.33
			c1.77,8.81,1.45,19.7-1.25,28.3c-0.47,1.51-1.12,2.89-1.73,4.33c5.31,1.74,10.14,1.69,15.18-0.86l0.19-0.1
			c3.4-1.88,6.1-4.08,8.31-7.32c0.62-0.91,1.25-1.9,1.67-2.92c-0.95-0.82-1.88-1.66-2.8-2.51s-1.82-1.73-2.7-2.62
			c-0.88-0.89-1.75-1.8-2.59-2.73c-0.85-0.93-1.67-1.87-2.48-2.83c-0.81-0.96-1.6-1.93-2.37-2.92c-0.77-0.99-1.52-2-2.25-3.01
			c-0.73-1.02-1.44-2.05-2.13-3.1c-0.69-1.05-1.36-2.11-2.01-3.18c1.53-1.29,2.5-3.06,2.66-5.07c0.01-0.13,0.02-0.26,0.02-0.38
			c0-0.13,0-0.26,0-0.39s-0.01-0.26-0.02-0.38c-0.01-0.13-0.02-0.26-0.04-0.38c-0.01-0.13-0.03-0.25-0.06-0.38s-0.05-0.25-0.07-0.38
			c-0.03-0.13-0.06-0.25-0.09-0.37c-0.03-0.12-0.07-0.25-0.11-0.37c-0.04-0.12-0.08-0.24-0.13-0.36c-0.05-0.12-0.09-0.24-0.15-0.36
			c-0.05-0.12-0.11-0.23-0.17-0.35c-0.06-0.11-0.12-0.23-0.18-0.34c-0.06-0.11-0.13-0.22-0.2-0.33c-0.07-0.11-0.14-0.22-0.21-0.32
			c-0.07-0.1-0.15-0.21-0.23-0.31c-0.08-0.1-0.16-0.2-0.24-0.3c-1.28-1.49-3.02-2.35-4.98-2.49c-0.52-0.04-1.12-0.05-1.64,0.02
			c-1.96,0.29-3.64,1.19-4.83,2.81c-0.07,0.1-0.15,0.21-0.21,0.31c-0.07,0.11-0.14,0.21-0.2,0.32c-0.07,0.11-0.13,0.22-0.18,0.33
			c-0.06,0.11-0.11,0.23-0.17,0.34c-0.05,0.11-0.1,0.23-0.15,0.35c-0.05,0.12-0.09,0.24-0.13,0.36c-0.04,0.12-0.08,0.24-0.12,0.36
			c-0.04,0.12-0.07,0.24-0.1,0.37c-0.03,0.12-0.06,0.25-0.08,0.37c-0.03,0.12-0.05,0.25-0.06,0.38c-0.02,0.12-0.03,0.25-0.05,0.38
			c-0.01,0.13-0.02,0.25-0.03,0.38s-0.01,0.25-0.01,0.38c0,0.13,0,0.25,0.01,0.38C5563.32,2083.52,5563.33,2083.65,5563.34,2083.78"
			/>
		<path class="st22" d="M5641.96,2182.48c0.04-0.11,0.08-0.23,0.12-0.34c-0.06,0.1-0.11,0.2-0.17,0.3L5641.96,2182.48"/>
		<path class="st22" d="M5657.96,2199.99c0.1-0.1,0.21-0.21,0.31-0.31l-0.08,0.19c-0.08,0.05-0.18,0.05-0.28,0.07L5657.96,2199.99"
			/>
		<path class="st22" d="M5586.22,2371.39c-0.09-0.14-0.18-0.28-0.28-0.42c0.14,0.1,0.27,0.19,0.41,0.28L5586.22,2371.39"/>
		<path class="st23" d="M5585.32,2258.04c-0.24-0.19-0.56-0.38-0.13-0.67c0.04-0.03,0.28,0.24,0.43,0.37
			C5585.52,2257.85,5585.42,2257.95,5585.32,2258.04"/>
		<path class="st23" d="M5643.5,2368.33c-0.09,0.21-0.18,0.42-0.26,0.63c-0.42-0.38,0.11-0.46,0.22-0.66L5643.5,2368.33"/>
		<path class="st24" d="M5643.5,2368.33c12.42-11.7,23.32-24.38,27.29-41.61c0.31-1.33,0.62-2.66,1.06-4.53
			c3.33,4.96,4.7,10.2,6.72,15.91c4.89-9.71,7.28-19.32,8.07-29.34c0.53-6.73,0.12-13.44-1.41-20.05c-0.24-1.02-1.37-2.29,0.11-3.01
			c1.26-0.62,2.32,0.42,3.19,1.33c3.94,4.12,7.56,8.5,11.21,13.87c0.45-17.48-5.05-32.41-13.98-46.74
			c4.61-0.39,7.66,2.93,12.09,3.64c-2.21-3.16-4.06-5.82-6.13-8.78c5.06-1.58,10.09-2.83,14.95-4.04c3.66-0.91,7.02,3.07,10.7,5.71
			c-3.69,1.68-7.25,0.33-10.21,2.25c7.79,9.16,15.49,18.32,19,30.83c-4.97-1.65-9.08-3.9-13.88-4.21
			c6.76,20.79,3.68,40.46-5.3,60.66c-1.99-4.69-3.16-8.7-6.21-12.32c-4.15,19.89-15.62,34.64-30.46,47.97
			c-0.53-5,1.44-9.4,0.23-14.55c-16,21.32-38.68,31.21-63.4,39.99c3.72-6.62,5.99-12.58,5.24-19.28c-0.22-1.98-0.25-3.97-1.36-5.76
			c-1.35,0.48-1.05,1.69-1.3,2.59c-1.75,6.33-4.66,12.05-9.03,16.98c-1.47,1.66-2.76,2.5-5,0.56c-6.68-5.83-14.79-9.29-22.75-12.94
			c-4.86-2.23-9.46-4.86-13.73-8.11c-3.85-2.93-6.62-6.59-8.31-11.1c0.86-1.02,1.62-0.14,2.37,0.06c5,1.36,9.88,3.06,15.15,3.52
			c4.59,0.4,8.16,3.27,11.39,6.43c2.25,2.2,4.53,4.35,6.98,6.7c1.23-3.35-0.55-6.44-0.58-9.59l0.14-0.14
			c6.58,1.85,9.45,7.45,13.03,13.61c2.18-9.91,10.68-12.28,17.11-16.9c3.47-2.49,6.57-5.43,9.7-8.7c1.15,2.65-0.32,4.94-0.1,7.76
			c8.37-4.75,14.73-10.98,19.87-19.54c1.64,7.78-0.31,14.31-2.51,20.81c-0.11,0.21-0.64,0.28-0.22,0.66
			C5643.32,2368.75,5643.41,2368.54,5643.5,2368.33"/>
		<path class="st24" d="M5542.56,2241.94c-0.61-0.59-1.47-0.17-2.14,0.11c-4.73,2.03-9.44,4.13-13.66,7.13
			c-2.09,1.48-4.26,2.93-6.59,5.75h13.07c-9.37,9.19-16.75,18.42-20.41,30.09h0c-0.25,0.27-0.5,0.57-0.05,0.83
			c0.1,0.06,0.37-0.16,0.56-0.25c2.51,0.05,4.57-1.36,6.85-2.06c3.75-1.15,5.54-3.36,6.27-7.43c1.37-7.61,5.08-14.26,10.35-20.01
			c1.32-1.44,3.97-2.65,3.19-4.69c-0.57-1.49-3.22-0.08-4.89-0.49c-0.2-0.05-0.38-0.18-1-0.48c3.48-1.33,6.54-2.82,8.09-6.13
			C5542.55,2243.56,5543.4,2242.76,5542.56,2241.94"/>
		<path class="st24" d="M5586.46,2182.14c-0.04-2.48,0.17-4.85,0.52-7.16c-5.14,0.91-9.18,1.79-11.96,2.45
			c-6.05,8.68-10.26,18.41-12.5,29.26c-1.32,6.38-1.29,6.5,4.81,10.7c1.93-12.51,4.45-24.68,12.51-35.49
			c0.62,7.33,1.46,14.02,4.58,21.05c7.09-13.19,15.8-24.12,28.98-31.34c-6.15,0.51-11.75,1.16-16.74,1.86
			C5593.11,2176.05,5589.71,2178.94,5586.46,2182.14"/>
		<path class="st24" d="M5637.97,2170.57c-4.77,1.15-9.5,2.67-14.21,4.68c0.65-1.53,1.36-3,2.08-4.43
			c-3.25,0.13-6.39,0.32-9.42,0.54c-4.32,7.2-6.93,14.49-8.39,23.06c6.55-4.75,12.48-8.89,19.21-11.55c6.76-2.67,13.67-4.79,21.82-5
			c-3.86,4.86-7.72,8.76-9.46,14.66c5.2-0.82,10.06-2.45,14.91-1.66c7.09,1.17,9.23-4.51,13.55-8.19c-3.8-0.78-6.84,0.29-10.34,0.16
			c2.77-4.39,6.22-7.71,10.13-10.85C5657.33,2170.96,5647.3,2170.55,5637.97,2170.57"/>
		<path class="st22" d="M5538.67,2347.11c13.75-1,26.48,2.07,39.03,6.34c3.58,1.22,7.25,2.25,11.14,1.5
			c8.54-1.64,13.06-7.78,16.47-14.96c2.18-4.58,3.49-9.49,4-14.58c0.08-0.85,0.19-1.74,1.1-2.42c3.34,6.59,1.5,12.89-0.93,19.08
			c-1.72,4.39-4.42,8.23-7.29,11.97c-6.47,8.45-14.98,8.55-24.3,6.47c-12.25-2.74-24.25-6.24-35.87-10.98
			C5540.87,2349.08,5539.67,2348.6,5538.67,2347.11"/>
		<path class="st25" d="M5603.89,2310.75c0.3,10.45-1.23,20.38-6.41,29.39c-4.64,8.07-10.45,9.76-18.94,5.85
			c-1.38-0.64-1.75-1.15-0.63-2.38c2.48-2.7,4.77-5.59,7.36-8.19c6.46-6.5,12.15-13.56,16.58-21.61
			C5602.45,2312.74,5603.21,2311.77,5603.89,2310.75"/>
		<path class="st22" d="M5544.02,2373.23c-4.58-3.61-8.17-8.49-11.82-13.25c-2.15-2.8-3.99-5.86-5.82-8.89
			c-0.71-1.17-2.12-2.85-0.7-3.9c1.29-0.96,2.45,0.81,3.35,1.79c2.43,2.62,5,5.23,8.19,6.71
			C5545.03,2359.33,5548.95,2364.32,5544.02,2373.23"/>
		<path class="st22" d="M5547.75,2265.45c-5.27,5.08-10.3,8.6-15.64,11.71c-1.64,0.95-2.57,0.3-2.03-1.49
			c1.55-5.07,3.81-9.86,6.74-14.28c1.31-1.97,3-3.7,4.63-5.43c0.96-1.02,2.52-2.09,3.34-0.26c0.61,1.36,2.94,3.14,0.31,4.83
			c-2.62,1.69-5.29,3.3-8.49,5.29C5540.4,2266.72,5543.55,2266.04,5547.75,2265.45"/>
		<path class="st22" d="M5550.77,2239.86c2.2,1.01,2.11,2.56,1.79,4.28c-0.85,4.56-1.47,9.09,2.48,12.73
			c1.06,0.98,0.21,1.48-0.48,2.07c-1.07,0.92-2.13,1.44-3.25,0.09c-1.49-1.81-2.35-3.87-2.5-6.23
			C5548.53,2248.45,5549.13,2244.24,5550.77,2239.86"/>
		<path class="st25" d="M5555.25,2245.73c1.42,1.98,2.87,3.94,4.26,5.95c0.4,0.58,1.2,1.3,0.6,1.99c-0.59,0.68-1.63,0.63-2.5,0.36
			c-1.78-0.56-2.55-2.01-2.82-3.68c-0.23-1.41-0.21-2.86-0.3-4.29C5554.74,2245.95,5555,2245.84,5555.25,2245.73"/>
		<path class="st25" d="M5631.22,2235.23c-1.08-1.98-2.01-2.33-3.85-1.23c-1.79,1.07-5.44,1.86-2.3,5.4
			c-1.86,0.34-3.47,1.09-3.03,3.33c0.53,2.71,2.62,2.47,4.67,2.08c0.1,3.75-1.88,6.17-5.09,7.69c-2.71,1.29-5.11,0.57-7.38-1.28
			c-0.83-0.67-1.59-3.17-2.99-1.03c-0.98,1.5-3.32,3.05-1.09,5.57c6.31,7.13,17.6,5.94,22.02-2.47
			C5635.43,2247.1,5634.45,2241.14,5631.22,2235.23"/>
		<path class="st22" d="M5507.44,2167.35c-2.23,0.99-7.04,47.19,33.36,68.67c0,0,3.31-2.29,1.02-4.41
			c-2.29-2.12-6.28-5.43-6.88-5.69c-0.59-0.25-2.97-0.34-2.97-0.34c0-0.93,0.17-1.7,0.17-1.7l-0.26-0.85c0,0-9.17-6.11-11.29-14.68
			c0,0,6.54,10.44,12.14,12.56c0,0,2.04,0.09,2.12-1.36c0.08-1.44-14.35-10.27-16.89-22.24c0,0,8.32,17.23,20.12,16.47
			c0,0-18.42-12.73-21.31-25.12c0,0,6.37,10.44,16.3,13.03c0,0-14.77-9.8-19.69-22.45c0,0,1.58,2.48,20.63,8.23
			c19.1,5.77,20.88,15.2,20.88,15.2l5.43-14.94c0,0-4.5-9.51-24.53-11.54C5515.76,2174.14,5510.18,2166.13,5507.44,2167.35"/>
		<polygon class="st22" points="5641.91,2182.44 5641.87,2182.49 5641.96,2182.48 		"/>
		<path class="st22" d="M5734.78,2168.65c-9.19,5.01-19.37,5.96-29.45,6.76c-20.71,1.64-36.13,10.74-45.06,29.95
			c-3.29,7.08-3.44,7,1.8,12.98c0.08,0.1,0.18,0.18,0.25,0.28c1.21,1.83,3.67,3.39,2.37,5.94c-1.31,2.56-4.08,1.99-6.47,2.15
			c-1.49,0.1-3.04-1.17-4.42-0.03c-4.29,3.53-8.87,6.62-14.08,9.14c13.02,7.96,17.34,11.69,18.57,16.33
			c-5.17-1.89-9.63-5.06-15.3-5.52c8.63,10.22,10.41,13.93,8.77,19.46c-1.11-1.43-1.86-2.6-2.8-3.57c-0.96-1-2.12-1.81-3.19-2.7
			c-4.43-3.65-5.7-3.55-9.01,1.01c-5.71,7.84-14.16,8.23-21.63,4.66c-2.45-1.17-4.73-1.81-7.25-1.45
			c-4.13,0.59-8.22,1.46-12.19,2.84c-2.62,0.91-5.3,1.64-8.78,2.7c2.82-3.21,6.31-3.87,8.85-6.61c-4.09-1-8.41-0.72-10.43-4.92
			c-0.24-0.19-0.56-0.38-0.13-0.67c0.04-0.03,0.28,0.24,0.43,0.37c3.89,1.15,7.28,0.54,10.6-2.06c4.49-3.53,7.48-8.17,10.69-12.71
			c9.95-14.05,23.26-21.93,40.81-21.87c2.96,0.01,5.91,0,9.2,0c-6.37-7.01-13.96-11.02-22.3-13.91c-2-0.69-3.64-0.63-5.4,0.42
			c-5.22,3.14-10.39,6.38-15.74,9.3c-6.41,3.49-11.04,8.36-13.43,15.34c-0.98,2.85-3.04,5.25-3.56,8.34
			c-0.11,0.63-0.64,1.89-1.74,1.51c-1.01-0.36-1-1.38-0.56-2.27c1.76-3.58,1.75-7.64,2.98-11.33c1.29-3.85,1-8.47,5.01-11.15
			c8.61-5.76,17.4-11.23,26.36-16.44c1.66-0.97,3.2-1.02,5.05-0.4c6.77,2.23,13.41,4.68,19.17,9.01c1.13,0.85,2.11,1.22,2.43-0.53
			c0.57-3.1,2.49-5.78,2.73-8.96c-2.15,1.13-3.1,3.51-5.18,5.16c-0.52-3.05,1.4-5,2.24-7.29c0.41-1.12,1.95-2.21,0.96-3.38
			c-0.82-0.97-2.44-0.54-3.64-0.35c-4.86,0.8-9.81,1.06-14.55,2.55c-2.07,0.65-2.72,0.06-2.06-2.22c1.28-4.44,3.58-8.3,6.2-12.02
			c-9.65,0.65-17.75,5.19-25.62,10.28c-3.81,2.47-7.61,4.97-11.64,7.6c-0.33-5.91,1.08-11.2,2.65-16.4c1.26-4.24,4.06-8.2,4.06-8.2
			c-1.97,1.31-4.36,3.34-5.94,4.74c-0.2,0.18-0.4,0.36-0.6,0.54c-0.65,0.58-1.08,0.98-1.08,0.98l0.03,0.02
			c-5.16,4.77-9.61,10.13-13.18,16.2c-2.09,3.55-4.14,7.13-6.41,11.05c-3.43-5.41-5.12-11.13-7.04-16.85
			c-7.6,16.49-7.86,33.62-5.58,51.08c-2.9-5.05-4.1-10.61-5.54-16.08c-0.32-1.22-0.4-2.51-1.41-3.45
			c-3.45-3.19-6.85-6.43-10.36-9.54c-1.47-1.3-3.18-1.97-5.25-0.99c-4.69,2.2-7.92,5.99-12.1,9.93c5.4,0.39,9.23,2.25,12.76,4.81
			c4.67,3.39,7.35,8.28,10.12,13.16c3.43,6.06,5.97,12.91,13.93,15.73c-10.88,2.04-11.95,2.74-20.2,11.85
			c-8.12,8.96-17.66,15.99-28.86,20.67c-1.81,0.75-3.65,1.43-6.25,2.44c6.56,3.61,13.03,3.2,19.33,3.63c-0.2,1-0.79,0.88-1.23,0.95
			c-10.55,1.79-20.73,0.71-30.4-4.07c-7.18-3.55-11.13-1.74-12.25,6.28c-1.66,11.82,1.56,22.58,8.27,32.35
			c4.39,6.4,10.12,9.39,18.19,8.29c12.51-1.7,25.09-1.17,37.61,0.15c4.68,0.49,8.14-1.13,10.85-4.78c3.75-5.05,6.55-10.62,8.02-16.7
			c1.45-6.03,1.46-12.1-1.8-17.72c-2.69-4.65-5.12-5.72-10.37-4.67c-3.88,0.78-7.45,2.46-11.13,3.83c-4.01,1.49-8.06,2.83-12.1,4.23
			c6.33-5.02,12.61-9.87,19.71-13.44c7.13-3.58,13.6-2.18,18.55,4.18c3.49,4.49,5.71,9.55,6.03,15.34c0.07,1.2-0.39,2.87,1.02,3.38
			c1.17,0.42,1.84-1.08,2.69-1.79c8.63-7.24,17.8-13.53,29.13-15.72c4.04-0.78,8.19-1.07,12.73-1.64
			c-4.39-6.34-9.95-10.87-16.82-14.55c10.1-0.61,25.17,12,29.4,22.26c-0.36,0.09-0.7,0.24-1.05,0.25c-0.63,0.01-1.28,0-1.9-0.11
			c-9.09-1.71-17.58,0.64-25.98,3.74c-2.13,0.79-2.73,1.66-1.47,3.84c2.36,4.08,3.9,8.55,4.81,13.16c0.62,3.14,0.84,6.36,1.28,9.91
			c10.71-4.81,20.63-10.02,28.73-18.17c4.71-4.74,4.74-4.71,7.29,1.18c0.08,0.18,0.41,0.26,0.76,0.48c0.26-0.4,0.68-0.77,0.75-1.2
			c1.35-8.72,2.64-17.46,3.97-26.18c0.28-1.81-0.93-4.73,0.81-5.18c1.97-0.51,3.14,2.45,4.76,3.79c0.28,0.23,0.4,0.65,0.64,0.94
			c3.48,4.16,5.39,9.22,8.01,13.95c2.47-12.66,1.36-24.56-7.14-35.19c1.81,0.16,3.21,0.62,4.61,1.05c2.16,0.67,3.1,0.39,2.42-2.3
			c-0.69-2.69-0.75-5.58,0.46-8.21c1.35-2.94,0.3-5.02-1.82-7.08c-2.84-2.76-5.5-5.72-9.06-9.47c3.72,0.49,6.25,0.83,8.68,1.15
			c1.66-4.83-0.88-7.5-4.8-9.39c-2.47-1.19-2.66-3.26-2.07-5.48c0.93-3.55,1.8-7.15,3.14-10.55c5.57-14.05,15.04-23.97,30.35-27.02
			c10.38-2.07,21.01-3.11,30.5-9.85c-4.59,14.8-16.46,19.47-28.84,23.54c8.3-0.43,15.49-3.96,23.41-8.38
			c-5.18,12.95-14.84,19.38-26.36,24.42c4.87,0.6,8.9-1.25,14.2-1.09c-11.93,9.36-24.37,13.5-38.46,12.04
			c3.38,3.61,6.5,6.9,9.56,10.23c0.87,0.95,1.89,1.22,3.08,1.07c11.6-1.44,22.32-5,30.58-13.7c15.48-16.28,18.09-36.98,19.54-58.02
			C5737.27,2167.95,5736.12,2167.92,5734.78,2168.65 M5507.65,2315.12c-0.23,4.54,2.12,8.22,3.89,12.71
			c-3.1-0.96-5.06-2.77-6.71-4.85c-4.29-5.41-5.72-11.7-5.36-18.48c0.05-0.87,0.1-1.9,1.03-2.26c0.8-0.31,1.38,0.47,1.91,0.98
			c5.28,5.05,11.09,9.48,17.33,14.62C5515.14,2317.66,5511.73,2315.59,5507.65,2315.12 M5562.87,2306.98
			c1.99-0.42,3.05,0.31,3.76,2.18c3.32,8.81-3.19,18.43-13.59,18.57c3.27-2.59,5.42-5.25,6.31-8.72c1.01-3.98,0.52-4.57-3.45-3.55
			c-4.39,1.13-8.77,2.34-13.15,3.51c-0.11-0.35-0.23-0.7-0.34-1.05C5548.78,2313.49,5554.94,2308.66,5562.87,2306.98"/>
		<polygon class="st22" points="5657.92,2199.95 5657.91,2200.03 5657.96,2199.99 		"/>
	</g>
</g>
<path class="st0" d="M7205.52,2496.43c0.61-0.65,1.4-0.98,2.38-0.98c1,0,1.8,0.33,2.41,0.98c0.6,0.65,0.9,1.51,0.9,2.59
	c0,1.08-0.3,1.94-0.9,2.59c-0.6,0.65-1.4,0.97-2.41,0.97c-1,0-1.8-0.33-2.41-0.98c-0.59-0.65-0.89-1.52-0.89-2.63
	C7204.6,2497.93,7204.91,2497.09,7205.52,2496.43z M7203.67,2503.16c1.12,1.14,2.52,1.71,4.19,1.71c1.68,0,3.1-0.56,4.25-1.68
	c1.15-1.12,1.72-2.52,1.72-4.18c0-1.65-0.57-3.04-1.71-4.17c-1.16-1.13-2.56-1.7-4.22-1.7c-1.65,0-3.05,0.56-4.2,1.69
	c-1.15,1.12-1.72,2.49-1.72,4.09C7201.98,2500.62,7202.54,2502.04,7203.67,2503.16z M7196.01,2501.51
	c-0.57,0.71-1.35,1.07-2.33,1.07s-1.75-0.35-2.3-1.06c-0.51-0.65-0.76-1.47-0.76-2.49c0-1.03,0.25-1.86,0.76-2.51
	c0.56-0.72,1.33-1.08,2.3-1.08c0.91,0,1.66,0.33,2.25,0.99c0.58,0.65,0.87,1.51,0.87,2.59
	C7196.8,2500.03,7196.53,2500.86,7196.01,2501.51z M7199.26,2493.45h-2.57v1.25c-0.93-1.04-2.09-1.56-3.49-1.56
	c-1.6,0-2.88,0.6-3.85,1.8c-0.91,1.13-1.36,2.51-1.36,4.13c0,1.66,0.49,3.05,1.46,4.16c0.96,1.09,2.2,1.64,3.72,1.64
	c1.33,0,2.5-0.52,3.52-1.56v1.55c0,2.3-0.94,3.46-2.82,3.46c-1.02,0-1.79-0.35-2.33-1.04c-0.23-0.3-0.39-0.72-0.49-1.27h-2.58
	c0.15,1.45,0.72,2.59,1.71,3.41c0.96,0.8,2.18,1.2,3.66,1.2c1.76,0,3.14-0.58,4.14-1.73c0.53-0.6,0.89-1.32,1.07-2.16
	c0.06-0.3,0.11-0.66,0.14-1.05c0.03-0.4,0.05-0.86,0.05-1.39V2493.45z M7177.49,2496.43c0.61-0.65,1.4-0.98,2.38-0.98
	c1,0,1.8,0.33,2.41,0.98c0.6,0.65,0.9,1.51,0.9,2.59c0,1.08-0.3,1.94-0.9,2.59c-0.6,0.65-1.4,0.97-2.41,0.97
	c-1,0-1.8-0.33-2.41-0.98c-0.59-0.65-0.89-1.52-0.89-2.63C7176.58,2497.93,7176.89,2497.09,7177.49,2496.43z M7175.65,2503.16
	c1.12,1.14,2.52,1.71,4.18,1.71c1.68,0,3.1-0.56,4.25-1.68c1.15-1.12,1.72-2.52,1.72-4.18c0-1.65-0.57-3.04-1.71-4.17
	c-1.16-1.13-2.56-1.7-4.22-1.7c-1.65,0-3.05,0.56-4.2,1.69c-1.15,1.12-1.72,2.49-1.72,4.09
	C7173.96,2500.62,7174.52,2502.04,7175.65,2503.16z M7164.63,2486.95v17.61h7.83v-2.5h-5.18v-15.11H7164.63z M7144.14,2504.55h2.58
	v-5.36c0-1.38,0.17-2.35,0.52-2.91c0.36-0.56,0.96-0.84,1.81-0.84c0.78,0,1.32,0.21,1.62,0.64c0.3,0.42,0.46,1.17,0.46,2.27v6.2
	h2.58v-6.81c0-1.57-0.31-2.69-0.94-3.39c-0.72-0.81-1.73-1.22-3.02-1.22c-1.12,0-2.14,0.44-3.03,1.33v-1.03h-2.58V2504.55z
	 M7138.42,2490.02c0.33,0.33,0.72,0.49,1.19,0.49s0.86-0.16,1.17-0.49c0.33-0.33,0.49-0.72,0.49-1.19c0-0.46-0.16-0.86-0.49-1.17
	c-0.33-0.33-0.72-0.49-1.19-0.49c-0.46,0-0.85,0.16-1.17,0.49s-0.49,0.71-0.49,1.16C7137.93,2489.3,7138.1,2489.7,7138.42,2490.02z
	 M7138.32,2493.45v11.11h2.57v-11.11H7138.32z M7127.29,2496.46c0.59-0.67,1.33-1,2.21-1c0.94,0,1.7,0.33,2.28,0.99
	c0.58,0.68,0.88,1.54,0.88,2.58c0,1.04-0.29,1.9-0.88,2.58c-0.59,0.65-1.35,0.98-2.3,0.98c-0.89,0-1.63-0.34-2.21-1.01
	c-0.57-0.67-0.86-1.54-0.86-2.6C7126.41,2497.97,7126.7,2497.13,7127.29,2496.46z M7132.5,2494.73c-1.03-1.06-2.19-1.6-3.48-1.6
	c-1.5,0-2.74,0.56-3.74,1.66c-1,1.11-1.49,2.5-1.49,4.16c0,1.7,0.5,3.11,1.49,4.24c1,1.11,2.27,1.66,3.81,1.66
	c1.22,0,2.35-0.49,3.41-1.48v1.16h2.58v-11.11h-2.58V2494.73z M7104.49,2504.55l1.89-10.64l5.06,11.45l5.21-11.44l1.7,10.63h2.73
	l-3.33-18.93l-6.26,13.68l-6.04-13.68l-3.71,18.93H7104.49z M7084.06,2497.5c0.08-0.32,0.21-0.6,0.36-0.86
	c0.16-0.25,0.35-0.47,0.58-0.64c0.22-0.18,0.47-0.32,0.75-0.41c0.27-0.09,0.57-0.14,0.88-0.14c1.37,0,2.23,0.68,2.59,2.05H7084.06z
	 M7091.86,2499c0-1.83-0.47-3.26-1.41-4.3c-0.95-1.04-2.24-1.56-3.88-1.56c-1.62,0-2.92,0.54-3.9,1.61
	c-0.97,1.09-1.46,2.51-1.46,4.26c0,1.77,0.5,3.19,1.51,4.26c1,1.06,2.33,1.6,3.99,1.6c0.58,0,1.11-0.06,1.61-0.18
	s0.95-0.31,1.38-0.58c0.43-0.26,0.82-0.6,1.2-1c0.37-0.41,0.73-0.9,1.06-1.47l-2.17-1.21c-0.52,0.82-0.99,1.38-1.4,1.69
	c-0.42,0.3-0.95,0.46-1.58,0.46c-0.82,0-1.49-0.27-2.02-0.8c-0.52-0.54-0.82-1.27-0.89-2.18h7.96L7091.86,2499z M7075.54,2493.14
	c-0.97,0-1.79,0.32-2.46,0.95c-0.66,0.63-0.99,1.43-0.99,2.39c0,0.73,0.19,1.33,0.58,1.79c0.3,0.36,0.83,0.73,1.57,1.09
	c0.27,0.13,0.53,0.25,0.79,0.38s0.52,0.25,0.78,0.38c0.67,0.4,1,0.82,1,1.28c0,0.79-0.43,1.19-1.3,1.19c-0.43,0-0.81-0.14-1.12-0.43
	c-0.16-0.14-0.39-0.48-0.7-1.01l-2.19,1.01c0.78,1.82,2.09,2.73,3.96,2.73c1.09,0,2.01-0.34,2.78-1.03
	c0.79-0.72,1.19-1.62,1.19-2.69c0-0.84-0.24-1.5-0.71-2s-1.39-1.03-2.75-1.62c-0.99-0.42-1.48-0.84-1.48-1.27
	c0-0.24,0.08-0.44,0.25-0.6c0.17-0.16,0.37-0.23,0.6-0.23c0.49,0,0.91,0.34,1.24,1.03l2.12-1.13
	C7078.02,2493.87,7076.96,2493.14,7075.54,2493.14z M7063.52,2504.55h2.57v-5.76c0-2.11,0.7-3.17,2.1-3.17
	c0.46,0,0.94,0.18,1.42,0.52l1.17-2.35c-0.74-0.44-1.44-0.66-2.12-0.66c-0.51,0-0.95,0.1-1.32,0.29c-0.37,0.18-0.78,0.52-1.25,1.01
	v-0.99h-2.57V2504.55z M7052.93,2497.5c0.08-0.32,0.21-0.6,0.37-0.86c0.16-0.25,0.35-0.47,0.58-0.64c0.22-0.18,0.47-0.32,0.75-0.41
	c0.27-0.09,0.57-0.14,0.88-0.14c1.37,0,2.23,0.68,2.59,2.05H7052.93z M7060.73,2499c0-1.83-0.47-3.26-1.41-4.3
	c-0.95-1.04-2.24-1.56-3.88-1.56c-1.62,0-2.92,0.54-3.9,1.61c-0.97,1.09-1.46,2.51-1.46,4.26c0,1.77,0.5,3.19,1.51,4.26
	c1,1.06,2.33,1.6,3.99,1.6c0.58,0,1.11-0.06,1.61-0.18c0.49-0.12,0.95-0.31,1.38-0.58c0.43-0.26,0.83-0.6,1.2-1
	c0.37-0.41,0.73-0.9,1.06-1.47l-2.17-1.21c-0.52,0.82-0.99,1.38-1.4,1.69c-0.42,0.3-0.95,0.46-1.58,0.46c-0.82,0-1.49-0.27-2.02-0.8
	c-0.52-0.54-0.82-1.27-0.89-2.18h7.96L7060.73,2499z M7037.78,2493.45l5.72,11.87l5.77-11.87h-2.88l-2.86,6.24l-2.87-6.24H7037.78z
	 M7029.08,2497.5c0.08-0.32,0.21-0.6,0.37-0.86c0.16-0.25,0.35-0.47,0.58-0.64c0.22-0.18,0.47-0.32,0.75-0.41
	c0.27-0.09,0.57-0.14,0.88-0.14c1.37,0,2.23,0.68,2.59,2.05H7029.08z M7036.88,2499c0-1.83-0.47-3.26-1.41-4.3
	c-0.95-1.04-2.24-1.56-3.88-1.56c-1.62,0-2.92,0.54-3.9,1.61c-0.97,1.09-1.46,2.51-1.46,4.26c0,1.77,0.5,3.19,1.5,4.26
	c1,1.06,2.33,1.6,3.99,1.6c0.58,0,1.11-0.06,1.61-0.18s0.95-0.31,1.38-0.58c0.43-0.26,0.83-0.6,1.2-1s0.73-0.9,1.06-1.47l-2.17-1.21
	c-0.53,0.82-0.99,1.38-1.4,1.69c-0.42,0.3-0.95,0.46-1.58,0.46c-0.82,0-1.49-0.27-2.02-0.8c-0.53-0.54-0.82-1.27-0.89-2.18h7.96
	L7036.88,2499z M7016.22,2489.44h0.95c2.45,0,3.67,0.9,3.67,2.7c0,1.92-1.26,2.88-3.77,2.88h-0.84V2489.44z M7022.35,2495.33
	c0.71-0.9,1.07-1.97,1.07-3.22c0-1.6-0.57-2.88-1.71-3.85c-1.03-0.87-2.71-1.31-5.04-1.31h-3.11v17.61h2.66v-7.21h0.48l5.03,7.21
	h3.25l-5.45-7.5C7020.69,2496.8,7021.64,2496.22,7022.35,2495.33z"/>
<g>
	<defs>
		<rect id="SVGID_13_" x="7275.25" y="1904.94" width="1080" height="650"/>
	</defs>
	<clipPath id="SVGID_14_">
		<use xlink:href="#SVGID_13_"  style="overflow:visible;"/>
	</clipPath>
	<rect x="7275.25" y="1904.94" class="st26" width="1080" height="650"/>
	<rect x="7275.25" y="2478.17" class="st27" width="1080" height="36.77"/>
	<path class="st26" d="M8305.53,2496.43c0.61-0.65,1.4-0.98,2.38-0.98c1,0,1.8,0.33,2.41,0.98c0.6,0.65,0.9,1.51,0.9,2.59
		c0,1.08-0.3,1.94-0.9,2.59c-0.6,0.65-1.4,0.97-2.41,0.97c-1,0-1.8-0.33-2.41-0.98c-0.59-0.65-0.89-1.52-0.89-2.63
		C8304.62,2497.93,8304.92,2497.09,8305.53,2496.43z M8303.68,2503.16c1.12,1.14,2.52,1.71,4.19,1.71c1.68,0,3.1-0.56,4.25-1.68
		c1.15-1.12,1.72-2.52,1.72-4.18c0-1.65-0.57-3.04-1.71-4.17c-1.16-1.13-2.56-1.7-4.22-1.7c-1.65,0-3.05,0.56-4.2,1.69
		c-1.15,1.12-1.72,2.49-1.72,4.09C8301.99,2500.62,8302.56,2502.04,8303.68,2503.16z M8296.02,2501.51
		c-0.57,0.71-1.35,1.07-2.33,1.07s-1.75-0.35-2.3-1.06c-0.51-0.65-0.76-1.47-0.76-2.49c0-1.03,0.25-1.86,0.76-2.51
		c0.56-0.72,1.33-1.08,2.3-1.08c0.91,0,1.66,0.33,2.25,0.99c0.58,0.65,0.87,1.51,0.87,2.59
		C8296.81,2500.03,8296.55,2500.86,8296.02,2501.51z M8299.27,2493.45h-2.57v1.25c-0.93-1.04-2.09-1.56-3.49-1.56
		c-1.6,0-2.88,0.6-3.85,1.8c-0.91,1.13-1.36,2.51-1.36,4.13c0,1.66,0.49,3.05,1.46,4.16c0.96,1.09,2.2,1.64,3.72,1.64
		c1.33,0,2.5-0.52,3.52-1.56v1.55c0,2.3-0.94,3.46-2.82,3.46c-1.02,0-1.79-0.35-2.33-1.04c-0.23-0.3-0.39-0.72-0.49-1.27h-2.58
		c0.15,1.45,0.72,2.59,1.71,3.41c0.96,0.8,2.18,1.2,3.66,1.2c1.76,0,3.14-0.58,4.14-1.73c0.53-0.6,0.89-1.32,1.07-2.16
		c0.06-0.3,0.11-0.66,0.14-1.05c0.03-0.4,0.05-0.86,0.05-1.39V2493.45z M8277.51,2496.43c0.61-0.65,1.4-0.98,2.38-0.98
		c1,0,1.8,0.33,2.41,0.98c0.6,0.65,0.9,1.51,0.9,2.59c0,1.08-0.3,1.94-0.9,2.59c-0.6,0.65-1.4,0.97-2.41,0.97
		c-1,0-1.8-0.33-2.41-0.98c-0.59-0.65-0.89-1.52-0.89-2.63C8276.59,2497.93,8276.9,2497.09,8277.51,2496.43z M8275.66,2503.16
		c1.12,1.14,2.52,1.71,4.19,1.71c1.68,0,3.1-0.56,4.25-1.68c1.15-1.12,1.72-2.52,1.72-4.18c0-1.65-0.57-3.04-1.71-4.17
		c-1.16-1.13-2.56-1.7-4.22-1.7c-1.65,0-3.05,0.56-4.2,1.69c-1.15,1.12-1.72,2.49-1.72,4.09
		C8273.97,2500.62,8274.53,2502.04,8275.66,2503.16z M8264.64,2486.95v17.61h7.83v-2.5h-5.18v-15.11H8264.64z M8246.35,2497.5
		c0.08-0.32,0.21-0.6,0.36-0.86c0.16-0.25,0.35-0.47,0.58-0.64c0.22-0.18,0.47-0.32,0.75-0.41c0.27-0.09,0.57-0.14,0.88-0.14
		c1.37,0,2.23,0.68,2.59,2.05H8246.35z M8254.15,2499c0-1.83-0.47-3.26-1.41-4.3c-0.95-1.04-2.24-1.56-3.88-1.56
		c-1.62,0-2.92,0.54-3.9,1.61c-0.97,1.09-1.46,2.51-1.46,4.26c0,1.77,0.5,3.19,1.51,4.26c1,1.06,2.33,1.6,3.99,1.6
		c0.58,0,1.11-0.06,1.61-0.18s0.95-0.31,1.38-0.58c0.43-0.26,0.82-0.6,1.2-1c0.37-0.41,0.73-0.9,1.06-1.47l-2.17-1.21
		c-0.52,0.82-0.99,1.38-1.4,1.69c-0.42,0.3-0.95,0.46-1.58,0.46c-0.82,0-1.49-0.27-2.02-0.8c-0.52-0.54-0.82-1.27-0.89-2.18h7.96
		L8254.15,2499z M8225.55,2504.55h2.57v-5.74c0-1.16,0.17-2.01,0.5-2.55c0.33-0.54,0.86-0.81,1.58-0.81c1.14,0,1.71,0.99,1.71,2.96
		v6.13h2.58v-5.74c0-1.18,0.16-2.03,0.48-2.57c0.32-0.53,0.84-0.8,1.54-0.8c0.61,0,1.04,0.22,1.31,0.67
		c0.26,0.44,0.39,1.19,0.39,2.26v6.17h2.58v-6.86c0-3.03-1.25-4.55-3.75-4.55c-1.38,0-2.47,0.55-3.27,1.64
		c-0.73-1.09-1.72-1.64-2.98-1.64c-0.56,0-1.03,0.1-1.4,0.29c-0.35,0.18-0.77,0.53-1.27,1.05v-1.03h-2.57V2504.55z M8214.52,2496.46
		c0.59-0.67,1.33-1,2.21-1c0.93,0,1.69,0.33,2.28,0.99c0.58,0.68,0.88,1.54,0.88,2.58c0,1.04-0.29,1.9-0.88,2.58
		c-0.59,0.65-1.35,0.98-2.3,0.98c-0.89,0-1.63-0.34-2.21-1.01c-0.57-0.67-0.86-1.54-0.86-2.6
		C8213.65,2497.97,8213.94,2497.13,8214.52,2496.46z M8219.74,2494.73c-1.03-1.06-2.19-1.6-3.48-1.6c-1.5,0-2.74,0.56-3.74,1.66
		c-1,1.11-1.49,2.5-1.49,4.16c0,1.7,0.5,3.11,1.49,4.24c1,1.11,2.27,1.66,3.81,1.66c1.22,0,2.35-0.49,3.41-1.48v1.16h2.58v-11.11
		h-2.58V2494.73z M8194.75,2504.55v-12.33l12.84,13.4v-18.68h-2.66v12.24l-12.84-13.43v18.8H8194.75z M8173.8,2497.5
		c0.08-0.32,0.21-0.6,0.36-0.86c0.16-0.25,0.35-0.47,0.58-0.64c0.22-0.18,0.47-0.32,0.75-0.41c0.27-0.09,0.57-0.14,0.88-0.14
		c1.37,0,2.23,0.68,2.59,2.05H8173.8z M8181.6,2499c0-1.83-0.47-3.26-1.41-4.3c-0.95-1.04-2.24-1.56-3.88-1.56
		c-1.62,0-2.92,0.54-3.9,1.61c-0.97,1.09-1.46,2.51-1.46,4.26c0,1.77,0.5,3.19,1.5,4.26c1,1.06,2.33,1.6,3.99,1.6
		c0.58,0,1.11-0.06,1.61-0.18s0.95-0.31,1.38-0.58c0.43-0.26,0.82-0.6,1.2-1c0.37-0.41,0.73-0.9,1.06-1.47l-2.17-1.21
		c-0.52,0.82-0.99,1.38-1.4,1.69c-0.42,0.3-0.95,0.46-1.58,0.46c-0.82,0-1.49-0.27-2.02-0.8c-0.52-0.54-0.82-1.27-0.89-2.18h7.96
		L8181.6,2499z M8165.28,2493.14c-0.97,0-1.79,0.32-2.46,0.95c-0.66,0.63-0.99,1.43-0.99,2.39c0,0.73,0.19,1.33,0.58,1.79
		c0.3,0.36,0.83,0.73,1.57,1.09c0.27,0.13,0.53,0.25,0.79,0.38s0.52,0.25,0.78,0.38c0.67,0.4,1,0.82,1,1.28
		c0,0.79-0.43,1.19-1.3,1.19c-0.43,0-0.81-0.14-1.12-0.43c-0.16-0.14-0.39-0.48-0.7-1.01l-2.19,1.01c0.78,1.82,2.09,2.73,3.96,2.73
		c1.09,0,2.01-0.34,2.78-1.03c0.79-0.72,1.19-1.62,1.19-2.69c0-0.84-0.24-1.5-0.71-2c-0.47-0.49-1.39-1.03-2.75-1.62
		c-0.99-0.42-1.48-0.84-1.48-1.27c0-0.24,0.08-0.44,0.25-0.6c0.17-0.16,0.37-0.23,0.6-0.23c0.49,0,0.91,0.34,1.24,1.03l2.12-1.13
		C8167.76,2493.87,8166.7,2493.14,8165.28,2493.14z M8153.26,2504.55h2.57v-5.76c0-2.11,0.7-3.17,2.1-3.17
		c0.46,0,0.94,0.18,1.43,0.52l1.17-2.35c-0.74-0.44-1.44-0.66-2.12-0.66c-0.51,0-0.95,0.1-1.32,0.29c-0.37,0.18-0.78,0.52-1.25,1.01
		v-0.99h-2.57V2504.55z M8142.67,2497.5c0.08-0.32,0.21-0.6,0.37-0.86c0.16-0.25,0.35-0.47,0.58-0.64c0.22-0.18,0.47-0.32,0.75-0.41
		c0.27-0.09,0.57-0.14,0.88-0.14c1.37,0,2.23,0.68,2.59,2.05H8142.67z M8150.47,2499c0-1.83-0.47-3.26-1.41-4.3
		c-0.95-1.04-2.24-1.56-3.88-1.56c-1.62,0-2.92,0.54-3.9,1.61c-0.97,1.09-1.46,2.51-1.46,4.26c0,1.77,0.5,3.19,1.51,4.26
		c1,1.06,2.33,1.6,3.99,1.6c0.58,0,1.11-0.06,1.61-0.18s0.95-0.31,1.38-0.58c0.42-0.26,0.82-0.6,1.2-1c0.37-0.41,0.73-0.9,1.06-1.47
		l-2.17-1.21c-0.52,0.82-0.99,1.38-1.4,1.69c-0.42,0.3-0.95,0.46-1.58,0.46c-0.82,0-1.49-0.27-2.02-0.8
		c-0.52-0.54-0.82-1.27-0.89-2.18h7.96L8150.47,2499z M8127.52,2493.45l5.72,11.87l5.77-11.87h-2.89l-2.86,6.24l-2.87-6.24H8127.52z
		 M8118.82,2497.5c0.08-0.32,0.21-0.6,0.37-0.86c0.16-0.25,0.35-0.47,0.58-0.64c0.22-0.18,0.47-0.32,0.75-0.41
		c0.27-0.09,0.57-0.14,0.88-0.14c1.37,0,2.23,0.68,2.59,2.05H8118.82z M8126.62,2499c0-1.83-0.47-3.26-1.41-4.3
		c-0.95-1.04-2.24-1.56-3.88-1.56c-1.62,0-2.92,0.54-3.9,1.61c-0.97,1.09-1.46,2.51-1.46,4.26c0,1.77,0.5,3.19,1.5,4.26
		c1,1.06,2.33,1.6,3.99,1.6c0.58,0,1.11-0.06,1.61-0.18s0.95-0.31,1.38-0.58c0.43-0.26,0.83-0.6,1.2-1c0.37-0.41,0.73-0.9,1.06-1.47
		l-2.17-1.21c-0.52,0.82-0.99,1.38-1.4,1.69c-0.42,0.3-0.95,0.46-1.58,0.46c-0.82,0-1.49-0.27-2.02-0.8
		c-0.52-0.54-0.82-1.27-0.89-2.18h7.96L8126.62,2499z M8105.96,2489.44h0.95c2.45,0,3.67,0.9,3.67,2.7c0,1.92-1.26,2.88-3.77,2.88
		h-0.84V2489.44z M8112.09,2495.33c0.71-0.9,1.07-1.97,1.07-3.22c0-1.6-0.57-2.88-1.71-3.85c-1.03-0.87-2.71-1.31-5.04-1.31h-3.11
		v17.61h2.66v-7.21h0.48l5.03,7.21h3.25l-5.45-7.5C8110.43,2496.8,8111.38,2496.22,8112.09,2495.33z"/>
	<g class="st28">
		<defs>
			<rect id="SVGID_15_" x="7275.25" y="1904.94" width="1080" height="650"/>
		</defs>
		<clipPath id="SVGID_16_">
			<use xlink:href="#SVGID_15_"  style="overflow:visible;"/>
		</clipPath>
		<path class="st29" d="M8067.24,2222.47l-2.83-7.66c-3.28-8.87-11.44-19.44-31.72-19.44c-7.09,0-13.32,1.24-18.59,3.71
			c0.01-0.51-0.16-1.02-0.5-1.41c-0.4-0.48-1-0.76-1.63-0.76h-12.81l2.22-12.85c0.11-0.62-0.06-1.25-0.47-1.73
			c-0.4-0.48-1-0.76-1.63-0.76h-33.07c-1.03,0-1.91,0.74-2.09,1.75l-2.45,13.59h-6.04c-1.04,0-1.92,0.74-2.09,1.76l-0.77,4.46
			c-5.79-5.03-13.6-7.76-22.42-7.76c-10.23,0-19.72,3.39-26.96,9.49c0.61-7.22-1.48-14.05-6.01-19.47
			c-5.29-6.32-13.51-9.95-22.54-9.95h-46.25c-0.99,0-1.84,0.68-2.07,1.63c-3.6-3.59-8.62-5.62-14.04-5.62
			c-9.84,0-18.48,7.16-20.12,16.66c-0.44,2.51-0.42,5.05,0.05,7.49c-3.21,0.09-6.25,0.53-9.08,1.31h-23.81
			c0.28-0.86,0.51-1.74,0.68-2.64c1.05-5.84-0.42-11.66-4.03-15.98c-3.63-4.34-9.15-6.84-15.15-6.84c-9.84,0-18.48,7.16-20.11,16.65
			c-0.53,3-0.41,5.99,0.34,8.8h-27.37c-0.16,0-0.33,0.02-0.48,0.05c-3.14-1.05-6.51-1.59-10.03-1.59c-8.21,0-16.11,3.07-22.46,8.61
			l4.58-26.05c0.11-0.62-0.06-1.25-0.47-1.74c-0.4-0.48-1-0.76-1.63-0.76h-34.88c-1.03,0-1.92,0.74-2.09,1.76l-3.67,21.16
			l-13.09-21.89c-0.38-0.64-1.08-1.03-1.83-1.03h-27.36c-1.03,0-1.92,0.74-2.09,1.76l-15.25,86.76c-0.11,0.62,0.06,1.25,0.47,1.73
			s1,0.76,1.63,0.76h34.89c1.04,0,1.92-0.75,2.1-1.77l3.61-21.1l13.15,21.84c0.38,0.64,1.08,1.03,1.82,1.03h25.93l-4.47,10.46
			c-0.45,1.06,0.02,2.29,1.08,2.77l6.77,3.08c8.29,3.77,17.28,5.68,26.72,5.68c13.32,0,30.74-3.85,38.97-21.98h24.04h4.4h28.72
			c1.03,0,1.91-0.74,2.09-1.76l4.92-27.86c1.19-1.27,3.28-2.55,5.82-3.13l-5.31,30.25c-0.11,0.62,0.06,1.25,0.47,1.73
			c0.4,0.48,1,0.76,1.63,0.76h30.77h2.35h51.58c11.67,0,21.59-4.61,27.73-12.76c0.5,0.7,1.02,1.38,1.56,2.03
			c6.68,7.91,17.41,12.27,30.2,12.27c9.57,0,18.33-2.31,26.02-6.88l5.59-3.31c0.1-0.06,0.19-0.12,0.28-0.2
			c0.34,0.48,0.68,0.91,1.01,1.3c3.49,4.15,10.27,9.1,22.72,9.1c5.3,0,10.04-0.96,14.92-3.01l3.81-1.6
			c0.26-0.11,0.49-0.26,0.68-0.46c7.2,3.41,15.09,5.07,24.04,5.07c12.04,0,21.4-2.89,27.84-8.59c5.67-5.02,7.85-11.18,8.68-15.46
			c1.33-6.51,0.4-12.19-2.77-16.88l6.24-1.81c0.57-0.16,1.04-0.56,1.3-1.08C8067.41,2223.63,8067.45,2223.02,8067.24,2222.47"/>
		<path class="st30" d="M8055.94,2225.91l9.3-2.7l-2.83-7.66c-3.04-8.24-10.67-18.05-29.72-18.05c-9.23,0-16.25,2.2-21.42,5.57
			l0.7-4.04h-15.33l2.66-15.34h-33.07l-2.76,15.34h-7.81l-1.48,8.52c-5.54-6.5-13.92-10.05-23.82-10.05
			c-12.69,0-23.56,5.29-30.56,14.09c0.49-1.39,0.88-2.83,1.14-4.34c1.36-7.61-0.48-14.89-5.18-20.5
			c-4.89-5.84-12.51-9.19-20.91-9.19h-46.25l-0.83,4.7c-0.51-0.92-1.08-1.8-1.76-2.62c-3.23-3.86-8.15-6.07-13.52-6.07
			c-8.82,0-16.56,6.4-18.02,14.89c-0.56,3.19-0.29,6.37,0.72,9.24h-1.52c-3.6,0-6.95,0.44-10.04,1.33h-27.31
			c0.84-1.59,1.45-3.32,1.8-5.16c0.94-5.2-0.36-10.39-3.57-14.23c-3.23-3.86-8.15-6.07-13.52-6.07c-8.82,0-16.56,6.4-18.02,14.89
			c-0.65,3.7-0.19,7.37,1.25,10.57h-1.68h-28.7l-0.06,0.34c-3.19-1.23-6.71-1.87-10.45-1.87c-10.17,0-19.46,5-25.78,13.05l5.8-32.99
			h-34.87l-4.65,26.8l-16.03-26.8h-27.36l-15.25,86.76h34.89l4.58-26.74l16.1,26.74h27.34l2.99-17.02c0.86,2.3,1.96,4.46,3.36,6.4
			l-10.28,24.04l6.77,3.08c8.01,3.64,16.7,5.48,25.84,5.48c22.35,0,32.82-10.48,37.58-21.98h25.44h4.4h28.72l5.03-28.43
			c1.96-2.45,5.96-4.56,10.4-4.63l-5.8,33.07h30.77h2.36h51.58c12.35,0,22.43-5.48,27.79-14.54c0.88,1.61,1.92,3.13,3.13,4.56
			c6.27,7.42,16.42,11.51,28.58,11.51c9.18,0,17.58-2.22,24.94-6.59l5.59-3.31l-4.16-10.44h3.28c0.56,5.61,2.76,9.5,4.87,12
			c3.2,3.8,9.46,8.34,21.09,8.34c5.01,0,9.49-0.9,14.09-2.84l3.81-1.6l0.27-1.5c7.54,4.04,15.68,5.95,25.28,5.95
			c26.18,0,32.82-14.04,34.43-22.33c1.22-5.97,0.39-11.13-2.48-15.33C8057.24,2227.36,8056.62,2226.6,8055.94,2225.91
			 M7682.73,2232.38c0.46-2.08,1.72-4.55,5.15-4.55c0.34,0,0.62,0.02,0.85,0.06l-0.92,5.01c-2.25,1.58-4.58,1.32-5.13,1.18
			C7682.62,2233.78,7682.57,2233.19,7682.73,2232.38 M7993.56,2233.95c-1.05,0.39-2.07,0.66-3.12,0.84l0.91-5.22h8.7
			c0.17,0.62,0.36,1.21,0.58,1.77L7993.56,2233.95z M7894.67,2220.29l-0.1,0.25l-0.05-0.07L7894.67,2220.29"/>
		<polygon class="st29" points="7654.35,2185.16 7641.77,2256.72 7625.11,2256.72 7600.68,2216.14 7593.73,2256.72 7574.3,2256.72 
			7586.88,2185.16 7603.54,2185.16 7627.87,2225.85 7634.92,2185.16 		"/>
		<path class="st29" d="M7717.94,2206.63l-8.18,46.51c-3.07,17.28-14.21,25.56-32.92,25.56c-9.61,0-17.07-2.25-22.7-4.8l6.03-14.11
			c4.8,3.07,10.84,3.99,15.23,3.99c9.81,0,15.54-4.6,16.87-12.06l0.21-1.33c-4.29,4.19-9.51,6.64-15.64,6.64
			c-13.29,0-22.59-10.63-19.53-27.4c2.56-14.93,14-24.53,26.07-24.53c7.56,0,12.88,3.37,15.74,7.77l1.12-6.24H7717.94z
			 M7694.83,2236.78l2.04-11.14c-1.64-3.68-5.01-5.42-9-5.42c-6.24,0-11.14,3.99-12.57,10.53c-1.12,5.52,1.02,11.04,8.49,11.04
			C7687.68,2241.79,7691.66,2240.26,7694.83,2236.78"/>
		<path class="st29" d="M7737.87,2256.72h-17.69l8.79-50.09h17.68L7737.87,2256.72z M7730.51,2189.76c0.82-4.8,5.32-8.59,10.53-8.59
			c6.54,0,10.73,5.11,9.61,11.35c-0.92,4.91-5.42,8.69-10.63,8.69C7733.58,2201.21,7729.39,2196.1,7730.51,2189.76"/>
		<path class="st29" d="M7793.69,2205.3l-3.27,18.4c-8.59-0.71-16.46,3.78-19.63,9.3l-4.19,23.72h-17.68l8.79-50.09h17.69
			l-1.43,8.07C7779.27,2207.45,7786.43,2205.3,7793.69,2205.3"/>
		<path class="st29" d="M7809.33,2256.72h-17.68l8.79-50.09h17.68L7809.33,2256.72z M7801.97,2189.76c0.82-4.8,5.32-8.59,10.53-8.59
			c6.54,0,10.73,5.11,9.61,11.35c-0.92,4.91-5.42,8.69-10.63,8.69C7805.04,2201.21,7800.84,2196.1,7801.97,2189.76"/>
		<path class="st31" d="M7834.99,2185.16h39.87c12.47,0,20.65,9.3,18.61,20.75c-1.23,6.95-5.62,11.65-11.65,14.52
			c6.64,2.15,11.24,8.89,9.4,18.4c-2.15,11.04-11.35,17.89-23.92,17.89h-44.88L7834.99,2185.16z M7863,2241.18
			c5.21,0,9.1-2.45,9.81-6.75c0.51-3.27-1.12-6.24-6.65-6.24h-19.42l-2.25,12.98H7863z M7864.33,2213.48c5.32,0,9-2.35,9.61-6.75
			c0.51-3.37-1.23-6.13-5.83-6.13h-16.46l-2.25,12.88H7864.33z"/>
		<path class="st31" d="M7929.14,2244.45c5.01,0,9.61-1.23,13.9-3.78l4.8,12.06c-6.03,3.58-13.08,5.52-21.06,5.52
			c-18.71,0-30.05-11.04-27.19-27.91c2.46-14.52,13.9-25.25,30.77-25.25c16.66,0,27.19,12.47,21.37,32.81h-34.66
			C7918.51,2242.61,7923.01,2244.45,7929.14,2244.45 M7936.09,2226.97c0.21-6.13-2.45-8.59-7.05-8.59c-5.11,0-9.2,3.17-11.14,8.59
			H7936.09z"/>
		<path class="st31" d="M7982.3,2237.19c-0.61,3.58,1.12,5.42,5.32,5.42c3.07,0,5.83-0.51,8.59-1.53l-2.66,14.92
			c-3.88,1.64-7.36,2.25-11.14,2.25c-13.08,0-20.34-6.95-18.09-19.93l2.86-16.36h-7.77l2.66-15.33h7.77l2.76-15.33h17.68
			l-2.66,15.33h15.33l-2.66,15.33h-15.33L7982.3,2237.19z"/>
		<path class="st31" d="M8000.91,2251.3l7.57-12.06c5.52,3.89,11.35,5.32,17.58,5.32c5.21,0,8.18-1.02,8.48-2.97
			c0.41-2.15-2.66-2.25-8.59-3.27c-12.68-2.15-20.45-6.24-18.71-16.46c1.53-9.61,10.12-16.76,25.46-16.76
			c14.41,0,20.14,6.44,22.59,13.08l-15.13,4.4c-1.12-3.48-4.6-4.29-8.28-4.29c-4.19,0-6.44,1.23-6.75,3.07
			c-0.31,1.94,1.94,2.56,9.1,3.78c10.73,1.84,21.16,4.4,18.61,16.87c-2.25,11.55-12.68,16.25-26.99,16.25
			C8015.94,2258.25,8008.16,2256,8000.91,2251.3"/>
	</g>
</g>
<g>
	<g>
		<defs>
			<rect id="SVGID_17_" x="-4998.75" y="3595.59" width="1080" height="650"/>
		</defs>
		<clipPath id="SVGID_18_">
			<use xlink:href="#SVGID_17_"  style="overflow:visible;"/>
		</clipPath>
		<rect x="-4998.75" y="4168.83" class="st32" width="1080" height="36.77"/>
		<g class="st33">
			<text transform="matrix(1 0 0 1 -4018.0525 4195.2109)" class="st1" style="font-family:'Futura-Medium'; font-size:23.3529px;">Color</text>
		</g>
		<g class="st33">
			<text transform="matrix(1 0 0 1 -4263.748 3845.5479)"><tspan x="0" y="0" style="fill:#332466; font-family:'Futura-Medium'; font-size:23.3529px;">H</tspan><tspan x="15.23" y="0" style="fill:#332466; font-family:'Futura-Medium'; font-size:23.3529px;">e</tspan><tspan x="26.48" y="0" style="fill:#332466; font-family:'Futura-Medium'; font-size:23.3529px;">x</tspan></text>
		</g>
		<g class="st33">
			<text transform="matrix(1 0 0 1 -4263.748 3873.5713)"><tspan x="0" y="0" style="font-family:'Futura-CondensedMedium'; font-size:23.3529px;">#F5</tspan><tspan x="34.96" y="0" style="font-family:'Futura-CondensedMedium'; font-size:23.3529px;">9</tspan><tspan x="46" y="0" style="font-family:'Futura-CondensedMedium'; font-size:23.3529px; letter-spacing:-1;">1</tspan><tspan x="56" y="0" style="font-family:'Futura-CondensedMedium'; font-size:23.3529px;">1E</tspan></text>
		</g>
		<g class="st33">
			<text transform="matrix(1 0 0 1 -4263.748 3913.5752)"><tspan x="0" y="0" style="fill:#332466; font-family:'Futura-Medium'; font-size:23.3529px;">R</tspan><tspan x="12.17" y="0" style="fill:#332466; font-family:'Futura-Medium'; font-size:23.3529px;">GB</tspan></text>
		</g>
		<g class="st33">
			<text transform="matrix(1 0 0 1 -4263.748 3941.5986)"><tspan x="0" y="0" style="font-family:'Futura-CondensedMedium'; font-size:23.3529px;">2</tspan><tspan x="11.12" y="0" style="font-family:'Futura-CondensedMedium'; font-size:23.3529px;">45</tspan><tspan x="35.08" y="0" style="font-family:'Futura-CondensedMedium'; font-size:23.3529px; letter-spacing:-1;">.</tspan><tspan x="38.58" y="0" style="font-family:'Futura-CondensedMedium'; font-size:23.3529px; letter-spacing:-1;">1</tspan><tspan x="49.27" y="0" style="font-family:'Futura-CondensedMedium'; font-size:23.3529px;">45.30</tspan></text>
		</g>
		<g class="st33">
			
				<text transform="matrix(1 0 0 1 -4263.748 3981.6016)" style="fill:#332466; font-family:'Futura-Medium'; font-size:23.3529px;">CMYK</text>
		</g>
		<g class="st33">
			<text transform="matrix(1 0 0 1 -4263.748 4009.625)"><tspan x="0" y="0" style="font-family:'Futura-CondensedMedium'; font-size:23.3529px;">0.50</tspan><tspan x="40.77" y="0" style="font-family:'Futura-CondensedMedium'; font-size:23.3529px; letter-spacing:-1;">.</tspan><tspan x="44.28" y="0" style="font-family:'Futura-CondensedMedium'; font-size:23.3529px; letter-spacing:-1;">1</tspan><tspan x="55.09" y="0" style="font-family:'Futura-CondensedMedium'; font-size:23.3529px;">00.0</tspan></text>
		</g>
		<g class="st33">
			<text transform="matrix(1 0 0 1 -4696.3838 3845.5479)"><tspan x="0" y="0" style="fill:#332466; font-family:'Futura-Medium'; font-size:23.3529px;">H</tspan><tspan x="15.23" y="0" style="fill:#332466; font-family:'Futura-Medium'; font-size:23.3529px;">e</tspan><tspan x="26.48" y="0" style="fill:#332466; font-family:'Futura-Medium'; font-size:23.3529px;">x</tspan></text>
		</g>
		<g class="st33">
			<text transform="matrix(1 0 0 1 -4719.9238 3873.5713)" style="font-family:'Futura-CondensedMedium'; font-size:23.3529px;">#320F69</text>
		</g>
		<g class="st33">
			<text transform="matrix(1 0 0 1 -4700.8911 3913.5752)"><tspan x="0" y="0" style="fill:#332466; font-family:'Futura-Medium'; font-size:23.3529px;">R</tspan><tspan x="12.17" y="0" style="fill:#332466; font-family:'Futura-Medium'; font-size:23.3529px;">GB</tspan></text>
		</g>
		<g class="st33">
			<text transform="matrix(1 0 0 1 -4725.8086 3941.5986)"><tspan x="0" y="0" style="font-family:'Futura-CondensedMedium'; font-size:23.3529px;">50</tspan><tspan x="23.96" y="0" style="font-family:'Futura-CondensedMedium'; font-size:23.3529px; letter-spacing:-1;">.</tspan><tspan x="27.46" y="0" style="font-family:'Futura-CondensedMedium'; font-size:23.3529px; letter-spacing:-1;">1</tspan><tspan x="38.02" y="0" style="font-family:'Futura-CondensedMedium'; font-size:23.3529px;">5</tspan><tspan x="50" y="0" style="font-family:'Futura-CondensedMedium'; font-size:23.3529px; letter-spacing:-1;">.</tspan><tspan x="53.5" y="0" style="font-family:'Futura-CondensedMedium'; font-size:23.3529px; letter-spacing:-1;">1</tspan><tspan x="64.31" y="0" style="font-family:'Futura-CondensedMedium'; font-size:23.3529px;">05</tspan></text>
		</g>
		<g class="st33">
			
				<text transform="matrix(1 0 0 1 -4722.0488 3981.6016)" style="fill:#332466; font-family:'Futura-Medium'; font-size:23.3529px;">CMYK</text>
		</g>
		<g class="st33">
			<text transform="matrix(1 0 0 1 -4752.7578 4009.625)"><tspan x="0" y="0" style="font-family:'Futura-CondensedMedium'; font-size:23.3529px;">95</tspan><tspan x="23.96" y="0" style="font-family:'Futura-CondensedMedium'; font-size:23.3529px; letter-spacing:-1;">.</tspan><tspan x="27.46" y="0" style="font-family:'Futura-CondensedMedium'; font-size:23.3529px; letter-spacing:-1;">1</tspan><tspan x="38.27" y="0" style="font-family:'Futura-CondensedMedium'; font-size:23.3529px;">00.20.20</tspan></text>
		</g>
		<g class="st33">
			<defs>
				<rect id="SVGID_19_" x="-4998.75" y="3595.59" width="1080" height="650"/>
			</defs>
			<clipPath id="SVGID_20_">
				<use xlink:href="#SVGID_19_"  style="overflow:visible;"/>
			</clipPath>
			<path class="st34" d="M-4430.12,3920.59c0,56.23-45.58,101.81-101.81,101.81s-101.81-45.58-101.81-101.81
				s45.58-101.81,101.81-101.81S-4430.12,3864.36-4430.12,3920.59"/>
			<path class="st35" d="M-4283.75,3920.59c0,56.23-45.58,101.81-101.81,101.81s-101.81-45.58-101.81-101.81
				s45.58-101.81,101.81-101.81S-4283.75,3864.36-4283.75,3920.59"/>
		</g>
	</g>
</g>
</svg>
